<svg xmlns="http://www.w3.org/2000/svg" xmlns:xlink="http://www.w3.org/1999/xlink" width="100" height="100" viewBox="0 0 100 100"><g><g transform="translate(50 50) scale(0.69 0.69) rotate(0) translate(-50 -50)" style="fill:#000000"><svg fill="#0075cb" xmlns="http://www.w3.org/2000/svg" xmlns:xlink="http://www.w3.org/1999/xlink" version="1.1" x="0px" y="0px" viewBox="0 0 60 60" style="enable-background:new 0 0 60 60;" xml:space="preserve"><path d="M52.1015625,26.5002441l-0.085083,0.0852051l-1.0839844-1.0834961l1.7301025-1.7302246  c0.3320313-0.3320313,0.8032227-1.0810547,0.2275391-2.3720703c-0.2700195-0.6054688-0.7504883-1.2705078-1.3535156-1.8730469  c-0.6030273-0.6035156-1.2685547-1.0849609-1.8740234-1.3554688c-1.2944336-0.5771484-2.0424805-0.1054688-2.3740234,0.2265625  l-6.8344727,6.8344727v-9.487793c0-0.0217285-0.0111084-0.0412598-0.0125122-0.0628662  c-0.0056763-0.0882568-0.022522-0.1732178-0.0510864-0.2568359c-0.0109863-0.0323486-0.0194702-0.0637207-0.0337524-0.0947266  c-0.048645-0.1060791-0.1099243-0.2069092-0.1956177-0.2926025l-8.7446289-8.7441406  c-0.0860596-0.0859375-0.1871948-0.1474609-0.2936401-0.196167c-0.0299072-0.0137939-0.0601196-0.0218506-0.0912476-0.0325928  c-0.0856323-0.029541-0.1726685-0.046875-0.2630615-0.0523682c-0.0203247-0.0012207-0.0386353-0.0118408-0.059082-0.0118408  H7.1914063c-0.5522461,0-1,0.4472656-1,1v46c0,0.5527344,0.4477539,1,1,1h32.2631836c0.5522461,0,1-0.4472656,1-1V35.9797363  l2.8232422-2.8232422c0.0008545-0.0007324,0.0020752-0.0009766,0.0029297-0.0019531  c0.0008545-0.0007324,0.0010986-0.0019531,0.0019531-0.0029297l6.2357178-6.2355957l1.0840454,1.0834961l-4.7758179,4.776123  c-0.390625,0.390625-0.390625,1.0234375,0,1.4140625c0.1953125,0.1953125,0.4511719,0.2929688,0.7070313,0.2929688  s0.5117188-0.0976563,0.7070313-0.2929688l6.2749023-6.2753906c0.390625-0.390625,0.390625-1.0234375,0-1.4140625  S52.4921875,26.1096191,52.1015625,26.5002441z M48.6044922,19.9104004  c0.2524414,0.0527344,0.8486328,0.3603516,1.5166016,1.0283203s0.9760742,1.2646484,1.0292969,1.5166016l-8.5772705,8.5775146  l-2.5455322-2.5457764L48.6044922,19.9104004z M25.6096191,44.0688477l1.3821411,1.3818359l-1.7754517,0.3933105  L25.6096191,44.0688477z M28.9877319,44.6185303l-2.5460205-2.5457764l5.8053589-5.8056641l6.3664551-6.3660889l2.5455322,2.5458984  L28.9877319,44.6185303z M37.0395508,14.7443848h-5.3300781V9.4143066L37.0395508,14.7443848z M38.4545898,37.9807129v14.0195313  H8.1914063v-44h21.5180664v7.7441406c0,0.5527344,0.4477539,1,1,1h7.7446289v10.4873047L37.906311,27.779541H37.90625  l-0.000061,0.0001221l-2.8590088,2.8591309c-0.1415405-0.0767822-0.2957764-0.1317139-0.4680786-0.1317139H12.0664063  c-0.5522461,0-1,0.4472656-1,1s0.4477539,1,1,1H33.178894l-0.1088257,0.1088867l-8.7497559,8.7495117  c-0.0845947,0.0847168-0.145874,0.1862793-0.1952515,0.2940674c-0.0144653,0.0316162-0.0248413,0.0623779-0.0358276,0.0950928  c-0.0117798,0.0345459-0.0304565,0.0661621-0.0384521,0.1020508l-1.1269531,5.0878906  c-0.0552979,0.2497559-0.0119629,0.5083008,0.1151123,0.7237549c0.0423584,0.0718994,0.0939941,0.1387939,0.1544189,0.1990967  c0.0845337,0.0847168,0.1849365,0.1450195,0.2904053,0.1936035c0.024231,0.0113525,0.0471191,0.0219727,0.0721436,0.03125  c0.1060791,0.0390625,0.2162476,0.0635986,0.3301392,0.0654297c0.0049438,0,0.0093994,0.0026855,0.0143433,0.0026855  c0.0717773,0,0.1445313-0.0078125,0.2163086-0.0234375l5.0874023-1.1279297  c0.0361328-0.0078125,0.0679932-0.0268555,0.1027222-0.0385742c0.0319824-0.0109863,0.0623169-0.0209961,0.0933228-0.0351563  c0.1079102-0.0493164,0.2098389-0.1108398,0.2946777-0.1958008L38.4545898,37.9807129z"></path><path d="M12.0664063,22.9943848h22.5126953c0.5522461,0,1-0.4472656,1-1s-0.4477539-1-1-1H12.0664063c-0.5522461,0-1,0.4472656-1,1  S11.5141602,22.9943848,12.0664063,22.9943848z"></path><path d="M12.0664063,27.7502441h22.5126953c0.5522461,0,1-0.4472656,1-1s-0.4477539-1-1-1H12.0664063c-0.5522461,0-1,0.4472656-1,1  S11.5141602,27.7502441,12.0664063,27.7502441z"></path><path d="M23.7041016,36.2629395c0-0.5527344-0.4477539-1-1-1H12.0664063c-0.5522461,0-1,0.4472656-1,1s0.4477539,1,1,1h10.6376953  C23.2563477,37.2629395,23.7041016,36.8156738,23.7041016,36.2629395z"></path><path d="M12.0664063,13.2443848h10.6376953c0.5522461,0,1-0.4472656,1-1s-0.4477539-1-1-1H12.0664063c-0.5522461,0-1,0.4472656-1,1  S11.5141602,13.2443848,12.0664063,13.2443848z"></path><path d="M12.0664063,18.1193848h14.1376953c0.5522461,0,1-0.4472656,1-1s-0.4477539-1-1-1H12.0664063c-0.5522461,0-1,0.4472656-1,1  S11.5141602,18.1193848,12.0664063,18.1193848z"></path></svg></g></g></svg>