<?xml version="1.0" encoding="UTF-8"?>
<svg width="12px" height="12px" viewBox="0 0 12 12" version="1.1" xmlns="http://www.w3.org/2000/svg" xmlns:xlink="http://www.w3.org/1999/xlink">
    <!-- Generator: sketchtool 55.2 (78181) - https://sketchapp.com -->
    <title>DFCDBADA-8C4A-42AA-8452-D6409ED2ED0D</title>
    <desc>Created with sketchtool.</desc>
    <g id="EP-calibration" stroke="none" stroke-width="1" fill="none" fill-rule="evenodd">
        <g id="005" transform="translate(-1036.000000, -612.000000)">
            <g id="baseline-refresh-24px" transform="translate(1042.000000, 618.000000) scale(-1, 1) translate(-1042.000000, -618.000000) translate(1034.000000, 610.000000)">
                <path d="M11.7666667,4.23333333 C10.8,3.26666667 9.47333333,2.66666667 8,2.66666667 C5.05333333,2.66666667 2.67333333,5.05333333 2.67333333,8 C2.67333333,10.9466667 5.05333333,13.3333333 8,13.3333333 C10.4866667,13.3333333 12.56,11.6333333 13.1533333,9.33333333 L11.7666667,9.33333333 C11.22,10.8866667 9.74,12 8,12 C5.79333333,12 4,10.2066667 4,8 C4,5.79333333 5.79333333,4 8,4 C9.10666667,4 10.0933333,4.46 10.8133333,5.18666667 L8.66666667,7.33333333 L13.3333333,7.33333333 L13.3333333,2.66666667 L11.7666667,4.23333333 Z" id="Path" fill="#0075CB" fill-rule="nonzero"></path>
                <polygon id="Path" points="0 0 16 0 16 16 0 16"></polygon>
            </g>
        </g>
    </g>
</svg>