<?xml version="1.0" encoding="UTF-8"?>
<svg width="14px" height="19px" viewBox="0 0 14 19" version="1.1" xmlns="http://www.w3.org/2000/svg" xmlns:xlink="http://www.w3.org/1999/xlink">
    <!-- Generator: sketchtool 55.2 (78181) - https://sketchapp.com -->
    <title>C19A0797-BD0B-488B-AEE3-FC208B69291B</title>
    <desc>Created with sketchtool.</desc>
    <g id="EP-calibration" stroke="none" stroke-width="1" fill="none" fill-rule="evenodd">
        <g id="005" transform="translate(-860.000000, -658.000000)" fill="#F34D3D" fill-rule="nonzero">
            <g id="round-mic-24px" transform="translate(860.000000, 658.000000)">
                <path d="M7,12 C8.66,12 10,10.66 10,9 L10,3 C10,1.34 8.66,0 7,0 C5.34,0 4,1.34 4,3 L4,9 C4,10.66 5.34,12 7,12 Z M12.91,9 C12.42,9 12.01,9.36 11.93,9.85 C11.52,12.2 9.47,14 7,14 C4.53,14 2.48,12.2 2.07,9.85 C1.99,9.36 1.58,9 1.09,9 C0.48,9 0,9.54 0.09,10.14 C0.58,13.14 2.98,15.49 6,15.92 L6,18 C6,18.55 6.45,19 7,19 C7.55,19 8,18.55 8,18 L8,15.92 C11.02,15.49 13.42,13.14 13.91,10.14 C14.01,9.54 13.52,9 12.91,9 Z" id="Shape"></path>
            </g>
        </g>
    </g>
</svg>