<?xml version="1.0" encoding="UTF-8"?>
<svg width="42px" height="50px" viewBox="0 0 42 50" version="1.1" xmlns="http://www.w3.org/2000/svg" xmlns:xlink="http://www.w3.org/1999/xlink">
    <!-- Generator: sketchtool 58 (101010) - https://sketch.com -->
    <title>84B7DD23-BB4B-4712-9FEC-2E639C4E91A7</title>
    <desc>Created with sketchtool.</desc>
    <defs>
        <path d="M19.805,0.655 C9.076,1.344 0.949,10.66 0.949,21.311 L0.949,21.311 L0.949,36.184 C0.949,39.875 3.957,42.854 7.684,42.854 L7.684,42.854 L9.929,42.854 C12.398,42.854 12.291,40.854 12.291,38.408 L12.291,38.408 L12.291,29.514 C12.291,27.068 12.398,25.068 9.929,25.068 L9.929,25.068 L5.44,25.068 L5.44,21.266 C5.44,12.729 12.084,5.303 20.681,5.058 L20.681,5.058 C29.593,4.814 36.866,11.862 36.866,20.621 L36.866,20.621 L36.866,25.068 L32.376,25.068 C29.907,25.068 30.014,27.068 30.014,29.514 L30.014,29.514 L30.014,38.408 C30.014,40.854 29.907,42.854 32.376,42.854 L32.376,42.854 L36.866,42.854 L36.866,45.078 L23.397,45.078 C22.162,45.078 21.153,46.078 21.153,47.301 L21.153,47.301 C21.153,48.523 22.162,49.524 23.397,49.524 L23.397,49.524 L34.621,49.524 C38.348,49.524 41.356,46.545 41.356,42.854 L41.356,42.854 L41.356,20.621 C41.356,9.569 32.305,0.613 21.151,0.612 L21.151,0.612 C20.705,0.612 20.258,0.626 19.805,0.655 L19.805,0.655 Z" id="path-1"></path>
    </defs>
    <g id="EP-calibration" stroke="none" stroke-width="1" fill="none" fill-rule="evenodd">
        <g id="Welcome-screen-Copy-36" transform="translate(-793.000000, -421.000000)">
            <g id="Group-6" transform="translate(788.000000, 420.000000)">
                <g id="Group-3" transform="translate(5.000000, 0.977000)">
                    <mask id="mask-2" fill="white">
                        <use xlink:href="#path-1"></use>
                    </mask>
                    <g id="Clip-2"></g>
                    <polygon id="Fill-1" fill="#233659" mask="url(#mask-2)" points="-4.367 54.841 46.672 54.841 46.672 -4.704 -4.367 -4.704"></polygon>
                </g>
                <polygon id="Fill-4" points="0.905 51.501 50.905 51.501 50.905 1.501 0.905 1.501"></polygon>
            </g>
        </g>
    </g>
</svg>