<svg id="outline-video_library-24px" xmlns="http://www.w3.org/2000/svg" xmlns:xlink="http://www.w3.org/1999/xlink" width="24" height="23.948" viewBox="0 0 24 23.948">
  <defs>
    <style>
      .cls-1 {
        fill: none;
      }

      .cls-2 {
        fill: url(#linear-gradient);
      }
    </style>
    <linearGradient id="linear-gradient" x1="0.5" x2="0.5" y2="1.131" gradientUnits="objectBoundingBox">
      <stop offset="0" stop-color="#0075cb"/>
      <stop offset="1" stop-color="#4052c8"/>
    </linearGradient>
  </defs>
  <path id="Path" class="cls-1" d="M0,0H24V23.948H0Z"/>
  <path id="Shape" class="cls-2" d="M16,19.957H2a2,2,0,0,1-2-2V3.992H2V17.96H16v2Zm2-3.991H6a2,2,0,0,1-2-2V2A2,2,0,0,1,6,0H18a2,2,0,0,1,2,2V13.97A2,2,0,0,1,18,15.965ZM6,2V13.97H18V2Zm4,10.478V3.492l6,4.49-6,4.49Z" transform="translate(2 1.996)"/>
</svg>
