<svg id="backgroundArtboard_1_copy" data-name="backgroundArtboard 1 copy" xmlns="http://www.w3.org/2000/svg" xmlns:xlink="http://www.w3.org/1999/xlink" width="24" height="24" viewBox="0 0 24 24">
  <defs>
    <linearGradient id="linear-gradient" x1="0.5" y1="1" x2="0.5" y2="-0.131" gradientUnits="objectBoundingBox">
      <stop offset="0" stop-color="#0075cb"/>
      <stop offset="1" stop-color="#4052c8"/>
    </linearGradient>
    <linearGradient id="linear-gradient-2" y2="-0.131" xlink:href="#linear-gradient"/>
  </defs>
  <path id="Path" d="M0,0H24V24H0Z" fill="none"/>
  <path id="Path_224" data-name="Path 224" d="M12,2A10,10,0,1,0,22,12,10,10,0,0,0,12,2Zm0,18a8,8,0,1,1,8-8A8,8,0,0,1,12,20Z" fill="url(#linear-gradient)"/>
  <path id="Path_225" data-name="Path 225" d="M17.81,9.37a.44.44,0,0,0-.44-.44L14,8.91a.45.45,0,0,0-.32.76l1,1-1.79,1.8-2.7-2.7a1,1,0,0,0-1.41,0L5.44,13.08a1,1,0,1,0,1.42,1.41l2.6-2.6,2.7,2.69a1,1,0,0,0,1.41,0l2.5-2.5,1,1a.45.45,0,0,0,.76-.32Z" fill="url(#linear-gradient-2)"/>
</svg>
