<?xml version="1.0" encoding="UTF-8"?>
<svg width="43px" height="50px" viewBox="0 0 43 50" version="1.1" xmlns="http://www.w3.org/2000/svg" xmlns:xlink="http://www.w3.org/1999/xlink">
    <!-- Generator: sketchtool 58 (101010) - https://sketch.com -->
    <title>B398F763-7932-4C1A-ABEC-4C3FDCAD91A6</title>
    <desc>Created with sketchtool.</desc>
    <g id="EP-calibration" stroke="none" stroke-width="1" fill="none" fill-rule="evenodd">
        <g id="Welcome-screen-Copy-36" transform="translate(-320.000000, -670.000000)">
            <g id="Group-5" transform="translate(317.000000, 670.000000)">
                <path d="M8.5898,21 L17.4298,4 L33.3898,4 L40.8698,21 L8.5898,21 Z M32.2198,42 C32.9198,42 33.4998,42.58 33.4998,43.28 L33.4998,46 L15.4998,46 L15.4998,43.28 C15.4998,42.58 16.0798,42 16.7798,42 L32.2198,42 Z M45.4598,21.49 L36.5098,1.17 C36.1998,0.46 35.4998,0 34.7298,0 L16.1898,0 C15.4598,0 14.7898,0.41 14.4498,1.05 L3.4798,22.15 C2.8098,23.45 3.7498,25 5.2198,25 L22.4998,25 L22.4998,38 L16.7798,38 C13.8698,38 11.4998,40.37 11.4998,43.28 L11.4998,50 L37.4998,50 L37.4998,43.28 C37.4998,40.37 35.1298,38 32.2198,38 L26.4998,38 L26.4998,25 L33.9998,25 L33.9998,28.81 C32.7998,29.5 31.9998,30.79 31.9998,32.27 C31.9998,34.48 33.7898,36.27 35.9998,36.27 C38.2098,36.27 39.9998,34.48 39.9998,32.27 C39.9998,30.79 39.1998,29.5 37.9998,28.81 L37.9998,25 L43.1698,25 C44.9698,25 46.1798,23.15 45.4598,21.49 L45.4598,21.49 Z" id="Fill-1" fill="#233659"></path>
                <polygon id="Fill-3" points="0 50 50 50 50 0 0 0"></polygon>
            </g>
        </g>
    </g>
</svg>