<?xml version="1.0" encoding="UTF-8"?>
<svg width="41px" height="33px" viewBox="0 0 41 33" version="1.1" xmlns="http://www.w3.org/2000/svg" xmlns:xlink="http://www.w3.org/1999/xlink">
    <!-- Generator: sketchtool 58 (101010) - https://sketch.com -->
    <title>B31ED3C0-D13A-4B10-BE36-0D1CFF21D9B0</title>
    <desc>Created with sketchtool.</desc>
    <g id="EP-calibration" stroke="none" stroke-width="1" fill="none" fill-rule="evenodd">
        <g id="Welcome-screen-Copy-36" transform="translate(-322.000000, -422.000000)" fill="#233659">
            <g id="Group-17" transform="translate(317.000000, 413.000000)">
                <path d="M7.0002,40.0001 L7.0002,11.0001 L7.0002,40.0001 Z" id="Fill-1"></path>
                <g id="Group-16">
                    <path d="M7,42 C5.896,42 5,41.104 5,40 L5,11 C5,9.896 5.896,9 7,9 C8.104,9 9,9.896 9,11 L9,40 C9,41.104 8.104,42 7,42" id="Fill-2"></path>
                    <path d="M17.3301,24.5 L14.6801,24.5" id="Fill-4"></path>
                    <path d="M35.3198,24.5 L33.6698,24.5" id="Fill-6"></path>
                    <path d="M44,11 L44,40" id="Fill-8"></path>
                    <path d="M44,42 C42.896,42 42,41.104 42,40 L42,11 C42,9.896 42.896,9 44,9 C45.104,9 46,9.896 46,11 L46,40 C46,41.104 45.104,42 44,42" id="Fill-10"></path>
                    <path d="M38.4102,25.4102 L33.4102,30.4102 C33.0202,30.8002 32.5102,31.0002 32.0002,31.0002 C31.4902,31.0002 30.9802,30.8002 30.5902,30.4102 C29.8002,29.6302 29.8002,28.3702 30.5902,27.5902 L31.6802,26.5002 L19.3202,26.5002 L20.4102,27.5902 C21.2002,28.3702 21.2002,29.6302 20.4102,30.4102 C20.0202,30.8002 19.5102,31.0002 19.0002,31.0002 C18.4902,31.0002 17.9802,30.8002 17.5902,30.4102 L12.5902,25.4102 C11.8002,24.6302 11.8002,23.3702 12.5902,22.5902 L17.5902,17.5902 C18.3702,16.8002 19.6302,16.8002 20.4102,17.5902 C21.2002,18.3702 21.2002,19.6302 20.4102,20.4102 L18.3302,22.5002 L32.6702,22.5002 L30.5902,20.4102 C29.8002,19.6302 29.8002,18.3702 30.5902,17.5902 C31.3702,16.8002 32.6302,16.8002 33.4102,17.5902 L38.4102,22.5902 C39.2002,23.3702 39.2002,24.6302 38.4102,25.4102" id="Fill-12"></path>
                    <polygon id="Fill-14" opacity="0" points="0 50 50 50 50 0 0 0"></polygon>
                </g>
            </g>
        </g>
    </g>
</svg>