<?xml version="1.0" encoding="UTF-8"?>
<svg width="42px" height="63px" viewBox="0 0 42 63" version="1.1" xmlns="http://www.w3.org/2000/svg" xmlns:xlink="http://www.w3.org/1999/xlink">
    <!-- Generator: sketchtool 58 (101010) - https://sketch.com -->
    <title>99D15797-2245-4FCD-A3A5-87D5C83D4361</title>
    <desc>Created with sketchtool.</desc>
    <g id="EP-calibration" stroke="none" stroke-width="1" fill="none" fill-rule="evenodd">
        <g id="Welcome-screen-Copy-36" transform="translate(-952.000000, -252.000000)">
            <g id="noun_Microphone_1492780" transform="translate(937.000000, 247.000000)">
                <path d="M36.0248521,5 C39.4544379,5 42.635503,6.44142012 44.9218935,8.67810651 C46.7112426,10.5171598 48.0035503,12.8532544 48.4508876,15.487574 L48.4011834,15.487574 L42.1384615,15.487574 C40.9455621,15.487574 40.0011834,16.4319527 40.0011834,17.6248521 C40.0011834,18.7680473 40.9455621,19.712426 42.1384615,19.712426 L48.4011834,19.712426 C48.5005917,19.712426 48.5502959,19.712426 48.6,19.712426 L48.6,23.7384615 C48.5502959,23.7384615 48.5005917,23.7384615 48.4011834,23.7384615 L42.1384615,23.7384615 C40.9455621,23.7384615 40.0011834,24.6828402 40.0011834,25.8260355 C40.0011834,27.0189349 40.9455621,27.9633136 42.1384615,27.9633136 L48.4011834,27.9633136 C48.5005917,27.9633136 48.5502959,27.9633136 48.6,27.9633136 L48.6,31.9893491 C48.5502959,31.9893491 48.5005917,31.9893491 48.4011834,31.9893491 L42.1384615,31.9893491 C40.9455621,31.9893491 40.0011834,32.9337278 40.0011834,34.0769231 C40.0011834,35.2698225 40.9455621,36.2142012 42.1384615,36.2142012 L48.4011834,36.2142012 L48.4508876,36.2142012 C48.0035503,38.8485207 46.7112426,41.1846154 44.9218935,42.9739645 C42.635503,45.260355 39.4544379,46.7017751 36.0248521,46.7017751 C32.5455621,46.7017751 29.364497,45.260355 27.0781065,42.9739645 C25.2887574,41.1846154 24.0461538,38.8485207 23.5988166,36.2142012 L29.712426,36.2142012 C30.8556213,36.2142012 31.8,35.2698225 31.8,34.0769231 C31.8,32.9337278 30.8556213,31.9893491 29.712426,31.9893491 L23.4,31.9893491 L23.4,27.9633136 L29.712426,27.9633136 C30.8556213,27.9633136 31.8,27.0189349 31.8,25.8260355 C31.8,24.6828402 30.8556213,23.7384615 29.712426,23.7384615 L23.4,23.7384615 L23.4,19.712426 L29.712426,19.712426 C30.8556213,19.712426 31.8,18.7680473 31.8,17.6248521 C31.8,16.4319527 30.8556213,15.487574 29.712426,15.487574 L23.5988166,15.487574 C24.0461538,12.8532544 25.2887574,10.5171598 27.0781065,8.67810651 C29.364497,6.44142012 32.5455621,5 36.0248521,5 Z M27.6248521,67.7266272 C26.4319527,67.7266272 25.487574,66.7822485 25.487574,65.5893491 C25.487574,64.4461538 26.4319527,63.5017751 27.6248521,63.5017751 L33.887574,63.5017751 L33.887574,55.0023669 C28.9668639,54.5053254 24.4934911,52.2686391 21.1633136,48.9384615 C17.3857988,45.1112426 15,39.8923077 15,34.0769231 C15,32.9337278 15.9443787,31.9893491 17.087574,31.9893491 C18.2804734,31.9893491 19.2248521,32.9337278 19.2248521,34.0769231 C19.2248521,38.6994083 21.1136095,42.9242604 24.1455621,45.956213 C27.1775148,48.9881657 31.4023669,50.8769231 36.0248521,50.8769231 C40.6473373,50.8769231 44.8224852,48.9881657 47.8544379,45.956213 C50.9360947,42.9242604 52.8248521,38.6994083 52.8248521,34.0769231 C52.8248521,32.9337278 53.7692308,31.9893491 54.912426,31.9893491 C56.0556213,31.9893491 57,32.9337278 57,34.0769231 C57,39.8923077 54.6639053,45.1112426 50.8366864,48.9384615 C47.5065089,52.2686391 43.0331361,54.5053254 38.112426,55.0023669 L38.112426,63.5017751 L44.4248521,63.5017751 C45.5680473,63.5017751 46.512426,64.4461538 46.512426,65.5893491 C46.512426,66.7822485 45.5680473,67.7266272 44.4248521,67.7266272 L36.0248521,67.7266272 L27.6248521,67.7266272 L27.6248521,67.7266272 Z" id="Shape" fill="#FFFFFF" fill-rule="nonzero"></path>
                <rect id="Rectangle" opacity="0.528018043" x="0" y="0" width="72" height="72"></rect>
            </g>
        </g>
    </g>
</svg>