<?xml version="1.0" encoding="UTF-8"?>
<svg width="49px" height="42px" viewBox="0 0 49 42" version="1.1" xmlns="http://www.w3.org/2000/svg" xmlns:xlink="http://www.w3.org/1999/xlink">
    <!-- Generator: sketchtool 58 (101010) - https://sketch.com -->
    <title>5AD14299-82CA-4BC7-921B-CAF054488C7A</title>
    <desc>Created with sketchtool.</desc>
    <g id="EP-calibration" stroke="none" stroke-width="1" fill="none" fill-rule="evenodd">
        <g id="Welcome-screen-Copy-36" transform="translate(-788.000000, -598.000000)">
            <g id="Group-7" transform="translate(788.000000, 594.000000)">
                <path d="M25.6802,40.54 L12.3202,32.84 L12.3202,20.16 L25.6802,12.46 L25.6802,40.54 Z M4.0002,32 L8.0002,32 L8.0002,21 L4.0002,21 L4.0002,32 Z M28.6902,7.269 C28.0702,6.91 27.3102,6.91 26.6902,7.269 L9.7902,17 L2.0002,17 C0.9002,17 0.0002,17.9 0.0002,19 L0.0002,34 C0.0002,35.1 0.9002,36 2.0002,36 L9.7902,36 L26.6902,45.73 C27.0002,45.91 27.3402,46 27.6802,46 C28.0302,46 28.3802,45.91 28.6902,45.73 C29.3002,45.37 29.6802,44.71 29.6802,44 L29.6802,9 C29.6802,8.29 29.3002,7.63 28.6902,7.269 L28.6902,7.269 Z" id="Fill-1" fill="#233659"></path>
                <path d="M48.6099,37.75 L42.6699,44.97 C41.7499,46.09 40.2499,46.09 39.3299,44.97 L33.3899,37.75 C32.5599,36.74 33.1499,35 34.3299,35 L38.9999,35 L38.9999,6 C38.9999,4.9 39.8999,4 40.9999,4 C42.0999,4 42.9999,4.9 42.9999,6 L42.9999,35 L47.6699,35 C48.8499,35 49.4399,36.74 48.6099,37.75" id="Fill-3" fill="#233659"></path>
                <polygon id="Fill-5" points="0 50 50 50 50 0 0 0"></polygon>
            </g>
        </g>
    </g>
</svg>