<?xml version="1.0" encoding="UTF-8"?>
<svg width="66px" height="68px" viewBox="0 0 66 68" version="1.1" xmlns="http://www.w3.org/2000/svg" xmlns:xlink="http://www.w3.org/1999/xlink">
    <!-- Generator: sketchtool 58 (101010) - https://sketch.com -->
    <title>D5993A14-EF84-4B06-8DBE-B99B6E8DE98C</title>
    <desc>Created with sketchtool.</desc>
    <g id="EP-calibration" stroke="none" stroke-width="1" fill="none" fill-rule="evenodd">
        <g id="Welcome-screen-Copy-36" transform="translate(-464.000000, -249.000000)">
            <g id="noun_webcam_817209-(1)" transform="translate(461.000000, 247.000000)">
                <path d="M35.5572324,2 C50.4648522,2 62.5925819,14.1277298 62.5925819,29.0353496 C62.5925819,35.0334019 60.625173,40.5778978 57.307046,45.0670143 L57.0016943,45.4721917 L64.7580965,52.1886096 C67.8462347,54.8631579 68.9194476,59.0648075 67.4920321,62.8924588 C66.0986026,66.6289754 62.6711947,69.075307 58.7086719,69.1896808 L58.417798,69.1938727 L12.6966668,69.1938727 C8.61167071,69.1938727 5.04914125,66.72011 3.62243269,62.8924588 C2.23139184,59.1604988 3.21683882,55.0730066 6.12925046,52.3920343 L6.35707527,52.1886096 L14.1127705,45.4714847 C10.6103353,40.9135114 8.52188281,35.215161 8.52188281,29.0353496 C8.52188281,14.1277298 20.6496126,2 35.5572324,2 Z M53.1040509,49.5783975 L53.1033439,49.5783975 C51.1646648,51.2371805 48.9899018,52.6277512 46.6369529,53.6909908 L46.1938279,53.8864979 C43.099963,55.2179077 39.7099979,55.9876166 36.151801,56.0649504 L35.5572324,56.0714061 C32.1252425,56.0714061 28.8416233,55.4271655 25.8193616,54.2541503 L25.3682174,54.074357 C25.2184357,54.013082 25.0693221,53.9504998 24.9208906,53.8866248 L24.4773668,53.6909908 C24.1712929,53.5526895 23.8682327,53.4088499 23.5683134,53.259602 C23.148057,53.0504704 22.7336884,52.8305581 22.3258537,52.6003717 L21.908379,52.359871 C21.770171,52.2785945 21.6327435,52.1961259 21.4961107,52.1124798 L21.0893202,51.858378 C20.383132,51.4086601 19.6990921,50.9271268 19.0392254,50.4158456 C18.9199847,50.3237833 18.8016599,50.2305408 18.6841334,50.1363413 L18.3780296,49.8869157 L18.0118278,49.5791045 L18.0104138,49.5783975 L10.058882,56.4644933 C8.096981,58.1633936 8.69226772,60.3020424 8.92133292,60.9164179 C9.07237891,61.3220044 9.53667298,62.3325685 10.5797586,62.9739103 C10.9437536,63.1977511 11.3780415,63.3767378 11.8940765,63.4694192 C11.9994891,63.4878531 12.1080122,63.5031085 12.2200218,63.5144327 L12.4432209,63.5320866 L12.6973738,63.5386489 L58.418505,63.5386489 C61.0138702,63.5386489 61.9633596,61.5322074 62.1931318,60.9171249 C62.4150387,60.3212637 62.980636,58.2955713 61.2321084,56.6249936 L61.0555827,56.4644933 L53.1040509,49.5783975 Z M35.5572324,7.65593087 C23.7688585,7.65593087 14.1778137,17.2469756 14.1778137,29.0353496 C14.1778137,40.8244305 23.7688585,50.4154753 35.5572324,50.4154753 C47.3456063,50.4154753 56.9366511,40.8244305 56.9366511,29.0353496 C56.9366511,17.2469756 47.3456063,7.65593087 35.5572324,7.65593087 Z M35.5572324,12.2803614 C44.7961955,12.2803614 52.3122206,19.7963865 52.3122206,29.0346426 C52.3122206,38.2736057 44.7954885,45.7896308 35.5572324,45.7896308 C26.3189763,45.7896308 18.8029511,38.2736057 18.8029511,29.0346426 C18.8029511,19.7963865 26.3189763,12.2803614 35.5572324,12.2803614 Z M35.5572324,17.9369992 C29.4375152,17.9369992 24.458882,22.9156324 24.458882,29.0353496 C24.458882,35.1557738 29.4375152,40.1344069 35.5572324,40.1344069 C41.6776566,40.1344069 46.6562897,35.1550668 46.6562897,29.0353496 C46.6562897,22.9156324 41.6769496,17.9369992 35.5572324,17.9369992 Z M35.5572324,19.5517675 C36.7287171,19.5517675 37.6782065,20.5012569 37.6782065,21.6727416 C37.6782065,22.8442262 36.7287171,23.7937156 35.5572324,23.7937156 C34.3150486,23.7937156 33.1746715,24.2299293 32.2753785,24.9545954 C31.9812701,25.1914375 31.7133204,25.4593873 31.4764783,25.7534957 C30.7518121,26.6527887 30.3155984,27.7931658 30.3155984,29.0353496 C30.3155984,30.2061273 29.366109,31.1563236 28.1946244,31.1563236 C27.0231397,31.1563236 26.0736503,30.2068342 26.0736503,29.0353496 C26.0736503,23.8057345 30.3283243,19.5517675 35.5572324,19.5517675 Z" id="Combined-Shape" fill="#FFFFFF" fill-rule="nonzero"></path>
                <rect id="Rectangle" opacity="0.528018043" x="0" y="0" width="72" height="72"></rect>
            </g>
        </g>
    </g>
</svg>