<svg xmlns="http://www.w3.org/2000/svg" width="16.5" height="14.113" viewBox="0 0 16.5 14.113">

  <path id="noun_questions_670404" class="interviewQues" fill="#0075CB" d="M17.88,12.291a3.9,3.9,0,0,1-3.331,3.855,3.5,3.5,0,0,0,.1,1.542.312.312,0,0,1-.436.368,5.36,5.36,0,0,1-1.583-1.188V16.7a4.873,4.873,0,0,0-4.864-4.868H7.627A3.9,3.9,0,0,1,11.5,8.39h2.482a3.9,3.9,0,0,1,3.9,3.9Zm-6.2,4.411h0a3.9,3.9,0,0,1-3.9,3.9H7.12a4.708,4.708,0,0,1-2.06,1.866.314.314,0,0,1-.441-.368,3.512,3.512,0,0,0,.09-1.535A3.9,3.9,0,0,1,1.38,16.7h0a3.9,3.9,0,0,1,3.9-3.9H7.773a3.9,3.9,0,0,1,3.906,3.9ZM6.887,18.638a.407.407,0,1,0-.407.407.407.407,0,0,0,.407-.407Zm.981-2.928a1.4,1.4,0,0,0-1.391-1.347H6.468a1.381,1.381,0,0,0-1.242.787.406.406,0,1,0,.731.353.575.575,0,0,1,.509-.327.592.592,0,0,1,.582.56.577.577,0,0,1-.382.563.859.859,0,0,0-.6.806v.324a.406.406,0,1,0,.811,0V17.1c0-.024.041-.037.041-.039a1.383,1.383,0,0,0,.952-1.356Z" transform="translate(-1.38 -8.39)"/>
</svg>
