<svg id="block-24px" xmlns="http://www.w3.org/2000/svg" width="18" height="18" viewBox="0 0 18 18">
  <defs>
    <style>
      .cls-1 {
        fill: none;
      }

      .cls-2 {
        fill: #666;
      }
    </style>
  </defs>
  <path id="Path_805" data-name="Path 805" class="cls-1" d="M0,0H18V18H0Z"/>
  <path id="Path_806" data-name="Path 806" class="cls-2" d="M9.5,2A7.5,7.5,0,1,0,17,9.5,7.5,7.5,0,0,0,9.5,2Zm-6,7.5a6,6,0,0,1,6-6,5.927,5.927,0,0,1,3.675,1.267L4.767,13.175A5.927,5.927,0,0,1,3.5,9.5Zm6,6a5.927,5.927,0,0,1-3.675-1.267l8.408-8.408A5.927,5.927,0,0,1,15.5,9.5,6,6,0,0,1,9.5,15.5Z" transform="translate(-0.5 -0.5)"/>
</svg>
