<?xml version="1.0" encoding="UTF-8"?>
<svg width="25px" height="22px" viewBox="0 0 25 22" version="1.1" xmlns="http://www.w3.org/2000/svg" xmlns:xlink="http://www.w3.org/1999/xlink">
    <!-- Generator: Sketch 52.6 (67491) - http://www.bohemiancoding.com/sketch -->
    <title>noun_Alert_1864086</title>
    <desc>Created with Sketch.</desc>
    <g id="Page-1" stroke="none" stroke-width="1" fill="none" fill-rule="evenodd">
        <g id="03detailedScore---Facial-Expression-Copy" transform="translate(-445.000000, -631.000000)" fill="#0075CB">
            <g id="noun_Alert_1864086" transform="translate(445.000000, 631.000000)">
                <path d="M14.8265585,1.39273793 C14.3613969,0.587060026 13.5017469,0.0907425758 12.5714286,0.0907425758 C11.6411102,0.0907425758 10.7814602,0.587060026 10.3162986,1.39273793 L0.726173682,18.0034014 C0.261022799,18.8090664 0.261030032,19.8016883 0.726192655,20.6073464 C1.19135528,21.4130046 2.05100187,21.9092968 2.98130364,21.9092696 L22.1615535,21.9092696 C23.0918553,21.9092968 23.9515019,21.4130046 24.4166645,20.6073464 C24.8818271,19.8016883 24.8818343,18.8090664 24.4166835,18.0034014 L14.8265585,1.39273793 Z M23.0082858,19.7941508 C22.8363305,20.099345 22.5118372,20.2866975 22.1615535,20.2830281 L2.98130364,20.2830281 C2.63201478,20.2830321 2.30925566,20.0966949 2.13460347,19.7942064 C1.95995128,19.4917178 1.95993905,19.1190317 2.13457137,18.8165317 L11.7246963,2.20585463 C11.8993429,1.90333756 12.2221178,1.71697717 12.5714286,1.71697717 C12.9207393,1.71697717 13.2435142,1.90333756 13.4181608,2.20585463 L23.0082858,18.8165263 C23.1865677,19.1180152 23.1865677,19.4926564 23.0082858,19.7941454 L23.0082858,19.7941508 Z" id="Shape" fill-rule="nonzero"></path>
                <path d="M12.5714286,14.7636452 C13.0204912,14.7636227 13.3845228,14.3995911 13.3845453,13.9505285 L13.3845453,6.77910884 C13.3845453,6.33003688 13.0205005,5.96599214 12.5714286,5.96599214 C12.1223566,5.96599214 11.7583119,6.33003688 11.7583119,6.77910884 L11.7583119,13.9505285 C11.7583343,14.3995911 12.1223659,14.7636227 12.5714286,14.7636452 Z" id="Path"></path>
                <path d="M12.5714286,16.3989296 C12.0961486,16.3989341 11.7108617,16.7842283 11.7108662,17.2595082 C11.7108707,17.7347882 12.0961649,18.1200751 12.5714448,18.1200706 C13.0467248,18.1200661 13.4320117,17.7347719 13.4320072,17.259492 C13.4320086,17.0312534 13.3413407,16.8123627 13.1799501,16.6509752 C13.0185596,16.4895877 12.7996672,16.3989239 12.5714286,16.3989296 Z" id="Path"></path>
            </g>
        </g>
    </g>
</svg>