<?xml version="1.0" encoding="UTF-8"?>
<svg width="28px" height="30px" viewBox="0 0 28 30" version="1.1" xmlns="http://www.w3.org/2000/svg" xmlns:xlink="http://www.w3.org/1999/xlink">
    <!-- Generator: Sketch 54.1 (76490) - https://sketchapp.com -->
    <title>appearance-face_1805344</title>
    <desc>Created with Sketch.</desc>
    <g id="Page-1" stroke="none" stroke-width="1" fill="none" fill-rule="evenodd">
        <g id="appearance-face_1805344" fill="#0075CB" fill-rule="nonzero">
            <path d="M26.6765625,11.7771169 C26.5200605,11.6206149 26.3322581,11.5267137 26.1444556,11.4328125 C25.4558468,5.01622983 20.3851814,0.102066532 14.0625,0.102066532 C7.77111895,0.102066532 2.66915323,5.01622983 1.98054436,11.4015121 C1.82404233,11.4954133 1.63623992,11.5893145 1.51103831,11.7145161 C0.75982863,12.4344254 0.415524194,13.6864415 0.415524194,15.7835686 C0.415524194,18.6319052 1.82404233,19.7900201 2.66915323,20.2595262 C3.95246976,25.830998 8.64753024,29.8374495 14.1251008,29.8374495 C19.5087701,29.8374495 24.2351311,25.830998 25.5184476,20.2595262 C26.3635585,19.8213206 27.7720767,18.6632056 27.7720767,15.7835686 C27.7407762,13.7177419 27.3964718,12.4344254 26.6765625,11.7771169 Z M24.3916331,18.5693044 C23.9847279,18.6632056 23.7030242,18.9762096 23.609123,19.3518145 C22.7014113,24.2659779 18.6636593,27.8342238 13.9998992,27.8342238 C9.39873992,27.8342238 5.3609879,24.2659779 4.4532762,19.3518145 C4.3906754,18.9762096 4.07767137,18.6632056 3.70206654,18.5693044 C3.57686492,18.538004 2.3248488,18.1310988 2.3248488,15.7835686 C2.3248488,14.5315524 2.48135081,13.9055444 2.60655242,13.5299395 C2.76305444,13.5299395 2.91955645,13.5299395 2.91955645,13.5299395 C2.91955645,13.8742439 3.13865927,15.1575605 3.45166331,15.1575605 L4.86018145,15.1575605 C5.14188508,15.1575605 5.39228831,14.8758569 5.39228831,14.5941532 C5.39228831,14.5941532 5.67399194,10.9633064 5.98699596,8.6157762 C6.04959677,8.05236895 6.51910282,7.73936492 6.98860887,7.86456654 C8.77273186,8.27147177 11.2767641,8.521875 14.0625,8.521875 C16.8482358,8.521875 19.3522681,8.24017137 21.1363912,7.86456654 C21.6058971,7.73936492 22.0754032,8.08366936 22.138004,8.6157762 C22.4197076,10.9633064 22.7327117,14.5941532 22.7327117,14.5941532 C22.7327117,14.9071573 22.9518145,15.1575605 23.2648186,15.1575605 L24.6733367,15.1575605 C24.9550404,15.1575605 25.2054436,13.8742439 25.2054436,13.5299395 C25.2054436,13.5299395 25.3619456,13.5299395 25.5184476,13.5299395 C25.6436492,13.8742439 25.8001512,14.500252 25.8001512,15.7835686 C25.7375505,18.1310988 24.5168346,18.538004 24.3916331,18.5693044 Z" id="Shape"></path>
        </g>
    </g>
</svg>