<?xml version="1.0" encoding="UTF-8"?>
<svg width="251px" height="249px" viewBox="0 0 251 249" version="1.1" xmlns="http://www.w3.org/2000/svg" xmlns:xlink="http://www.w3.org/1999/xlink">
    <!-- Generator: sketchtool 58 (101010) - https://sketch.com -->
    <title>49AF9BCA-66D6-4993-85F8-F9BC740F760F</title>
    <desc>Created with sketchtool.</desc>
    <defs>
        <polygon id="path-1" points="0.795816733 0.986111111 4.80976096 0.986111111 4.80976096 14.9791667 0.795816733 14.9791667"></polygon>
        <polygon id="path-3" points="0.780876494 0.0992063492 8.80776892 0.0992063492 8.80776892 6.09623016 0.780876494 6.09623016"></polygon>
        <path d="M0.124501992,2.5625 C0.124501992,3.88690476 1.20119522,4.9593254 2.52988048,4.9593254 L2.52988048,4.9593254 C3.85956175,4.9593254 4.937251,3.88690476 4.937251,2.5625 L4.937251,2.5625 C4.937251,1.2390873 3.85956175,0.165674603 2.52988048,0.165674603 L2.52988048,0.165674603 C1.20119522,0.165674603 0.124501992,1.2390873 0.124501992,2.5625 L0.124501992,2.5625 Z" id="path-5"></path>
        <path d="M0.732071713,1.57043651 C0.732071713,2.01190476 1.09163347,2.37003968 1.53386454,2.37003968 L1.53386454,2.37003968 C1.97709163,2.37003968 2.33565737,2.01190476 2.33565737,1.57043651 L2.33565737,1.57043651 C2.33565737,1.12996032 1.97709163,0.771825397 1.53386454,0.771825397 L1.53386454,0.771825397 C1.09163347,0.771825397 0.732071713,1.12996032 0.732071713,1.57043651 L0.732071713,1.57043651 Z" id="path-7"></path>
        <path d="M0.873505976,2.5625 C0.873505976,3.88690476 1.95119522,4.9593254 3.27888446,4.9593254 L3.27888446,4.9593254 C4.60756972,4.9593254 5.68625498,3.88690476 5.68625498,2.5625 L5.68625498,2.5625 C5.68625498,1.2390873 4.60756972,0.165674603 3.27888446,0.165674603 L3.27888446,0.165674603 C1.95119522,0.165674603 0.873505976,1.2390873 0.873505976,2.5625 L0.873505976,2.5625 Z" id="path-9"></path>
        <path d="M0.485059761,1.57043651 C0.485059761,2.01190476 0.844621514,2.37003968 1.28685259,2.37003968 L1.28685259,2.37003968 C1.7310757,2.37003968 2.08964143,2.01190476 2.08964143,1.57043651 L2.08964143,1.57043651 C2.08964143,1.12996032 1.7310757,0.771825397 1.28685259,0.771825397 L1.28685259,0.771825397 C0.844621514,0.771825397 0.485059761,1.12996032 0.485059761,1.57043651 L0.485059761,1.57043651 Z" id="path-11"></path>
        <path d="M2.60458167,2.26388889 C1.4940239,2.38789683 0.653386454,3.32440476 0.653386454,4.4375 L0.653386454,4.4375 C0.653386454,5.40277778 1.43924303,6.18551587 2.40936255,6.18551587 L2.40936255,6.18551587 C2.47310757,6.18551587 2.53884462,6.18253968 2.60458167,6.17460317 L2.60458167,6.17460317 L21.7081673,4.04662698 L40.8486056,6.17460317 C41.812749,6.2827381 42.6812749,5.59126984 42.7888446,4.63194444 L42.7888446,4.63194444 C42.7958167,4.56646825 42.7998008,4.50198413 42.7998008,4.4375 L42.7998008,4.4375 C42.7998008,3.32440476 41.9601594,2.38888889 40.8486056,2.26587302 L40.8486056,2.26587302 L21.6593625,0.136904762 L2.60458167,2.26388889 Z" id="path-13"></path>
        <path d="M0.69123506,0.964285714 C0.69123506,2.62103175 2.03884462,3.96329365 3.70119522,3.96329365 L3.70119522,3.96329365 L29.7918327,3.96329365 C31.4551793,3.96329365 32.8037849,2.62103175 32.8037849,0.964285714 L32.8037849,0.964285714 L0.69123506,0.964285714 Z" id="path-15"></path>
        <path d="M0.615537849,29.6448413 C0.615537849,37.3730159 6.90537849,43.6378968 14.6643426,43.6378968 L14.6643426,43.6378968 L19.6822709,43.6378968 L0.615537849,0.658730159" id="path-17"></path>
        <path d="M3.67928287,0.919642857 C2.01593625,0.919642857 0.668326693,2.26190476 0.668326693,3.91765873 L0.668326693,3.91765873 C0.668326693,5.57440476 2.01593625,6.91666667 3.67928287,6.91666667 L3.67928287,6.91666667 L37.7978088,6.91666667 C39.4591633,6.91666667 40.8077689,5.57440476 40.8077689,3.91765873 L40.8077689,3.91765873 C40.8077689,2.26190476 39.4591633,0.919642857 37.7978088,0.919642857 L37.7978088,0.919642857 L3.67928287,0.919642857 Z" id="path-19"></path>
        <path d="M0.62250996,3.24503968 L0.62250996,29.2321429 C0.62250996,30.8878968 1.97111554,32.2311508 3.63346614,32.2311508 L3.63346614,32.2311508 C5.29681275,32.2311508 6.64442231,30.8878968 6.64442231,29.2321429 L6.64442231,29.2321429 L6.64442231,3.24503968 C6.64442231,1.58928571 5.29681275,0.24702381 3.63346614,0.24702381 L3.63346614,0.24702381 C1.97111554,0.24702381 0.62250996,1.58928571 0.62250996,3.24503968 L0.62250996,3.24503968 Z" id="path-21"></path>
        <path d="M0.103585657,6.41765873 C0.569721116,10.7490079 4.10159363,14.1150794 8.46513944,14.389881 L8.46513944,14.389881 L42.4432271,16.5198413 L43.0498008,19.1815476 C44.2898406,24.6160714 45.9820717,29.9394841 48.1105578,35.093254 L48.1105578,35.093254 L53.4163347,47.9345238 L61.2589641,47.9345238 L51.7231076,11.1220238 C51.1424303,8.87896825 49.3157371,7.16964286 47.0308765,6.73214286 L47.0308765,6.73214286 L16.8685259,0.949404762 L0.103585657,6.41765873 Z" id="path-23"></path>
        <path d="M0.497011952,0.136904762 L0.497011952,6.35119048 L3.93824701,6.35119048 L3.93824701,3.40376984 C4.57768924,5.05753968 5.75298805,6.03968254 7.46414343,6.35119048 L7.46414343,6.35119048 C9.1752988,6.66071429 12.1434263,6.66071429 16.3665339,6.35119048 L16.3665339,6.35119048 C17.1045817,4.83829365 15.8555777,4.07043651 12.6165339,4.04761905 L12.6165339,4.04761905 C9.37749004,4.02380952 8.01693227,2.7202381 8.53386454,0.136904762 L8.53386454,0.136904762 L0.497011952,0.136904762 Z" id="path-25"></path>
        <path d="M0.0597609562,6.44047619 L2.40836653,10.6755952 C4.54880478,14.5327381 8.63944223,16.9107143 13.063745,16.8680556 L13.063745,16.8680556 L47.4163347,16.5426587 L48.0229084,19.203373 C49.2619522,24.6378968 50.9541833,29.9613095 53.0826693,35.1150794 L53.0826693,35.1150794 L58.3884462,47.9563492 L66.2310757,47.9563492 L56.6952191,11.1458333 C56.1145418,8.90178571 54.2878486,7.19246032 52.0049801,6.75396825 L52.0049801,6.75396825 L21.8426295,0.971230159 L0.0597609562,6.44047619 Z" id="path-27"></path>
        <path d="M0.490039841,0.158730159 L0.490039841,6.37301587 L3.9312749,6.37301587 L3.9312749,3.42559524 C4.57071713,5.08035714 5.74501992,6.06349206 7.45717131,6.37301587 L7.45717131,6.37301587 C9.16832669,6.68253968 12.1354582,6.68253968 16.3595618,6.37301587 L16.3595618,6.37301587 C17.0976096,4.86011905 15.8476096,4.09325397 12.6095618,4.07043651 L12.6095618,4.07043651 C9.37051793,4.04662698 8.00996016,2.74206349 8.52788845,0.158730159 L8.52788845,0.158730159 L0.490039841,0.158730159 Z" id="path-29"></path>
        <path d="M6.48007968,0.428571429 C6.86653386,0.337301587 7.25498008,0.293650794 7.63844622,0.293650794 C9.65338645,0.293650794 11.5268924,1.50892857 12.2998008,3.44642857 L12.8227092,4.75892857 C14.2320717,8.2906746 15.12749,12.0069444 15.4820717,15.7906746 L16.5288845,27 C18.5956175,27.8125 20.4860558,28.7162698 22.1972112,29.7113095 C23.9093625,30.7063492 25.8286853,32.0168651 27.9591633,33.6428571 L39.0946215,40.1121032 L37.1573705,44.2371032 L10.247012,33.6428571 L1.21215139,7.63888889 C1.15438247,7.47123016 1.10458167,7.30257937 1.06374502,7.12896825 C0.388446215,4.29365079 2.15039841,1.45039683 4.99701195,0.778769841 L6.48007968,0.428571429 Z" id="path-31"></path>
        <linearGradient x1="8.36858629%" y1="50.6540027%" x2="8.36858629%" y2="164.431755%" id="linearGradient-33">
            <stop stop-color="#F4F8FE" offset="0%"></stop>
            <stop stop-color="#8BCFF6" offset="100%"></stop>
        </linearGradient>
        <path d="M6.48007968,0.428571429 L4.99701195,0.778769841 C2.15039841,1.45039683 0.388446215,4.29365079 1.06374502,7.12896825 L1.06374502,7.12896825 C1.10458167,7.30257937 1.15438247,7.47123016 1.21215139,7.63888889 L1.21215139,7.63888889 L10.247012,33.6428571 L37.1573705,44.2371032 L39.0946215,40.1121032 L27.9591633,33.6428571 C25.8286853,32.0168651 23.9093625,30.7063492 22.1972112,29.7113095 L22.1972112,29.7113095 C20.4860558,28.7162698 18.5956175,27.8125 16.5288845,27 L16.5288845,27 L15.4820717,15.7906746 C15.12749,12.0069444 14.2320717,8.2906746 12.8227092,4.75892857 L12.8227092,4.75892857 L12.2998008,3.44642857 C11.5268924,1.50892857 9.65338645,0.293650794 7.63844622,0.293650794 L7.63844622,0.293650794 C7.25498008,0.293650794 6.86653386,0.337301587 6.48007968,0.428571429" id="path-34"></path>
        <linearGradient x1="130.911853%" y1="38.1218994%" x2="-126.816978%" y2="240.370804%" id="linearGradient-36">
            <stop stop-color="#F4F8FE" offset="0%"></stop>
            <stop stop-color="#8BCFF6" offset="100%"></stop>
        </linearGradient>
        <path d="M4.62549801,2.18452381 L7.16135458,0.495039683 L17.0816733,1.27777778 L19.7848606,6.99702381 C21.1334661,9.84821429 21.9262948,12.9275794 22.125498,16.0714286 L23.748008,41.7569444 C21.3814741,43.156746 18.7918327,44.2996032 15.9780876,45.1845238 C13.1653386,46.0704365 8.19920319,46.7787698 1.08366534,47.3105159 L0.615537849,15.719246 L0.615537849,9.66071429 C0.615537849,6.65873016 2.12051793,3.85515873 4.62549801,2.18452381 Z" id="path-37"></path>
        <linearGradient x1="7.28509997%" y1="50.6721912%" x2="7.28509997%" y2="164.449944%" id="linearGradient-39">
            <stop stop-color="#F4F8FE" offset="0%"></stop>
            <stop stop-color="#8BCFF6" offset="100%"></stop>
        </linearGradient>
        <path d="M4.62549801,2.18452381 C2.12051793,3.85515873 0.615537849,6.65873016 0.615537849,9.66071429 L0.615537849,9.66071429 L0.615537849,15.719246 L1.08366534,47.3105159 C8.19920319,46.7787698 13.1653386,46.0704365 15.9780876,45.1845238 L15.9780876,45.1845238 C18.7918327,44.2996032 21.3814741,43.156746 23.748008,41.7569444 L23.748008,41.7569444 L22.125498,16.0714286 C21.9262948,12.9275794 21.1334661,9.84821429 19.7848606,6.99702381 L19.7848606,6.99702381 L17.0816733,1.27777778 L7.16135458,0.495039683 L4.62549801,2.18452381 Z" id="path-40"></path>
        <linearGradient x1="59.1746624%" y1="63.663174%" x2="-60.4178693%" y2="160.934219%" id="linearGradient-42">
            <stop stop-color="#F4F8FE" offset="0%"></stop>
            <stop stop-color="#8BCFF6" offset="100%"></stop>
        </linearGradient>
        <path d="M14.6643426,3.50694444 C12.5786853,3.51984127 10.0059761,3.38988095 6.94521912,3.11706349 L6.94521912,3.11706349 C5.68625498,2.69642857 4.6185259,2.82738095 3.73904382,3.50694444 L3.73904382,3.50694444 C2.85856574,4.18650794 2.73705179,4.95634921 3.37549801,5.81547619 L3.37549801,5.81547619 C1.68326693,6.14186508 0.874501992,7.45436508 0.949203187,9.75396825 L0.949203187,9.75396825 C1.02290837,12.0515873 1.61454183,14.4236111 2.72310757,16.8660714 L2.72310757,16.8660714 C3.15836653,18.0039683 3.37549801,18.8105159 3.37549801,19.2886905 L3.37549801,19.2886905 L3.37549801,20.639881 C4.6563745,17.6200397 5.53087649,15.8551587 5.99900398,15.3452381 L5.99900398,15.3452381 C6.46513944,14.8353175 7.11752988,14.3234127 7.95318725,13.8125 L7.95318725,13.8125 C7.42131474,13.7757937 7.03984064,13.6587302 6.81175299,13.4563492 L6.81175299,13.4563492 C6.58366534,13.2549603 6.48207171,12.9910714 6.50796813,12.6676587 L6.50796813,12.6676587 C6.39940239,11.6894841 6.98904382,11.2896825 8.27689243,11.468254 L8.27689243,11.468254 C9.56474104,11.6458333 10.2639442,12.2232143 10.373506,13.202381 L10.373506,13.202381 L10.373506,15.3452381 L12.0338645,15.3452381 C12.3565737,12.2688492 12.3565737,10.3531746 12.0338645,9.5952381 L12.0338645,9.5952381 C11.7111554,8.83829365 10.7599602,7.84821429 9.1812749,6.62301587 L9.1812749,6.62301587 C12.8247012,6.61507937 15.1513944,6.41964286 16.1573705,6.03968254 L16.1573705,6.03968254 C17.6683267,5.46825397 18.9302789,4.27480159 19.1832669,3.11706349 L19.1832669,3.11706349 C19.437251,1.96130952 19.2878486,1.60615079 18.9302789,1.20634921 L18.9302789,1.20634921 C18.6922311,0.938492063 18.2221116,0.594246032 17.5199203,0.170634921 L17.5199203,0.170634921 C17.7031873,2.38194444 16.750996,3.49503968 14.6643426,3.50694444 L14.6643426,3.50694444 Z" id="path-43"></path>
        <path d="M6.47310757,0.450396825 C6.86055777,0.359126984 7.24800797,0.31547619 7.6314741,0.31547619 C9.64741036,0.31547619 11.5199203,1.53174603 12.2928287,3.46825397 L12.8167331,4.78174603 C14.2250996,8.31349206 15.1205179,12.0287698 15.4741036,15.8125 L16.5229084,27.0228175 C18.5886454,27.8353175 20.4780876,28.7380952 22.190239,29.734127 C23.9013944,30.7281746 25.8217131,32.0386905 27.9511952,33.6656746 L39.0866534,40.1339286 L37.1503984,44.2589286 L10.2390438,33.6656746 L1.20517928,7.66170635 C1.14641434,7.49404762 1.09760956,7.32440476 1.05577689,7.15178571 C0.381474104,4.31646825 2.14243028,1.47222222 4.98904382,0.800595238 L6.47310757,0.450396825 Z" id="path-45"></path>
        <linearGradient x1="8.3122801%" y1="50.9240019%" x2="8.3122801%" y2="164.701754%" id="linearGradient-47">
            <stop stop-color="#F4F8FE" offset="0%"></stop>
            <stop stop-color="#8BCFF6" offset="100%"></stop>
        </linearGradient>
        <path d="M6.47310757,0.450396825 L4.98904382,0.800595238 C2.14243028,1.47222222 0.381474104,4.31646825 1.05577689,7.15178571 L1.05577689,7.15178571 C1.09760956,7.32440476 1.14641434,7.49404762 1.20517928,7.66170635 L1.20517928,7.66170635 L10.2390438,33.6656746 L37.1503984,44.2589286 L39.0866534,40.1339286 L27.9511952,33.6656746 C25.8217131,32.0386905 23.9013944,30.7281746 22.190239,29.734127 L22.190239,29.734127 C20.4780876,28.7380952 18.5886454,27.8353175 16.5229084,27.0228175 L16.5229084,27.0228175 L15.4741036,15.8125 C15.1205179,12.0287698 14.2250996,8.31349206 12.8167331,4.78174603 L12.8167331,4.78174603 L12.2928287,3.46825397 C11.5199203,1.53174603 9.64741036,0.31547619 7.6314741,0.31547619 L7.6314741,0.31547619 C7.24800797,0.31547619 6.86055777,0.359126984 6.47310757,0.450396825" id="path-48"></path>
        <linearGradient x1="74.573944%" y1="149.37007%" x2="-113.692267%" y2="-331.40689%" id="linearGradient-50">
            <stop stop-color="#F4F8FE" offset="0%"></stop>
            <stop stop-color="#8BCFF6" offset="100%"></stop>
        </linearGradient>
        <path d="M5.26394422,25.9305556 L6.0876494,28.4494048 L5.72410359,16.9305556 C5.59960159,12.9960317 4.91932271,9.09722222 3.70517928,5.35119048 L3.70517928,5.35119048 L2.23007968,0.800595238 L0.825697211,0.268849206 L5.26394422,25.9305556 Z" id="path-51"></path>
        <path d="M1.71613546,4.15079365 L3.29681275,3.94642857 L3.23605578,2.99702381 C3.18027888,2.12896825 2.5687251,1.39781746 1.72211155,1.18650794 L1.72211155,1.18650794 L0.516932271,0.883928571 L1.71613546,4.15079365 Z" id="path-53"></path>
        <path d="M0.621513944,2.02281746 C0.491035857,2.39781746 0.425298805,2.84920635 0.423306773,3.37896825 L0.423306773,3.37896825 L11.751992,6.13492063 L11.751992,3.09027778 L1.45119522,0.48015873 C1.02888446,1.13492063 0.752988048,1.64880952 0.621513944,2.02281746 L0.621513944,2.02281746 Z" id="path-55"></path>
        <polygon id="path-57" points="0.327689243 0.510912698 3.55478088 0.510912698 3.55478088 11.7628968 0.327689243 11.7628968"></polygon>
        <polygon id="path-59" points="0.706175299 0.850198413 7.16135458 0.850198413 7.16135458 5.67361111 0.706175299 5.67361111"></polygon>
        <path d="M0.455179283,2.0734127 C0.455179283,3.13888889 1.32171315,4.00198413 2.38944223,4.00198413 L2.38944223,4.00198413 C3.45816733,4.00198413 4.3247012,3.13888889 4.3247012,2.0734127 L4.3247012,2.0734127 C4.3247012,1.00992063 3.45816733,0.146825397 2.38944223,0.146825397 L2.38944223,0.146825397 C1.32171315,0.146825397 0.455179283,1.00992063 0.455179283,2.0734127 L0.455179283,2.0734127 Z" id="path-61"></path>
        <path d="M0.749003984,1.08134921 C0.749003984,1.4375 1.03784861,1.72519841 1.39342629,1.72519841 L1.39342629,1.72519841 C1.75,1.72519841 2.03884462,1.4375 2.03884462,1.08134921 L2.03884462,1.08134921 C2.03884462,0.72718254 1.75,0.439484127 1.39342629,0.439484127 L1.39342629,0.439484127 C1.03784861,0.439484127 0.749003984,0.72718254 0.749003984,1.08134921 L0.749003984,1.08134921 Z" id="path-63"></path>
        <path d="M0.720119522,2.0734127 C0.720119522,3.13888889 1.58665339,4.00198413 2.65438247,4.00198413 L2.65438247,4.00198413 C3.72310757,4.00198413 4.58964143,3.13888889 4.58964143,2.0734127 L4.58964143,2.0734127 C4.58964143,1.00992063 3.72310757,0.146825397 2.65438247,0.146825397 L2.65438247,0.146825397 C1.58665339,0.146825397 0.720119522,1.00992063 0.720119522,2.0734127 L0.720119522,2.0734127 Z" id="path-65"></path>
        <path d="M0.0179282869,1.08134921 C0.0179282869,1.4375 0.305776892,1.72519841 0.662350598,1.72519841 L0.662350598,1.72519841 C1.0189243,1.72519841 1.30776892,1.4375 1.30776892,1.08134921 L1.30776892,1.08134921 C1.30776892,0.72718254 1.0189243,0.439484127 0.662350598,0.439484127 L0.662350598,0.439484127 C0.305776892,0.439484127 0.0179282869,0.72718254 0.0179282869,1.08134921 L0.0179282869,1.08134921 Z" id="path-67"></path>
        <path d="M2.50099602,2.61210317 C1.60756972,2.71130952 0.933266932,3.46428571 0.933266932,4.36011905 L0.933266932,4.36011905 C0.933266932,5.1359127 1.56573705,5.76488095 2.34462151,5.76488095 L2.34462151,5.76488095 C2.39641434,5.76488095 2.4501992,5.76289683 2.50099602,5.75595238 L2.50099602,5.75595238 L17.8625498,4.04464286 L33.2539841,5.75595238 C34.0298805,5.84325397 34.7280876,5.28769841 34.814741,4.51488095 L34.814741,4.51488095 C34.8197211,4.46329365 34.8227092,4.41170635 34.8227092,4.36011905 L34.8227092,4.36011905 C34.8227092,3.46428571 34.1474104,2.71230159 33.2539841,2.61309524 L33.2539841,2.61309524 L17.8247012,0.900793651 L2.50099602,2.61210317 Z" id="path-69"></path>
        <path d="M0.984063745,0.0843253968 C0.984063745,1.4156746 2.06772908,2.49503968 3.40438247,2.49503968 L3.40438247,2.49503968 L24.3834661,2.49503968 C25.7211155,2.49503968 26.8037849,1.4156746 26.8037849,0.0843253968 L26.8037849,0.0843253968 L0.984063745,0.0843253968 Z" id="path-71"></path>
        <path d="M0.88247012,24.171627 C0.88247012,30.3849206 5.94123506,35.422619 12.1792829,35.422619 L12.1792829,35.422619 L16.2141434,35.422619 L0.88247012,0.863095238" id="path-73"></path>
        <path d="M2.97609562,0.222222222 C1.63844622,0.222222222 0.554780876,1.30257937 0.554780876,2.63392857 L0.554780876,2.63392857 C0.554780876,3.96527778 1.63844622,5.04464286 2.97609562,5.04464286 L2.97609562,5.04464286 L30.4103586,5.04464286 C31.748008,5.04464286 32.8306773,3.96527778 32.8306773,2.63392857 L32.8306773,2.63392857 C32.8306773,1.30257937 31.748008,0.222222222 30.4103586,0.222222222 L30.4103586,0.222222222 L2.97609562,0.222222222 Z" id="path-75"></path>
        <path d="M0.694223108,3.11607143 L0.694223108,24.0128968 C0.694223108,25.344246 1.77788845,26.4246032 3.11454183,26.4246032 L3.11454183,26.4246032 C4.45119522,26.4246032 5.53486056,25.344246 5.53486056,24.0128968 L5.53486056,24.0128968 L5.53486056,3.11607143 C5.53486056,1.78472222 4.45119522,0.705357143 3.11454183,0.705357143 L3.11454183,0.705357143 C1.77788845,0.705357143 0.694223108,1.78472222 0.694223108,3.11607143 L0.694223108,3.11607143 Z" id="path-77"></path>
        <path d="M0.727091633,5.36011905 C1.10159363,8.84325397 3.94123506,11.5505952 7.45119522,11.7698413 L7.45119522,11.7698413 L34.7729084,13.4831349 L35.2599602,15.6240079 C36.2549801,19.9940476 37.6165339,24.2738095 39.3296813,28.4176587 L39.3296813,28.4176587 L43.5956175,38.7440476 L49.9013944,38.7440476 L42.2340637,9.14384921 C41.7669323,7.33928571 40.2988048,5.96428571 38.4611554,5.6140873 L38.4611554,5.6140873 L14.2071713,0.962301587 L0.727091633,5.36011905 Z" id="path-79"></path>
        <path d="M0.661354582,0.900793651 L0.661354582,5.89781746 L3.42928287,5.89781746 L3.42928287,3.52777778 C3.94223108,4.85912698 4.88844622,5.64781746 6.26294821,5.89781746 L6.26294821,5.89781746 C7.63944223,6.14781746 10.0258964,6.14781746 13.4223108,5.89781746 L13.4223108,5.89781746 C14.0159363,4.68253968 13.0109562,4.06448413 10.4063745,4.04563492 L10.4063745,4.04563492 C7.80378486,4.02777778 6.70916335,2.9781746 7.12450199,0.900793651 L7.12450199,0.900793651 L0.661354582,0.900793651 Z" id="path-81"></path>
        <path d="M0.866533865,4.79563492 L2.7559761,8.20138889 C4.47609562,11.3035714 7.76494024,13.2142857 11.3217131,13.1805556 L11.3217131,13.1805556 L38.9452191,12.9176587 L39.4332669,15.0575397 C40.4282869,19.4285714 41.7908367,23.7083333 43.502988,27.8521825 L43.502988,27.8521825 L47.7689243,38.1775794 L54.0737052,38.1775794 L46.4083665,8.57837302 C45.940239,6.77380952 44.4711155,5.39980159 42.6344622,5.04761905 L42.6344622,5.04761905 L18.3814741,0.39781746 L0.866533865,4.79563492 Z" id="path-83"></path>
        <path d="M0.851593625,0.336309524 L0.851593625,5.33234127 L3.6185259,5.33234127 L3.6185259,2.96230159 C4.13247012,4.29265873 5.07669323,5.08333333 6.45318725,5.33234127 L6.45318725,5.33234127 C7.82968127,5.58134921 10.2161355,5.58134921 13.6115538,5.33234127 L13.6115538,5.33234127 C14.2061753,4.11706349 13.2011952,3.49900794 10.5956175,3.48115079 L10.5956175,3.48115079 C7.99203187,3.46230159 6.89741036,2.41269841 7.31374502,0.336309524 L7.31374502,0.336309524 L0.851593625,0.336309524 Z" id="path-85"></path>
        <path d="M11.625498,2.74801587 C9.94920319,2.69940476 7.88545817,2.52380952 5.43326693,2.2202381 L5.43326693,2.2202381 C4.43426295,1.84623016 3.57071713,1.92063492 2.84561753,2.44345238 L2.84561753,2.44345238 C2.11952191,2.96527778 2.00099602,3.58035714 2.49003984,4.28869048 L2.49003984,4.28869048 C1.12051793,4.50396825 0.434262948,5.53670635 0.429237868,7.3859127 L0.429237868,7.3859127 C0.424302789,9.23611111 0.832669323,11.156746 1.6563745,13.1498016 L1.6563745,13.1498016 C1.97310757,14.077381 2.12549801,14.7311508 2.1125498,15.1160714 L2.1125498,15.1160714 C2.09960159,15.5009921 2.0876494,15.8630952 2.07370518,16.2013889 L2.07370518,16.2013889 C3.18924303,13.8105159 3.94123506,12.4166667 4.33067729,12.0188492 L4.33067729,12.0188492 C4.72111554,11.6230159 5.25796813,11.2301587 5.94322709,10.8422619 L5.94322709,10.8422619 C5.51792829,10.7996032 5.21513944,10.6934524 5.03685259,10.5248016 L5.03685259,10.5248016 C4.85856574,10.3551587 4.78585657,10.140873 4.81374502,9.88194444 L4.81374502,9.88194444 C4.75498008,9.09325397 5.24003984,8.78769841 6.26992032,8.9672619 L6.26992032,8.9672619 C7.30079681,9.14583333 7.84561753,9.62996032 7.9063745,10.4186508 L7.9063745,10.4186508 L7.84561753,12.140873 L9.18027888,12.1865079 C9.52689243,9.72420635 9.58067729,8.18452381 9.34163347,7.56746032 L9.34163347,7.56746032 C9.10358566,6.95039683 8.36653386,6.12698413 7.13247012,5.09920635 L7.13247012,5.09920635 C10.060757,5.19444444 11.935259,5.10218254 12.7549801,4.8234127 L12.7549801,4.8234127 C13.9840637,4.40674603 15.0328685,3.48214286 15.2679283,2.55952381 L15.2679283,2.55952381 C15.5049801,1.63690476 15.3934263,1.34821429 15.1185259,1.01587302 L15.1185259,1.01587302 C14.9342629,0.795634921 14.5667331,0.504960317 14.0149402,0.14484127 L14.0149402,0.14484127 C14.0996016,1.92757937 13.3037849,2.79464286 11.625498,2.74801587 L11.625498,2.74801587 Z" id="path-87"></path>
        <path d="M15.9252988,1.31349206 L19.0856574,0.138888889 L26.7031873,2.57936508 L27.3237052,5.51190476 C28.123506,9.29464286 27.810757,13.2271825 26.4233068,16.8373016 L20.0806773,32.031746 C17.9701195,32.6904762 15.0249004,33.9146825 12.6583665,34.0873016 C10.2918327,34.2619048 6.58266932,35.4345238 0.915338645,34.5376984 L9.39840637,10.2857143 L11.8954183,5.00694444 C12.7021912,3.29960317 14.1484064,1.97420635 15.9252988,1.31349206 Z" id="path-89"></path>
        <linearGradient x1="15.393963%" y1="36.7342479%" x2="0.732238029%" y2="82.8663134%" id="linearGradient-91">
            <stop stop-color="#F4F8FE" offset="0%"></stop>
            <stop stop-color="#8BCFF6" offset="100%"></stop>
        </linearGradient>
        <path d="M15.9252988,1.31349206 C14.1484064,1.97420635 12.7021912,3.29960317 11.8954183,5.00694444 L11.8954183,5.00694444 L9.39840637,10.2857143 L0.915338645,34.5376984 C6.58266932,35.4345238 10.2918327,34.2619048 12.6583665,34.0873016 L12.6583665,34.0873016 C15.0249004,33.9146825 17.9701195,32.6904762 20.0806773,32.031746 L20.0806773,32.031746 L26.4233068,16.8373016 C27.810757,13.2271825 28.123506,9.29464286 27.3237052,5.51190476 L27.3237052,5.51190476 L26.7031873,2.57936508 L19.0856574,0.138888889 L15.9252988,1.31349206 Z" id="path-92"></path>
        <linearGradient x1="66.8199706%" y1="72.8087833%" x2="-173.752465%" y2="107.757638%" id="linearGradient-94">
            <stop stop-color="#F4F8FE" offset="0%"></stop>
            <stop stop-color="#8BCFF6" offset="100%"></stop>
        </linearGradient>
        <path d="M0.168326693,20.4206349 L0.532868526,23.7698413 L3.74900398,15.3194444 C5.19920319,11.5109127 5.94521912,7.4702381 5.95119522,3.39583333 L5.95119522,3.39583333 L5.95418327,0.951388889 L4.95517928,0.276785714 L0.168326693,20.4206349 Z" id="path-95"></path>
        <path d="M5.16932271,0.117063492 C5.24203187,0.112103175 5.31374502,0.110119048 5.38545817,0.110119048 C7.03386454,0.110119048 8.42330677,1.38194444 8.53585657,3.04365079 C8.53585657,3.04365079 8.78286853,3.98809524 8.80179283,4.26984127 C8.9252988,6.10218254 8.94422311,8.07142857 8.70219124,10.5694444 C8.21613546,15.6240079 6.62350598,18.6904762 6.62350598,18.6904762 C8.312749,19.2718254 8.55079681,20.0019841 9.96215139,20.7420635 C11.3715139,21.4821429 12.9601594,22.468254 14.7260956,23.7003968 L23.8974104,28.5128968 L22.4860558,31.8928571 L0.499003984,24.3134921 L0.444223108,6.25496032 C-0.242031873,3.74702381 1.22808765,1.1577381 3.73904382,0.449404762 L4.52290837,0.228174603 C4.73306773,0.169642857 4.9501992,0.131944444 5.16932271,0.117063492 Z" id="path-97"></path>
        <linearGradient x1="9.29635736%" y1="44.6884882%" x2="12.2891601%" y2="89.3828268%" id="linearGradient-99">
            <stop stop-color="#F4F8FE" offset="0%"></stop>
            <stop stop-color="#8BCFF6" offset="100%"></stop>
        </linearGradient>
        <path d="M5.16932271,0.117063492 C4.9501992,0.131944444 4.73306773,0.169642857 4.52290837,0.228174603 L4.52290837,0.228174603 L3.73904382,0.449404762 C1.22808765,1.1577381 -0.242031873,3.74702381 0.444223108,6.25496032 L0.444223108,6.25496032 L0.499003984,24.3134921 L22.4860558,31.8928571 L23.8974104,28.5128968 L14.7260956,23.7003968 C12.9601594,22.468254 11.3715139,21.4821429 9.96215139,20.7420635 L9.96215139,20.7420635 C8.55079681,20.0019841 8.312749,19.2718254 6.62350598,18.6904762 L6.62350598,18.6904762 C6.62350598,18.6904762 8.21613546,15.6240079 8.70219124,10.5694444 L8.70219124,10.5694444 C8.94422311,8.07142857 8.9252988,6.10218254 8.80179283,4.26984127 L8.80179283,4.26984127 C8.78286853,3.98809524 8.53585657,3.04365079 8.53585657,3.04365079 L8.53585657,3.04365079 C8.42330677,1.38194444 7.03386454,0.110119048 5.38545817,0.110119048 L5.38545817,0.110119048 C5.31374502,0.110119048 5.24203187,0.112103175 5.16932271,0.117063492" id="path-100"></path>
        <linearGradient x1="80.8307504%" y1="159.174822%" x2="-98.2695557%" y2="-351.491439%" id="linearGradient-102">
            <stop stop-color="#F4F8FE" offset="0%"></stop>
            <stop stop-color="#8BCFF6" offset="100%"></stop>
        </linearGradient>
        <path d="M0.719123506,2.94940476 L1.9940239,3.08134921 L2.12450199,2.32638889 C2.24203187,1.63789683 1.89840637,0.952380952 1.2749004,0.629960317 L1.2749004,0.629960317 L0.388446215,0.172619048 L0.719123506,2.94940476 Z" id="path-103"></path>
        <path d="M0.802788845,1.66071429 C0.630478088,1.92956349 0.494023904,2.2718254 0.395418327,2.68650794 L0.395418327,2.68650794 L8.74701195,6.93154762 L9.312749,4.54960317 L1.73804781,0.607142857 C1.28585657,1.04166667 0.974103586,1.39285714 0.802788845,1.66071429 L0.802788845,1.66071429 Z" id="path-105"></path>
        <polygon id="path-107" points="0.769920319 0.837301587 3.99601594 0.837301587 3.99601594 12.0873016 0.769920319 12.0873016"></polygon>
        <polygon id="path-109" points="0.152390438 0.182539683 6.60557769 0.182539683 6.60557769 5.00396825 0.152390438 5.00396825"></polygon>
        <path d="M0.430278884,0.410714286 C0.430278884,1.74206349 1.51394422,2.82142857 2.85159363,2.82142857 L2.85159363,2.82142857 L23.8266932,2.82142857 C25.1633466,2.82142857 26.248008,1.74206349 26.248008,0.410714286 L26.248008,0.410714286 L0.430278884,0.410714286 Z" id="path-111"></path>
        <path d="M9.66334661,22.1210317 C12.1533865,27.8184524 18.8077689,30.4255952 24.5288845,27.9474206 L24.5288845,27.9474206 L28.2260956,26.344246 L0.328685259,0.753968254" id="path-113"></path>
        <path d="M2.42231076,0.549603175 C1.08565737,0.549603175 0.00199203187,1.62797619 0.00199203187,2.9593254 L0.00199203187,2.9593254 C0.00199203187,4.29166667 1.08565737,5.37103175 2.42231076,5.37103175 L2.42231076,5.37103175 L29.8525896,5.37103175 C31.190239,5.37103175 32.2739044,4.29166667 32.2739044,2.9593254 L32.2739044,2.9593254 C32.2739044,1.62797619 31.190239,0.549603175 29.8525896,0.549603175 L29.8525896,0.549603175 L2.42231076,0.549603175 Z" id="path-115"></path>
        <path d="M2.312749,0.362103175 C1.0876494,0.893849206 0.52689243,2.31448413 1.06075697,3.53472222 L1.06075697,3.53472222 L9.43027888,22.6924603 C9.96513944,23.9126984 11.3904382,24.4722222 12.6155378,23.9414683 L12.6155378,23.9414683 C13.8416335,23.4087302 14.4033865,21.9880952 13.8685259,20.7678571 L13.8685259,20.7678571 L5.49900398,1.61111111 C5.10258964,0.702380952 4.21215139,0.161706349 3.27788845,0.161706349 L3.27788845,0.161706349 C2.95517928,0.161706349 2.62749004,0.226190476 2.312749,0.362103175 L2.312749,0.362103175 Z" id="path-117"></path>
        <path d="M0.22310757,4.69642857 C0.598605578,8.17857143 3.43824701,10.8859127 6.94621514,11.1051587 L6.94621514,11.1051587 L34.2639442,12.8184524 L34.750996,14.9583333 C35.747012,19.327381 37.1075697,23.6071429 38.8197211,27.7509921 L38.8197211,27.7509921 L43.0846614,38.0744048 L49.3904382,38.0744048 L41.7241036,8.47916667 C41.2569721,6.67559524 39.7888446,5.30059524 37.9521912,4.9484127 L37.9521912,4.9484127 L13.7021912,0.299603175 L0.22310757,4.69642857 Z" id="path-119"></path>
        <path d="M0.363545817,5.12301587 L2.25298805,8.5297619 C3.97310757,11.6289683 7.26095618,13.5406746 10.8187251,13.5069444 L10.8187251,13.5069444 L38.436255,13.2450397 L38.9252988,15.3849206 C39.9203187,19.7539683 41.2818725,24.0327381 42.9940239,28.1765873 L42.9940239,28.1765873 L47.2589641,38.5009921 L53.563745,38.5009921 L45.8984064,8.90575397 C45.4302789,7.10218254 43.9611554,5.72718254 42.125498,5.37599206 L42.125498,5.37599206 L17.875498,0.726190476 L0.363545817,5.12301587 Z" id="path-121"></path>
        <path d="M4.42828685,0.510912698 C4.92031873,0.313492063 5.4312749,0.219246032 5.93625498,0.219246032 C7.33366534,0.219246032 8.67729084,0.944444444 9.41932271,2.2093254 L9.99501992,3.19047619 C11.5438247,5.82837302 12.7071713,8.67261905 13.4462151,11.6378968 L15.6394422,20.421627 C17.3794821,20.8204365 18.9920319,21.3115079 20.4721116,21.8948413 C21.9531873,22.4811508 23.6394422,23.2906746 25.5288845,24.327381 L35.1643426,28.1279762 L34.125498,31.640873 L11.4511952,26.4573413 L1.11653386,6.87599206 C1.04880478,6.75 0.990039841,6.62103175 0.93625498,6.4890873 C0.0557768924,4.31746032 1.11055777,1.8452381 3.29183267,0.968253968 L4.42828685,0.510912698 Z" id="path-123"></path>
        <linearGradient x1="13.3339644%" y1="60.9063747%" x2="23.2043846%" y2="106.623137%" id="linearGradient-125">
            <stop stop-color="#F4F8FE" offset="0%"></stop>
            <stop stop-color="#8BCFF6" offset="100%"></stop>
        </linearGradient>
        <path d="M4.42828685,0.510912698 L3.29183267,0.968253968 C1.11055777,1.8452381 0.0557768924,4.31746032 0.93625498,6.4890873 L0.93625498,6.4890873 C0.990039841,6.62103175 1.04880478,6.75 1.11653386,6.87599206 L1.11653386,6.87599206 L11.4511952,26.4573413 L34.125498,31.640873 L35.1643426,28.1279762 L25.5288845,24.327381 C23.6394422,23.2906746 21.9531873,22.4811508 20.4721116,21.8948413 L20.4721116,21.8948413 C18.9920319,21.3115079 17.3794821,20.8204365 15.6394422,20.421627 L15.6394422,20.421627 L13.4462151,11.6378968 C12.7071713,8.67261905 11.5438247,5.82837302 9.99501992,3.19047619 L9.99501992,3.19047619 L9.41932271,2.2093254 C8.67729084,0.944444444 7.33366534,0.219246032 5.93625498,0.219246032 L5.93625498,0.219246032 C5.4312749,0.219246032 4.92031873,0.313492063 4.42828685,0.510912698" id="path-126"></path>
        <linearGradient x1="142.161685%" y1="26.9187073%" x2="-126.643117%" y2="254.305357%" id="linearGradient-128">
            <stop stop-color="#F4F8FE" offset="0%"></stop>
            <stop stop-color="#8BCFF6" offset="100%"></stop>
        </linearGradient>
        <path d="M4.00498008,1.38392857 L11.8884462,0.0277777778 L16.3904382,5.46031746 C17.186255,6.41964286 17.8914343,7.45238095 18.4940239,8.54166667 L31.5896414,31.0535714 C30.0258964,32.6130952 26.7878486,32.75 24.7729084,33.9970238 C22.7579681,35.2440476 18.8217131,36.7390873 13.311753,37.8611111 L1.94621514,14.5386905 L0.737051793,9.82043651 C0.137450199,7.48115079 0.748007968,4.99900794 2.36653386,3.20138889 L4.00498008,1.38392857 Z" id="path-129"></path>
        <linearGradient x1="15.7317835%" y1="63.9454053%" x2="31.393005%" y2="110.133346%" id="linearGradient-131">
            <stop stop-color="#F4F8FE" offset="0%"></stop>
            <stop stop-color="#8BCFF6" offset="100%"></stop>
        </linearGradient>
        <path d="M4.00498008,1.38392857 L2.36653386,3.20138889 C0.748007968,4.99900794 0.137450199,7.48115079 0.737051793,9.82043651 L0.737051793,9.82043651 L1.94621514,14.5386905 L13.311753,37.8611111 C18.8217131,36.7390873 22.7579681,35.2440476 24.7729084,33.9970238 L24.7729084,33.9970238 C26.7878486,32.75 30.0258964,32.6130952 31.5896414,31.0535714 L31.5896414,31.0535714 L18.4940239,8.54166667 C17.8914343,7.45238095 17.186255,6.41964286 16.3904382,5.46031746 L16.3904382,5.46031746 L11.8884462,0.0277777778 L4.00498008,1.38392857 Z" id="path-132"></path>
        <linearGradient x1="68.8818551%" y1="55.0028491%" x2="-152.89168%" y2="223.552619%" id="linearGradient-134">
            <stop stop-color="#F4F8FE" offset="0%"></stop>
            <stop stop-color="#8BCFF6" offset="100%"></stop>
        </linearGradient>
        <path d="M11.8087649,2.6359127 C10.1324701,2.5515873 8.07370518,2.33134921 5.62948207,1.97519841 L5.62948207,1.97519841 C4.63944223,1.57936508 3.77390438,1.63492063 3.03784861,2.14186508 L3.03784861,2.14186508 C2.30079681,2.64781746 2.16832669,3.25992063 2.64143426,3.97916667 L2.64143426,3.97916667 C1.2689243,4.16369048 0.55876494,5.18055556 0.513944223,7.02876984 L0.513944223,7.02876984 C0.46812749,8.87797619 0.834661355,10.8075397 1.61354582,12.8184524 L1.61354582,12.8184524 C1.91135458,13.7519841 2.05079681,14.4087302 2.02788845,14.7936508 L2.02788845,14.7936508 C2.0059761,15.1775794 1.98605578,15.5386905 1.96613546,15.8769841 L1.96613546,15.8769841 C3.13247012,13.5109127 3.91434263,12.1339286 4.31175299,11.7460317 L4.31175299,11.7460317 C4.71115538,11.359127 5.25697211,10.9771825 5.95119522,10.6031746 L5.95119522,10.6031746 C5.52689243,10.5515873 5.2250996,10.4394841 5.05179283,10.2668651 L5.05179283,10.2668651 C4.87749004,10.0952381 4.80776892,9.87896825 4.8436255,9.62003968 L4.8436255,9.62003968 C4.80079681,8.83134921 5.29282869,8.53670635 6.31772908,8.73611111 L6.31772908,8.73611111 C7.34462151,8.93849206 7.87749004,9.43353175 7.92131474,10.2242063 L7.92131474,10.2242063 L7.8247012,11.9434524 L9.15737052,12.0198413 C9.55677291,9.56448413 9.64342629,8.02678571 9.41832669,7.40376984 L9.41832669,7.40376984 C9.19422311,6.78174603 8.47709163,5.94345238 7.26494024,4.88988095 L7.26494024,4.88988095 C10.189243,5.04662698 12.0667331,4.99603175 12.8914343,4.73511905 L12.8914343,4.73511905 C14.1294821,4.3452381 15.1972112,3.44543651 15.4531873,2.52777778 L15.4531873,2.52777778 C15.7091633,1.61011905 15.6045817,1.31944444 15.3376494,0.981150794 L15.3376494,0.981150794 C15.1583665,0.756944444 14.7968127,0.45734127 14.251992,0.0863095238 L14.251992,0.0863095238 C14.2978088,1.86904762 13.4840637,2.71924603 11.8087649,2.6359127 L11.8087649,2.6359127 Z" id="path-135"></path>
        <path d="M4.79183267,0.910714286 C5.28486056,0.712301587 5.79581673,0.618055556 6.2998008,0.618055556 C7.69721116,0.618055556 9.04183267,1.34424603 9.78386454,2.60912698 L10.3595618,3.58928571 C11.9083665,6.2281746 13.0697211,9.07142857 13.810757,12.0376984 L16.002988,20.8204365 C17.7440239,21.219246 19.3555777,21.7103175 20.8366534,22.2936508 C22.3177291,22.8799603 24.002988,23.6894841 25.8934263,24.7261905 L35.5288845,28.5277778 L34.4900398,32.0396825 L11.814741,26.8561508 L1.48007968,7.27579365 C1.41334661,7.14980159 1.35358566,7.02083333 1.2998008,6.88888889 C0.419322709,4.71626984 1.47410359,2.24404762 3.65537849,1.36706349 L4.79183267,0.910714286 Z" id="path-137"></path>
        <linearGradient x1="16.3612891%" y1="63.9331778%" x2="32.022501%" y2="110.121061%" id="linearGradient-139">
            <stop stop-color="#F4F8FE" offset="0%"></stop>
            <stop stop-color="#8BCFF6" offset="100%"></stop>
        </linearGradient>
        <path d="M4.79183267,0.910714286 L3.65537849,1.36706349 C1.47410359,2.24404762 0.419322709,4.71626984 1.2998008,6.88888889 L1.2998008,6.88888889 C1.35358566,7.02083333 1.41334661,7.14980159 1.48007968,7.27579365 L1.48007968,7.27579365 L11.814741,26.8561508 L34.4900398,32.0396825 L35.5288845,28.5277778 L25.8934263,24.7261905 C24.002988,23.6894841 22.3177291,22.8799603 20.8366534,22.2936508 L20.8366534,22.2936508 C19.3555777,21.7103175 17.7440239,21.219246 16.002988,20.8204365 L16.002988,20.8204365 L13.810757,12.0376984 C13.0697211,9.07142857 11.9083665,6.2281746 10.3595618,3.58928571 L10.3595618,3.58928571 L9.78386454,2.60912698 C9.04183267,1.34424603 7.69721116,0.618055556 6.2998008,0.618055556 L6.2998008,0.618055556 C5.79581673,0.618055556 5.28486056,0.712301587 4.79183267,0.910714286" id="path-140"></path>
        <linearGradient x1="103.986696%" y1="126.106786%" x2="-232.956806%" y2="-257.645885%" id="linearGradient-142">
            <stop stop-color="#F4F8FE" offset="0%"></stop>
            <stop stop-color="#8BCFF6" offset="100%"></stop>
        </linearGradient>
        <path d="M0.262948207,1.14980159 L9.86653386,19.6587302 L13.4312749,21.4781746 L6.33366534,8.76785714 C6.03286853,8.22916667 5.71613546,7.69642857 5.38545817,7.17460317 L5.38545817,7.17460317 L1.26992032,0.669642857 L0.262948207,1.14980159 Z" id="path-143"></path>
        <path d="M1.57370518,0.933531746 L0.573705179,0.938492063 L2.16035857,3.24404762 L3.35159363,2.77281746 L3.11454183,2.04563492 C2.89940239,1.38194444 2.27788845,0.933531746 1.57968127,0.933531746 L1.57968127,0.933531746 C1.57768924,0.933531746 1.57569721,0.933531746 1.57370518,0.933531746 L1.57370518,0.933531746 Z" id="path-145"></path>
        <path d="M1.03486056,0.866071429 C0.835657371,1.4593254 0.724103586,1.91468254 0.696215139,2.23214286 L0.696215139,2.23214286 C0.669322709,2.54960317 0.708167331,2.91468254 0.812749004,3.32738095 L0.812749004,3.32738095 L10.187251,3.23015873 L9.57968127,0.858134921 L1.03486056,0.866071429 Z" id="path-147"></path>
    </defs>
    <g id="EP-calibration" stroke="none" stroke-width="1" fill="none" fill-rule="evenodd">
        <g id="Calibbration-FIrst-page" transform="translate(-429.000000, -363.000000)">
            <g id="Group-3" transform="translate(429.000000, 363.000000)">
                <g id="Group-263">
                    <g id="Group-21" transform="translate(0.000000, 0.456349)">
                        <path d="M126.648307,248.395139 L3.67230677,248.395139 C2.00305877,248.395139 0.648306773,247.061891 0.648306773,245.419139 L0.648306773,3.37113889 C0.648306773,1.72739489 2.00305877,0.395138889 3.67230677,0.395138889 L126.648307,0.395138889 L126.648307,248.395139 Z" id="Fill-1" fill="#F0F0F0"></path>
                        <path d="M247.664243,248.411012 L126.150299,248.411012 L126.150299,0.395138889 L247.664243,0.395138889 C249.314641,0.395138889 250.652291,1.72748016 250.652291,3.37132937 L250.652291,245.434821 C250.652291,247.077679 249.314641,248.411012 247.664243,248.411012" id="Fill-3" fill="#FFFFFF"></path>
                        <path d="M195.67002,24.2231151 C194.768625,23.3262897 193.304482,23.3262897 192.408068,24.2231151 L180.605279,35.9750992 L174.758665,30.1516865 C174.310458,29.7042659 173.717829,29.4810516 173.124203,29.4810516 C172.536554,29.4810516 171.9499,29.7042659 171.495717,30.1516865 C170.595319,31.0485119 170.595319,32.5078373 171.495717,33.4046627 L178.663048,40.5425595 C178.742729,40.6616071 178.837351,40.7766865 178.941932,40.8798611 C179.046514,40.9850198 179.161056,41.0782738 179.280578,41.1576389 C180.181972,41.7637897 181.407072,41.6735119 182.202888,40.8798611 L183.866235,39.2231151 L195.67002,27.472123 C196.123207,27.0207341 196.347311,26.4354167 196.347311,25.8510913 C196.347311,25.2598214 196.123207,24.6695437 195.67002,24.2231151" id="Fill-5" fill="#48B459"></path>
                        <polygon id="Fill-7" fill="#48B459" points="136.273805 82.7209325 152.845518 82.7447421 144.065637 69.4451389"></polygon>
                        <path d="M144.596016,135.432044 L144.596016,80.7643849" id="Stroke-9" stroke="#48B459" stroke-width="5"></path>
                        <path d="M144.559064,135.432044 L144.559064,123.380456" id="Stroke-11" stroke="#48B459" stroke-width="5"></path>
                        <path d="M144.559064,153.123512 L144.559064,141.072917" id="Stroke-13" stroke="#48B459" stroke-width="5"></path>
                        <path d="M144.559064,166.37004 L144.559064,158.763889" id="Stroke-15" stroke="#48B459" stroke-width="5"></path>
                        <path d="M75.299004,37.6324405 C76.1994024,38.5292659 76.1994024,39.983631 75.299004,40.8814484 C74.3986056,41.7792659 72.9374502,41.7792659 72.0370518,40.8814484 L58.5719124,27.4707341 C57.6715139,26.5739087 57.6715139,25.1185516 58.5719124,24.2207341 C59.4733068,23.3239087 60.9334661,23.3239087 61.8338645,24.2207341 L75.299004,37.6324405 Z" id="Fill-17" fill="#F16443"></path>
                        <path d="M61.4792829,40.8818452 C60.5788845,41.7786706 59.1177291,41.7786706 58.2173307,40.8818452 C57.3159363,39.9850198 57.3159363,38.5296627 58.2173307,37.6328373 L71.6814741,24.221131 C72.5818725,23.3243056 74.0430279,23.3243056 74.9444223,24.221131 C75.8448207,25.1179563 75.8448207,26.5733135 74.9444223,27.4701389 L61.4792829,40.8818452 Z" id="Fill-19" fill="#F16443"></path>
                    </g>
                    <g id="Group-24" transform="translate(178.290837, 177.043651)">
                        <mask id="mask-2" fill="white">
                            <use xlink:href="#path-1"></use>
                        </mask>
                        <g id="Clip-23"></g>
                        <polygon id="Fill-22" fill="#D7D7D7" mask="url(#mask-2)" points="-5.39940239 21.1498016 11.002988 21.1498016 11.002988 -5.18353175 -5.39940239 -5.18353175"></polygon>
                    </g>
                    <g id="Group-27" transform="translate(176.298805, 191.924603)">
                        <mask id="mask-4" fill="white">
                            <use xlink:href="#path-3"></use>
                        </mask>
                        <g id="Clip-26"></g>
                        <polygon id="Fill-25" fill="#3B4389" mask="url(#mask-4)" points="-5.41434263 12.265873 15.002988 12.265873 15.002988 -6.07043651 -5.41434263 -6.07043651"></polygon>
                    </g>
                    <g id="Group-30" transform="translate(195.223108, 200.853175)">
                        <mask id="mask-6" fill="white">
                            <use xlink:href="#path-5"></use>
                        </mask>
                        <g id="Clip-29"></g>
                        <polygon id="Fill-28" fill="#D7D7D7" mask="url(#mask-6)" points="-6.07171315 11.1299603 11.1304781 11.1299603 11.1304781 -6.00396825 -6.07171315 -6.00396825"></polygon>
                    </g>
                    <g id="Group-33" transform="translate(196.219124, 201.845238)">
                        <mask id="mask-8" fill="white">
                            <use xlink:href="#path-7"></use>
                        </mask>
                        <g id="Clip-32"></g>
                        <polygon id="Fill-31" fill="#757575" mask="url(#mask-8)" points="-5.46215139 8.53869048 8.53087649 8.53869048 8.53087649 -5.39880952 -5.46215139 -5.39880952"></polygon>
                    </g>
                    <g id="Group-36" transform="translate(161.358566, 200.853175)">
                        <mask id="mask-10" fill="white">
                            <use xlink:href="#path-9"></use>
                        </mask>
                        <g id="Clip-35"></g>
                        <polygon id="Fill-34" fill="#D7D7D7" mask="url(#mask-10)" points="-5.32171315 11.1299603 11.8794821 11.1299603 11.8794821 -6.00396825 -5.32171315 -6.00396825"></polygon>
                    </g>
                    <g id="Group-39" transform="translate(163.350598, 201.845238)">
                        <mask id="mask-12" fill="white">
                            <use xlink:href="#path-11"></use>
                        </mask>
                        <g id="Clip-38"></g>
                        <polygon id="Fill-37" fill="#757575" mask="url(#mask-12)" points="-5.70916335 8.53869048 8.28386454 8.53869048 8.28386454 -5.39880952 -5.70916335 -5.39880952"></polygon>
                    </g>
                    <g id="Group-42" transform="translate(159.366534, 196.884921)">
                        <mask id="mask-14" fill="white">
                            <use xlink:href="#path-13"></use>
                        </mask>
                        <g id="Clip-41"></g>
                        <polygon id="Fill-40" fill="#3B4389" mask="url(#mask-14)" points="-5.54083665 12.3561508 48.9940239 12.3561508 48.9940239 -6.03373016 -5.54083665 -6.03373016"></polygon>
                    </g>
                    <g id="Group-45" transform="translate(164.346614, 174.067460)">
                        <mask id="mask-16" fill="white">
                            <use xlink:href="#path-15"></use>
                        </mask>
                        <g id="Clip-44"></g>
                        <polygon id="Fill-43" fill="#3B4389" mask="url(#mask-16)" points="-5.50398406 10.1329365 38.997012 10.1329365 38.997012 -5.20535714 -5.50398406 -5.20535714"></polygon>
                    </g>
                    <g id="Group-48" transform="translate(154.386454, 133.392857)">
                        <mask id="mask-18" fill="white">
                            <use xlink:href="#path-17"></use>
                        </mask>
                        <g id="Clip-47"></g>
                        <path d="M0.61623506,0.658630952 L0.61623506,29.6447421 C0.61623506,37.3729167 6.90507968,43.6377976 14.6640438,43.6377976 L19.6829681,43.6377976" id="Stroke-46" stroke="#3B4389" stroke-width="2.43" mask="url(#mask-18)"></path>
                    </g>
                    <g id="Group-51" transform="translate(161.358566, 168.115079)">
                        <mask id="mask-20" fill="white">
                            <use xlink:href="#path-19"></use>
                        </mask>
                        <g id="Clip-50"></g>
                        <polygon id="Fill-49" fill="#B1B9BA" mask="url(#mask-20)" points="-5.52589641 13.0863095 47.001992 13.0863095 47.001992 -5.25 -5.52589641 -5.25"></polygon>
                    </g>
                    <g id="Group-54" transform="translate(155.382470, 127.440476)">
                        <mask id="mask-22" fill="white">
                            <use xlink:href="#path-21"></use>
                        </mask>
                        <g id="Clip-53"></g>
                        <polygon id="Fill-52" fill="#B1B9BA" mask="url(#mask-22)" points="-5.57071713 38.4007937 12.8386454 38.4007937 12.8386454 -5.92361111 -5.57071713 -5.92361111"></polygon>
                    </g>
                    <g id="Group-57" transform="translate(168.330677, 149.265873)">
                        <mask id="mask-24" fill="white">
                            <use xlink:href="#path-23"></use>
                        </mask>
                        <g id="Clip-56"></g>
                        <polygon id="Fill-55" fill="#02296E" mask="url(#mask-24)" points="-6.09163347 54.1041667 67.4531873 54.1041667 67.4531873 -5.2202381 -6.09163347 -5.2202381"></polygon>
                    </g>
                    <g id="Group-60" transform="translate(221.119522, 196.884921)">
                        <mask id="mask-26" fill="white">
                            <use xlink:href="#path-25"></use>
                        </mask>
                        <g id="Clip-59"></g>
                        <polygon id="Fill-58" fill="#000000" mask="url(#mask-26)" points="-5.69621514 12.7519841 22.7669323 12.7519841 22.7669323 -6.03472222 -5.69621514 -6.03472222"></polygon>
                    </g>
                    <g id="Group-63" transform="translate(162.354582, 152.242063)">
                        <mask id="mask-28" fill="white">
                            <use xlink:href="#path-27"></use>
                        </mask>
                        <g id="Clip-62"></g>
                        <polygon id="Fill-61" fill="#02296E" mask="url(#mask-28)" points="-6.13645418 54.1269841 72.4252988 54.1269841 72.4252988 -5.19742063 -6.13645418 -5.19742063"></polygon>
                    </g>
                    <g id="Group-66" transform="translate(220.123506, 199.861111)">
                        <mask id="mask-30" fill="white">
                            <use xlink:href="#path-29"></use>
                        </mask>
                        <g id="Clip-65"></g>
                        <polygon id="Fill-64" fill="#000000" mask="url(#mask-30)" points="-5.70418327 12.7748016 22.7589641 12.7748016 22.7589641 -6.01190476 -5.70418327 -6.01190476"></polygon>
                    </g>
                    <path d="M204.085558,152.043353 L206.309661,152.043353 C208.217032,152.043353 210.10249,152.46002 211.831574,153.263591 L216.812649,155.582044 C217.023805,155.680258 217.115438,155.93125 217.015837,156.141567 C217.012849,156.149504 217.009861,156.156448 217.005876,156.163393 C216.878386,156.39752 216.613446,156.521528 216.351494,156.467956 L210.652291,155.315179 L210.490936,155.374702 C208.453088,156.137599 206.208068,156.141567 204.168227,155.385615 L202.719024,154.848909 L204.085558,152.043353 Z" id="Fill-67" fill="#E1A478"></path>
                    <g id="Group-71" transform="translate(165.342629, 111.567460)">
                        <mask id="mask-32" fill="white">
                            <use xlink:href="#path-31"></use>
                        </mask>
                        <g id="Clip-70"></g>
                        <polygon id="Fill-69" fill="url(#linearGradient-33)" mask="url(#mask-32)" points="-110.201195 548.314484 1673.78884 548.314484 1673.78884 -562.25496 -110.201195 -562.25496"></polygon>
                    </g>
                    <g id="Group-74" transform="translate(165.342629, 111.567460)">
                        <mask id="mask-35" fill="white">
                            <use xlink:href="#path-34"></use>
                        </mask>
                        <g id="Clip-73"></g>
                        <path d="M6.48007968,0.428571429 L4.99701195,0.778769841 C2.15039841,1.45039683 0.388446215,4.29365079 1.06374502,7.12896825 L1.06374502,7.12896825 C1.10458167,7.30257937 1.15438247,7.47123016 1.21215139,7.63888889 L1.21215139,7.63888889 L10.247012,33.6428571 L37.1573705,44.2371032 L39.0946215,40.1121032 L27.9591633,33.6428571 C25.8286853,32.0168651 23.9093625,30.7063492 22.1972112,29.7113095 L22.1972112,29.7113095 C20.4860558,28.7162698 18.5956175,27.8125 16.5288845,27 L16.5288845,27 L15.4820717,15.7906746 C15.12749,12.0069444 14.2320717,8.2906746 12.8227092,4.75892857 L12.8227092,4.75892857 L12.2998008,3.44642857 C11.5268924,1.50892857 9.65338645,0.293650794 7.63844622,0.293650794 L7.63844622,0.293650794 C7.25498008,0.293650794 6.86653386,0.337301587 6.48007968,0.428571429" id="Fill-72" fill="url(#linearGradient-36)" mask="url(#mask-35)"></path>
                    </g>
                    <g id="Group-77" transform="translate(161.358566, 111.567460)">
                        <mask id="mask-38" fill="white">
                            <use xlink:href="#path-37"></use>
                        </mask>
                        <g id="Clip-76"></g>
                        <polygon id="Fill-75" fill="url(#linearGradient-39)" mask="url(#mask-38)" points="-106.217131 548.314484 1677.77291 548.314484 1677.77291 -562.25496 -106.217131 -562.25496"></polygon>
                    </g>
                    <g id="Group-80" transform="translate(161.358566, 111.567460)">
                        <mask id="mask-41" fill="white">
                            <use xlink:href="#path-40"></use>
                        </mask>
                        <g id="Clip-79"></g>
                        <path d="M4.62549801,2.18452381 C2.12051793,3.85515873 0.615537849,6.65873016 0.615537849,9.66071429 L0.615537849,9.66071429 L0.615537849,15.719246 L1.08366534,47.3105159 C8.19920319,46.7787698 13.1653386,46.0704365 15.9780876,45.1845238 L15.9780876,45.1845238 C18.7918327,44.2996032 21.3814741,43.156746 23.748008,41.7569444 L23.748008,41.7569444 L22.125498,16.0714286 C21.9262948,12.9275794 21.1334661,9.84821429 19.7848606,6.99702381 L19.7848606,6.99702381 L17.0816733,1.27777778 L7.16135458,0.495039683 L4.62549801,2.18452381 Z" id="Fill-78" fill="url(#linearGradient-42)" mask="url(#mask-41)"></path>
                    </g>
                    <g id="Group-85" transform="translate(168.330677, 90.734127)">
                        <path d="M0.450796813,19.9835317 L0.450796813,16.5301587 C1.38605578,13.3 1.85318725,11.2126984 1.85318725,10.2702381 C1.85318725,8.85456349 2.79143426,5.5718254 4.19282869,5.53412698 C5.59422311,5.49543651 7.54641434,3.8625 10.2655378,7.12440476 C12.0772908,9.29801587 13.3621514,12.2107143 14.1201195,15.8595238 L13.9318725,18.2047619 C12.7575697,18.6918651 11.7715139,19.3674603 10.9727092,20.2325397 C10.1739044,21.096627 9.80936255,21.8099206 9.87609562,22.3724206 L7.80537849,23.5103175 L5.71175299,22.3724206 L0.283466135,21.4597222 L0.450796813,19.9835317 Z" id="Fill-81" fill="#E1A478"></path>
                        <path d="M12.6374502,0.94156746 C13.9501992,1.99811508 14.7579681,2.79672619 15.0587649,3.33541667 C15.3585657,3.87410714 15.5099602,4.92073413 15.5099602,6.47430556 C16.9930279,8.56954365 17.8476096,9.83839286 18.0747012,10.2798611 C18.4153386,10.9415675 18.2848606,11.5169643 17.7350598,11.6102183 C17.3685259,11.6717262 17.0179283,11.7034722 16.6842629,11.7034722 L16.6842629,15.1985119 C17.2320717,16.059623 17.4462151,16.7679563 17.3247012,17.3235119 C17.2031873,17.8780754 16.4472112,18.200496 15.0587649,18.2887897 L8.49203187,18.1191468 C6.99800797,17.7997024 6.19123506,16.8264881 6.07171315,15.1985119 C5.95119522,13.5715278 5.89243028,12.0358135 5.89243028,10.5923611 C5.51095618,10.0060516 4.62649402,9.72232143 3.23904382,9.74017857 C1.85258964,9.75803571 0.883466135,8.30763889 0.332669323,5.38799603 C0.265936255,2.66478175 1.23505976,1.18263889 3.23904382,0.94156746 C5.24501992,0.699503968 8.37749004,0.699503968 12.6374502,0.94156746" id="Fill-83" fill="#F9C195"></path>
                    </g>
                    <g id="Group-88" transform="translate(165.342629, 86.765873)">
                        <mask id="mask-44" fill="white">
                            <use xlink:href="#path-43"></use>
                        </mask>
                        <g id="Clip-87"></g>
                        <polygon id="Fill-86" fill="#02296E" mask="url(#mask-44)" points="-5.25 26.8095238 25.5049801 26.8095238 25.5049801 -6 -5.25 -6"></polygon>
                    </g>
                    <path d="M203.081773,155.041766 L205.305876,155.041766 C207.214243,155.041766 209.099701,155.458433 210.827789,156.262004 L215.808865,158.580456 C216.02002,158.678671 216.111653,158.929663 216.013048,159.13998 L216.002092,159.162798 C215.875598,159.395933 215.609661,159.51994 215.348705,159.466369 L209.648506,158.313591 L209.487151,158.373115 C207.450299,159.136012 205.204283,159.13998 203.164442,158.384028 L201.715239,157.847321 L203.081773,155.041766 Z" id="Fill-89" fill="#F9C195"></path>
                    <g id="Group-93" transform="translate(164.346614, 114.543651)">
                        <mask id="mask-46" fill="white">
                            <use xlink:href="#path-45"></use>
                        </mask>
                        <g id="Clip-92"></g>
                        <polygon id="Fill-91" fill="url(#linearGradient-47)" mask="url(#mask-46)" points="-109.204183 545.338294 1674.78586 545.338294 1674.78586 -565.231151 -109.204183 -565.231151"></polygon>
                    </g>
                    <g id="Group-96" transform="translate(164.346614, 114.543651)">
                        <mask id="mask-49" fill="white">
                            <use xlink:href="#path-48"></use>
                        </mask>
                        <g id="Clip-95"></g>
                        <path d="M6.47310757,0.450396825 L4.98904382,0.800595238 C2.14243028,1.47222222 0.381474104,4.31646825 1.05577689,7.15178571 L1.05577689,7.15178571 C1.09760956,7.32440476 1.14641434,7.49404762 1.20517928,7.66170635 L1.20517928,7.66170635 L10.2390438,33.6656746 L37.1503984,44.2589286 L39.0866534,40.1339286 L27.9511952,33.6656746 C25.8217131,32.0386905 23.9013944,30.7281746 22.190239,29.734127 L22.190239,29.734127 C20.4780876,28.7380952 18.5886454,27.8353175 16.5229084,27.0228175 L16.5229084,27.0228175 L15.4741036,15.8125 C15.1205179,12.0287698 14.2250996,8.31349206 12.8167331,4.78174603 L12.8167331,4.78174603 L12.2928287,3.46825397 C11.5199203,1.53174603 9.64741036,0.31547619 7.6314741,0.31547619 L7.6314741,0.31547619 C7.24800797,0.31547619 6.86055777,0.359126984 6.47310757,0.450396825" id="Fill-94" fill="url(#linearGradient-50)" mask="url(#mask-49)"></path>
                    </g>
                    <g id="Group-99" transform="translate(178.290837, 114.543651)">
                        <mask id="mask-52" fill="white">
                            <use xlink:href="#path-51"></use>
                        </mask>
                        <g id="Clip-98"></g>
                        <polygon id="Fill-97" fill="#E20707" mask="url(#mask-52)" points="-5.36752988 34.6190476 12.2828685 34.6190476 12.2828685 -5.89980159 -5.36752988 -5.89980159"></polygon>
                    </g>
                    <g id="Group-102" transform="translate(177.294821, 111.567460)">
                        <mask id="mask-54" fill="white">
                            <use xlink:href="#path-53"></use>
                        </mask>
                        <g id="Clip-101"></g>
                        <polygon id="Fill-100" fill="#F40100" mask="url(#mask-54)" points="-5.67729084 10.3204365 9.49103586 10.3204365 9.49103586 -5.28571429 -5.67729084 -5.28571429"></polygon>
                    </g>
                    <g id="Group-105" transform="translate(167.334661, 109.583333)">
                        <mask id="mask-56" fill="white">
                            <use xlink:href="#path-55"></use>
                        </mask>
                        <g id="Clip-104"></g>
                        <polygon id="Fill-103" fill="#0896FB" mask="url(#mask-56)" points="-5.77091633 12.3055556 17.9462151 12.3055556 17.9462151 -5.68948413 -5.77091633 -5.68948413"></polygon>
                    </g>
                    <g id="Group-108" transform="translate(64.745020, 136.369048)">
                        <mask id="mask-58" fill="white">
                            <use xlink:href="#path-57"></use>
                        </mask>
                        <g id="Clip-107"></g>
                        <polygon id="Fill-106" fill="#D7D7D7" mask="url(#mask-58)" points="-4.65139442 16.7242063 8.53585657 16.7242063 8.53585657 -4.4484127 -4.65139442 -4.4484127"></polygon>
                    </g>
                    <g id="Group-111" transform="translate(62.752988, 147.281746)">
                        <mask id="mask-60" fill="white">
                            <use xlink:href="#path-59"></use>
                        </mask>
                        <g id="Clip-110"></g>
                        <polygon id="Fill-109" fill="#3B4389" mask="url(#mask-60)" points="-4.27290837 10.6329365 12.1414343 10.6329365 12.1414343 -4.11011905 -4.27290837 -4.11011905"></polygon>
                    </g>
                    <g id="Group-114" transform="translate(77.693227, 155.218254)">
                        <mask id="mask-62" fill="white">
                            <use xlink:href="#path-61"></use>
                        </mask>
                        <g id="Clip-113"></g>
                        <polygon id="Fill-112" fill="#D7D7D7" mask="url(#mask-62)" points="-4.52589641 8.96230159 9.30478088 8.96230159 9.30478088 -4.81349206 -4.52589641 -4.81349206"></polygon>
                    </g>
                    <g id="Group-117" transform="translate(78.689243, 156.210317)">
                        <mask id="mask-64" fill="white">
                            <use xlink:href="#path-63"></use>
                        </mask>
                        <g id="Clip-116"></g>
                        <polygon id="Fill-115" fill="#757575" mask="url(#mask-64)" points="-4.23207171 6.68551587 7.0189243 6.68551587 7.0189243 -4.52083333 -4.23207171 -4.52083333"></polygon>
                    </g>
                    <g id="Group-120" transform="translate(50.800797, 155.218254)">
                        <mask id="mask-66" fill="white">
                            <use xlink:href="#path-65"></use>
                        </mask>
                        <g id="Clip-119"></g>
                        <polygon id="Fill-118" fill="#D7D7D7" mask="url(#mask-66)" points="-4.25996016 8.96230159 9.56972112 8.96230159 9.56972112 -4.81349206 -4.25996016 -4.81349206"></polygon>
                    </g>
                    <g id="Group-123" transform="translate(52.792829, 156.210317)">
                        <mask id="mask-68" fill="white">
                            <use xlink:href="#path-67"></use>
                        </mask>
                        <g id="Clip-122"></g>
                        <polygon id="Fill-121" fill="#757575" mask="url(#mask-68)" points="-4.96215139 6.68551587 6.28784861 6.68551587 6.28784861 -4.52083333 -4.96215139 -4.52083333"></polygon>
                    </g>
                    <g id="Group-126" transform="translate(48.808765, 151.250000)">
                        <mask id="mask-70" fill="white">
                            <use xlink:href="#path-69"></use>
                        </mask>
                        <g id="Clip-125"></g>
                        <polygon id="Fill-124" fill="#3B4389" mask="url(#mask-70)" points="-4.04681275 10.7251984 39.8027888 10.7251984 39.8027888 -4.05952381 -4.04681275 -4.05952381"></polygon>
                    </g>
                    <g id="Group-129" transform="translate(52.792829, 134.384921)">
                        <mask id="mask-72" fill="white">
                            <use xlink:href="#path-71"></use>
                        </mask>
                        <g id="Clip-128"></g>
                        <polygon id="Fill-127" fill="#3B4389" mask="url(#mask-72)" points="-3.99601594 7.45634921 31.7848606 7.45634921 31.7848606 -4.875 -3.99601594 -4.875"></polygon>
                    </g>
                    <g id="Group-132" transform="translate(44.824701, 100.654762)">
                        <mask id="mask-74" fill="white">
                            <use xlink:href="#path-73"></use>
                        </mask>
                        <g id="Clip-131"></g>
                        <path d="M0.882669323,0.863095238 L0.882669323,24.1706349 C0.882669323,30.3849206 5.94043825,35.422619 12.1794821,35.422619 L16.2143426,35.422619" id="Stroke-130" stroke="#3B4389" stroke-width="2.43" mask="url(#mask-74)"></path>
                    </g>
                    <g id="Group-135" transform="translate(50.800797, 129.424603)">
                        <mask id="mask-76" fill="white">
                            <use xlink:href="#path-75"></use>
                        </mask>
                        <g id="Clip-134"></g>
                        <polygon id="Fill-133" fill="#B1B9BA" mask="url(#mask-76)" points="-4.4252988 10.0049603 37.810757 10.0049603 37.810757 -4.73809524 -4.4252988 -4.73809524"></polygon>
                    </g>
                    <g id="Group-138" transform="translate(45.820717, 95.694444)">
                        <mask id="mask-78" fill="white">
                            <use xlink:href="#path-77"></use>
                        </mask>
                        <g id="Clip-137"></g>
                        <polygon id="Fill-136" fill="#B1B9BA" mask="url(#mask-78)" points="-4.28585657 31.3849206 10.5149402 31.3849206 10.5149402 -4.25496032 -4.28585657 -4.25496032"></polygon>
                    </g>
                    <g id="Group-141" transform="translate(55.780876, 113.551587)">
                        <mask id="mask-80" fill="white">
                            <use xlink:href="#path-79"></use>
                        </mask>
                        <g id="Clip-140"></g>
                        <polygon id="Fill-139" fill="#02296E" mask="url(#mask-80)" points="-4.25298805 43.7043651 54.8814741 43.7043651 54.8814741 -3.99702381 -4.25298805 -3.99702381"></polygon>
                    </g>
                    <g id="Group-144" transform="translate(98.609562, 151.250000)">
                        <mask id="mask-82" fill="white">
                            <use xlink:href="#path-81"></use>
                        </mask>
                        <g id="Clip-143"></g>
                        <polygon id="Fill-142" fill="#000000" mask="url(#mask-82)" points="-4.3187251 11.0446429 18.5677291 11.0446429 18.5677291 -4.05952381 -4.3187251 -4.05952381"></polygon>
                    </g>
                    <g id="Group-147" transform="translate(50.800797, 116.527778)">
                        <mask id="mask-84" fill="white">
                            <use xlink:href="#path-83"></use>
                        </mask>
                        <g id="Clip-146"></g>
                        <polygon id="Fill-145" fill="#02296E" mask="url(#mask-84)" points="-4.11354582 43.1378968 59.0547809 43.1378968 59.0547809 -4.5625 -4.11354582 -4.5625"></polygon>
                    </g>
                    <g id="Group-150" transform="translate(97.613546, 154.226190)">
                        <mask id="mask-86" fill="white">
                            <use xlink:href="#path-85"></use>
                        </mask>
                        <g id="Clip-149"></g>
                        <polygon id="Fill-148" fill="#000000" mask="url(#mask-86)" points="-4.12848606 10.4791667 18.7569721 10.4791667 18.7569721 -4.625 -4.12848606 -4.625"></polygon>
                    </g>
                    <g id="Group-155" transform="translate(68.729084, 71.884921)">
                        <path d="M1.36802789,15.5125 L3.12599602,13.1136905 C3.96663347,10.543254 4.40189243,8.87956349 4.42778884,8.12162698 C4.46762948,6.98472222 5.312251,4.37261905 6.44073705,4.38055556 C7.56822709,4.38948413 9.18276892,3.13154762 11.2753984,5.82698413 C12.6708167,7.62559524 13.622012,10.0005952 14.1289841,12.9539683 L13.9128486,14.8329365 C12.4178287,15.1742063 11.3371514,15.6801587 10.6708167,16.3537698 C10.0044821,17.0253968 9.7564741,17.3646825 9.9248008,17.3706349 L9.23555777,21.2188492 L7.34312749,21.5005952 L0.876992032,17.4212302 L1.36802789,15.5125 Z" id="Fill-151" fill="#E1A478"></path>
                        <path d="M13.3552789,0.924107143 C14.3801793,1.8110119 15.0066733,2.47371032 15.2337649,2.91617063 C15.4598606,3.35664683 15.551494,4.20287698 15.5086653,5.45089286 C16.6421315,7.17609127 17.2935259,8.21974206 17.4628486,8.57986111 C17.7178287,9.12152778 17.5973108,9.58085317 17.1530876,9.63938492 C16.8572709,9.67906746 16.5744024,9.69494048 16.3064741,9.68501984 L16.2078685,12.4945437 C16.6242032,13.2018849 16.7765936,13.7772817 16.6630478,14.2197421 C16.549502,14.6631944 15.9339641,14.9002976 14.8154382,14.9330357 L9.54252988,14.6145833 C8.35129482,14.3159722 7.73077689,13.5114087 7.67998008,12.1989087 C7.62918327,10.8883929 7.62320717,9.65327381 7.66404382,8.49255952 C7.37420319,8.01140873 6.67201195,7.75843254 5.5564741,7.73363095 C4.44193227,7.70982143 3.70388446,6.51835317 3.34233068,4.15724206 C3.36523904,1.96676587 4.18496016,0.802083333 5.80348606,0.663194444 C7.42101594,0.525297619 9.93794821,0.612599206 13.3552789,0.924107143" id="Fill-153" fill="#F9C195"></path>
                    </g>
                    <g id="Group-158" transform="translate(69.725100, 68.908730)">
                        <mask id="mask-88" fill="white">
                            <use xlink:href="#path-87"></use>
                        </mask>
                        <g id="Clip-157"></g>
                        <polygon id="Fill-156" fill="#02296E" mask="url(#mask-88)" points="-4.11095618 -5.44484127 20.6021912 -4.5906746 19.6838645 21.7744048 -5.02928287 20.919246"></polygon>
                    </g>
                    <g id="Group-163" transform="translate(66.737052, 87.757937)">
                        <path d="M18.6388446,28.8618056 L20.4256972,28.7844246 C21.9585657,28.7179563 23.4874502,28.9887897 24.9047809,29.5750992 L28.9874502,31.2645833 C29.159761,31.3360119 29.2424303,31.5344246 29.1697211,31.7070437 C29.1677291,31.712996 29.164741,31.7189484 29.161753,31.7258929 C29.0681275,31.9173611 28.8599602,32.024504 28.6478088,31.9917659 L24.0282869,31.2625992 L23.9007968,31.3171627 C22.290239,31.9997024 20.4864542,32.0800595 18.8221116,31.5433532 L17.6388446,31.1624008 L18.6388446,28.8618056 Z" id="Fill-159" fill="#E1A478"></path>
                        <path d="M4.27928287,0.181051587 C1.63984064,0.925099206 -0.112151394,3.41418651 0.085059761,6.13938492 L1.58007968,26.7475198 L17.5073705,31.9975198 L18.9187251,28.6175595 L15.8091633,26.1344246 C14.0422311,24.9022817 12.4535857,23.9161706 11.0432271,23.1760913 C9.63386454,22.437004 8.08505976,21.7762897 6.39581673,21.1939484 L5.19960159,12.483631 C4.76633466,9.33779762 5.28027888,6.13640873 6.67370518,3.28125 L6.75139442,3.1235119 C7.26135458,2.07886905 6.8250996,0.821924603 5.77729084,0.312996032 C5.31115538,0.0868055556 4.77828685,0.0401785714 4.27928287,0.181051587" id="Fill-161" fill="#CCECFD"></path>
                    </g>
                    <g id="Group-166" transform="translate(50.800797, 86.765873)">
                        <mask id="mask-90" fill="white">
                            <use xlink:href="#path-89"></use>
                        </mask>
                        <g id="Clip-165"></g>
                        <polygon id="Fill-164" fill="url(#linearGradient-91)" mask="url(#mask-90)" points="1385.49203 17.0595238 -10.2111554 -311.965278 -216.671315 556.888889 1179.03287 885.912698"></polygon>
                    </g>
                    <g id="Group-169" transform="translate(50.800797, 86.765873)">
                        <mask id="mask-93" fill="white">
                            <use xlink:href="#path-92"></use>
                        </mask>
                        <g id="Clip-168"></g>
                        <path d="M15.9252988,1.31349206 C14.1484064,1.97420635 12.7021912,3.29960317 11.8954183,5.00694444 L11.8954183,5.00694444 L9.39840637,10.2857143 L0.915338645,34.5376984 C6.58266932,35.4345238 10.2918327,34.2619048 12.6583665,34.0873016 L12.6583665,34.0873016 C15.0249004,33.9146825 17.9701195,32.6904762 20.0806773,32.031746 L20.0806773,32.031746 L26.4233068,16.8373016 C27.810757,13.2271825 28.123506,9.29464286 27.3237052,5.51190476 L27.3237052,5.51190476 L26.7031873,2.57936508 L19.0856574,0.138888889 L15.9252988,1.31349206 Z" id="Fill-167" fill="url(#linearGradient-94)" mask="url(#mask-93)"></path>
                    </g>
                    <path d="M86.351494,119.062103 L87.9540837,118.518452 C89.4859562,118.452976 90.8973108,118.487698 92.3146414,119.074008 L96.6991036,121.464881 C96.8724104,121.53631 96.9550797,121.734722 96.8823705,121.907341 C96.8793825,121.913294 96.8763944,121.920238 96.8734064,121.92619 C96.7807769,122.117659 96.5716135,122.225794 96.3604582,122.192063 L91.7409363,121.462897 L91.6124502,121.51746 C90.0028884,122.2 88.1991036,122.280357 86.534761,121.744643 L85.351494,121.362698 L86.351494,119.062103 Z" id="Fill-170" fill="#FFC294"></path>
                    <g id="Group-174" transform="translate(72.713147, 90.734127)">
                        <mask id="mask-96" fill="white">
                            <use xlink:href="#path-95"></use>
                        </mask>
                        <g id="Clip-173"></g>
                        <polygon id="Fill-172" fill="#E20707" mask="url(#mask-96)" points="13.4700199 -2.81359127 1.25587649 -5.69255952 -6.55886454 27.1953373 5.65428287 30.0743056"></polygon>
                    </g>
                    <g id="Group-177" transform="translate(62.752988, 89.742063)">
                        <mask id="mask-98" fill="white">
                            <use xlink:href="#path-97"></use>
                        </mask>
                        <g id="Clip-176"></g>
                        <polygon id="Fill-175" fill="url(#linearGradient-99)" mask="url(#mask-98)" points="1324.01096 -357.105159 -108.914343 -295.414683 -70.2051793 596.609127 1362.72012 534.919643"></polygon>
                    </g>
                    <g id="Group-180" transform="translate(62.752988, 89.742063)">
                        <mask id="mask-101" fill="white">
                            <use xlink:href="#path-100"></use>
                        </mask>
                        <g id="Clip-179"></g>
                        <path d="M5.16932271,0.117063492 C4.9501992,0.131944444 4.73306773,0.169642857 4.52290837,0.228174603 L4.52290837,0.228174603 L3.73904382,0.449404762 C1.22808765,1.1577381 -0.242031873,3.74702381 0.444223108,6.25496032 L0.444223108,6.25496032 L0.499003984,24.3134921 L22.4860558,31.8928571 L23.8974104,28.5128968 L14.7260956,23.7003968 C12.9601594,22.468254 11.3715139,21.4821429 9.96215139,20.7420635 L9.96215139,20.7420635 C8.55079681,20.0019841 8.312749,19.2718254 6.62350598,18.6904762 L6.62350598,18.6904762 C6.62350598,18.6904762 8.21613546,15.6240079 8.70219124,10.5694444 L8.70219124,10.5694444 C8.94422311,8.07142857 8.9252988,6.10218254 8.80179283,4.26984127 L8.80179283,4.26984127 C8.78286853,3.98809524 8.53585657,3.04365079 8.53585657,3.04365079 L8.53585657,3.04365079 C8.42330677,1.38194444 7.03386454,0.110119048 5.38545817,0.110119048 L5.38545817,0.110119048 C5.31374502,0.110119048 5.24203187,0.112103175 5.16932271,0.117063492" id="Fill-178" fill="url(#linearGradient-102)" mask="url(#mask-101)"></path>
                    </g>
                    <g id="Group-183" transform="translate(76.697211, 88.750000)">
                        <mask id="mask-104" fill="white">
                            <use xlink:href="#path-103"></use>
                        </mask>
                        <g id="Clip-182"></g>
                        <polygon id="Fill-181" fill="#F40100" mask="url(#mask-104)" points="8.55707171 -2.99960317 -3.31045817 -5.79722222 -6.21185259 6.41210317 5.65567729 9.21071429"></polygon>
                    </g>
                    <g id="Group-186" transform="translate(68.729084, 84.781746)">
                        <mask id="mask-106" fill="white">
                            <use xlink:href="#path-105"></use>
                        </mask>
                        <g id="Clip-185"></g>
                        <polygon id="Fill-184" fill="#0896FB" mask="url(#mask-106)" points="15.7908367 -1.17718254 -2.76494024 -5.55119048 -6.10956175 8.52619048 12.4462151 12.9001984"></polygon>
                    </g>
                    <polygon id="Fill-187" fill="#F0F0F0" points="3.20517928 160.188492 126.150398 160.188492 126.150398 133.214286 3.20517928 133.214286"></polygon>
                    <g id="Group-191" transform="translate(54.784861, 225.654762)">
                        <mask id="mask-108" fill="white">
                            <use xlink:href="#path-107"></use>
                        </mask>
                        <g id="Clip-190"></g>
                        <polygon id="Fill-189" fill="#D7D7D7" mask="url(#mask-108)" points="-4.21015936 17.047619 8.97609562 17.047619 8.97609562 -4.12301587 -4.21015936 -4.12301587"></polygon>
                    </g>
                    <g id="Group-194" transform="translate(53.788845, 237.559524)">
                        <mask id="mask-110" fill="white">
                            <use xlink:href="#path-109"></use>
                        </mask>
                        <g id="Clip-193"></g>
                        <polygon id="Fill-192" fill="#3B4389" mask="url(#mask-110)" points="-4.82768924 9.96329365 11.5856574 9.96329365 11.5856574 -4.77876984 -4.82768924 -4.77876984"></polygon>
                    </g>
                    <g id="Group-197" transform="translate(43.828685, 223.670635)">
                        <mask id="mask-112" fill="white">
                            <use xlink:href="#path-111"></use>
                        </mask>
                        <g id="Clip-196"></g>
                        <polygon id="Fill-195" fill="#3B4389" mask="url(#mask-112)" points="-4.5498008 7.78174603 31.2280876 7.78174603 31.2280876 -4.54960317 -4.5498008 -4.54960317"></polygon>
                    </g>
                    <g id="Group-200" transform="translate(26.896414, 193.908730)">
                        <mask id="mask-114" fill="white">
                            <use xlink:href="#path-113"></use>
                        </mask>
                        <g id="Clip-199"></g>
                        <path d="M0.328286853,0.753571429 L9.66394422,22.1206349 C12.152988,27.8180556 18.8083665,30.4261905 24.5284861,27.9470238 L28.2266932,26.3438492" id="Stroke-198" stroke="#3B4389" stroke-width="2.43" mask="url(#mask-114)"></path>
                    </g>
                    <g id="Group-203" transform="translate(41.836653, 218.710317)">
                        <mask id="mask-116" fill="white">
                            <use xlink:href="#path-115"></use>
                        </mask>
                        <g id="Clip-202"></g>
                        <polygon id="Fill-201" fill="#B1B9BA" mask="url(#mask-116)" points="-4.97709163 10.3313492 37.2539841 10.3313492 37.2539841 -4.41071429 -4.97709163 -4.41071429"></polygon>
                    </g>
                    <g id="Group-206" transform="translate(24.904382, 184.980159)">
                        <mask id="mask-118" fill="white">
                            <use xlink:href="#path-117"></use>
                        </mask>
                        <g id="Clip-205"></g>
                        <polygon id="Fill-204" fill="#B1B9BA" mask="url(#mask-118)" points="7.1126494 -7.12767857 -6.45906375 -1.24474206 7.81683267 31.4298611 21.3885458 25.5479167"></polygon>
                    </g>
                    <g id="Group-209" transform="translate(50.800797, 203.829365)">
                        <mask id="mask-120" fill="white">
                            <use xlink:href="#path-119"></use>
                        </mask>
                        <g id="Clip-208"></g>
                        <polygon id="Fill-207" fill="#02296E" mask="url(#mask-120)" points="-4.75697211 43.0347222 54.3695219 43.0347222 54.3695219 -4.65972222 -4.75697211 -4.65972222"></polygon>
                    </g>
                    <g id="Group-212" transform="translate(45.820717, 205.813492)">
                        <mask id="mask-122" fill="white">
                            <use xlink:href="#path-121"></use>
                        </mask>
                        <g id="Clip-211"></g>
                        <polygon id="Fill-210" fill="#02296E" mask="url(#mask-122)" points="-4.61653386 43.4603175 58.5438247 43.4603175 58.5438247 -4.23412698 -4.61653386 -4.23412698"></polygon>
                    </g>
                    <path d="M70.7896414,203.901885 L72.5575697,203.633036 C74.074502,203.403869 75.6233068,203.509028 77.0944223,203.940575 L81.3354582,205.183631 C81.5157371,205.23621 81.6183267,205.42371 81.5645418,205.603274 C81.5625498,205.610218 81.5605578,205.616171 81.5595618,205.622123 C81.4858566,205.823512 81.2906375,205.95248 81.076494,205.94256 L76.4061753,205.711409 L76.2856574,205.779861 C74.7577689,206.63006 72.9739044,206.902877 71.261753,206.54871 L70.0436255,206.295734 L70.7896414,203.901885 Z" id="Fill-213" fill="#E1A478"></path>
                    <g id="Group-217" transform="translate(35.860558, 175.059524)">
                        <mask id="mask-124" fill="white">
                            <use xlink:href="#path-123"></use>
                        </mask>
                        <g id="Clip-216"></g>
                        <polygon id="Fill-215" fill="url(#linearGradient-125)" mask="url(#mask-124)" points="1241.27888 -791.809524 -176.699203 -577.14881 -42.001992 305.570437 1375.97709 90.9107143"></polygon>
                    </g>
                    <g id="Group-220" transform="translate(35.860558, 175.059524)">
                        <mask id="mask-127" fill="white">
                            <use xlink:href="#path-126"></use>
                        </mask>
                        <g id="Clip-219"></g>
                        <path d="M4.42828685,0.510912698 L3.29183267,0.968253968 C1.11055777,1.8452381 0.0557768924,4.31746032 0.93625498,6.4890873 L0.93625498,6.4890873 C0.990039841,6.62103175 1.04880478,6.75 1.11653386,6.87599206 L1.11653386,6.87599206 L11.4511952,26.4573413 L34.125498,31.640873 L35.1643426,28.1279762 L25.5288845,24.327381 C23.6394422,23.2906746 21.9531873,22.4811508 20.4721116,21.8948413 L20.4721116,21.8948413 C18.9920319,21.3115079 17.3794821,20.8204365 15.6394422,20.421627 L15.6394422,20.421627 L13.4462151,11.6378968 C12.7071713,8.67261905 11.5438247,5.82837302 9.99501992,3.19047619 L9.99501992,3.19047619 L9.41932271,2.2093254 C8.67729084,0.944444444 7.33366534,0.219246032 5.93625498,0.219246032 L5.93625498,0.219246032 C5.4312749,0.219246032 4.92031873,0.313492063 4.42828685,0.510912698" id="Fill-218" fill="url(#linearGradient-128)" mask="url(#mask-127)"></path>
                    </g>
                    <g id="Group-223" transform="translate(32.872510, 173.075397)">
                        <mask id="mask-130" fill="white">
                            <use xlink:href="#path-129"></use>
                        </mask>
                        <g id="Clip-222"></g>
                        <polygon id="Fill-221" fill="url(#linearGradient-131)" mask="url(#mask-130)" points="1157.75996 -909.571429 -231.898406 -556.075397 -10.0836653 309.014881 1379.5757 -44.4811508"></polygon>
                    </g>
                    <g id="Group-226" transform="translate(32.872510, 173.075397)">
                        <mask id="mask-133" fill="white">
                            <use xlink:href="#path-132"></use>
                        </mask>
                        <g id="Clip-225"></g>
                        <path d="M4.00498008,1.38392857 L2.36653386,3.20138889 C0.748007968,4.99900794 0.137450199,7.48115079 0.737051793,9.82043651 L0.737051793,9.82043651 L1.94621514,14.5386905 L13.311753,37.8611111 C18.8217131,36.7390873 22.7579681,35.2440476 24.7729084,33.9970238 L24.7729084,33.9970238 C26.7878486,32.75 30.0258964,32.6130952 31.5896414,31.0535714 L31.5896414,31.0535714 L18.4940239,8.54166667 C17.8914343,7.45238095 17.186255,6.41964286 16.3904382,5.46031746 L16.3904382,5.46031746 L11.8884462,0.0277777778 L4.00498008,1.38392857 Z" id="Fill-224" fill="url(#linearGradient-134)" mask="url(#mask-133)"></path>
                    </g>
                    <g id="Group-231" transform="translate(36.856574, 157.202381)">
                        <path d="M0.87001992,15.5628968 L1.02739044,12.7900794 C1.92579681,10.2404762 2.39492032,8.58670635 2.43874502,7.82876984 C2.50348606,6.69384921 3.40488048,4.09960317 4.53237052,4.13333333 C5.65886454,4.16706349 7.3002988,2.94285714 9.33316733,5.68492063 C10.688745,7.51230159 11.5881474,9.90714286 12.0293825,12.8694444 L11.7724104,14.7444444 C10.8082669,15.0827381 9.98456175,15.580754 9.30428287,16.2384921 C8.62400398,16.8962302 8.29731076,17.4517857 8.32619522,17.9061508 L6.76145418,17.6958333 L4.98456175,17.7186508 L0.667828685,16.7404762 L0.87001992,15.5628968 Z" id="Fill-227" fill="#E1A478"></path>
                        <path d="M11.5198207,0.828174603 C12.5257968,1.73690476 13.1363546,2.41448413 13.3544821,2.85992063 C13.5716135,3.30535714 13.6443227,4.15257937 13.5736056,5.39960317 C14.6682271,7.14861111 15.2967131,8.20615079 15.4580677,8.5702381 C15.7010956,9.11686508 15.5706175,9.57222222 15.1253984,9.62281746 C14.8285857,9.65555556 14.5457171,9.66448413 14.2777888,9.65059524 L14.1184263,12.4561508 C14.5198207,13.1714286 14.6572709,13.7498016 14.534761,14.1902778 C14.412251,14.6297619 13.7907371,14.8549603 12.6722112,14.8628968 L7.40926295,14.4303571 C6.225,14.1059524 5.62141434,13.2875 5.59950199,11.9759921 C5.57758964,10.6644841 5.59950199,9.42936508 5.66523904,8.26964286 C5.38635458,7.78253968 4.68914343,7.51468254 3.57460159,7.46607143 C2.46105578,7.41845238 1.74890438,6.21011905 1.44013944,3.84206349 C1.50986056,1.65357143 2.35547809,0.507738095 3.97599602,0.403571429 C5.59651394,0.300396825 8.11145418,0.441269841 11.5198207,0.828174603" id="Fill-229" fill="#F9C195"></path>
                    </g>
                    <g id="Group-234" transform="translate(35.860558, 154.226190)">
                        <mask id="mask-136" fill="white">
                            <use xlink:href="#path-135"></use>
                        </mask>
                        <g id="Clip-233"></g>
                        <polygon id="Fill-232" fill="#02296E" mask="url(#mask-136)" points="-3.74432271 -5.8953373 20.9419323 -4.50545635 19.4469124 21.8298611 -5.23934263 20.4399802"></polygon>
                    </g>
                    <path d="M71.1534861,205.90248 L72.9214143,205.634623 C74.4383466,205.405456 75.9871514,205.509623 77.4582669,205.941171 L81.6993028,207.184226 C81.8795817,207.237798 81.9821713,207.425298 81.9283865,207.604861 C81.9263944,207.611806 81.9244024,207.617758 81.9234064,207.62371 C81.8497012,207.824107 81.6544821,207.954067 81.4403386,207.944147 L76.7700199,207.712996 L76.649502,207.780456 C75.1216135,208.631647 73.337749,208.904464 71.6246016,208.549306 L70.4074701,208.297321 L71.1534861,205.90248 Z" id="Fill-235" fill="#FFC294"></path>
                    <g id="Group-239" transform="translate(35.860558, 177.043651)">
                        <mask id="mask-138" fill="white">
                            <use xlink:href="#path-137"></use>
                        </mask>
                        <g id="Clip-238"></g>
                        <polygon id="Fill-237" fill="url(#linearGradient-139)" mask="url(#mask-138)" points="1154.98307 -913.438492 -234.677291 -559.94246 -12.8615538 305.147817 1376.79781 -48.3482143"></polygon>
                    </g>
                    <g id="Group-242" transform="translate(35.860558, 177.043651)">
                        <mask id="mask-141" fill="white">
                            <use xlink:href="#path-140"></use>
                        </mask>
                        <g id="Clip-241"></g>
                        <path d="M4.79183267,0.910714286 L3.65537849,1.36706349 C1.47410359,2.24404762 0.419322709,4.71626984 1.2998008,6.88888889 L1.2998008,6.88888889 C1.35358566,7.02083333 1.41334661,7.14980159 1.48007968,7.27579365 L1.48007968,7.27579365 L11.814741,26.8561508 L34.4900398,32.0396825 L35.5288845,28.5277778 L25.8934263,24.7261905 C24.002988,23.6894841 22.3177291,22.8799603 20.8366534,22.2936508 L20.8366534,22.2936508 C19.3555777,21.7103175 17.7440239,21.219246 16.002988,20.8204365 L16.002988,20.8204365 L13.810757,12.0376984 C13.0697211,9.07142857 11.9083665,6.2281746 10.3595618,3.58928571 L10.3595618,3.58928571 L9.78386454,2.60912698 C9.04183267,1.34424603 7.69721116,0.618055556 6.2998008,0.618055556 L6.2998008,0.618055556 C5.79581673,0.618055556 5.28486056,0.712301587 4.79183267,0.910714286" id="Fill-240" fill="url(#linearGradient-142)" mask="url(#mask-141)"></path>
                    </g>
                    <g id="Group-245" transform="translate(45.820717, 174.067460)">
                        <mask id="mask-144" fill="white">
                            <use xlink:href="#path-143"></use>
                        </mask>
                        <g id="Clip-244"></g>
                        <polygon id="Fill-243" fill="#E20707" mask="url(#mask-144)" points="11.2708167 -6.99305556 -5.84770916 -2.63888889 2.36842629 29.4117063 19.4889442 25.0575397"></polygon>
                    </g>
                    <g id="Group-248" transform="translate(43.828685, 172.083333)">
                        <mask id="mask-146" fill="white">
                            <use xlink:href="#path-145"></use>
                        </mask>
                        <g id="Clip-247"></g>
                        <polygon id="Fill-246" fill="#F40100" mask="url(#mask-146)" points="6.33256972 -5.64632937 -5.48316733 -2.64136905 -2.36563745 9.51537698 9.4500996 6.5094246"></polygon>
                    </g>
                    <g id="Group-251" transform="translate(35.860558, 172.083333)">
                        <mask id="mask-148" fill="white">
                            <use xlink:href="#path-147"></use>
                        </mask>
                        <g id="Clip-250"></g>
                        <polygon id="Fill-249" fill="#0896FB" mask="url(#mask-148)" points="12.6510956 -7.20902778 -5.82300797 -2.50962302 -2.22838645 11.5072421 16.2447211 6.8078373"></polygon>
                    </g>
                    <g id="Group-262" transform="translate(6.976096, 67.916667)">
                        <polygon id="Fill-252" fill="#F0F0F0" points="0.554780876 177.58631 112.469124 177.58631 112.469124 153.827381 0.554780876 153.827381"></polygon>
                        <path d="M91.5405378,121.501488 C91.5405378,121.501488 91.5405378,90.7782738 63.4309761,91.3040675" id="Stroke-254" stroke="#F16443" stroke-width="5"></path>
                        <polygon id="Fill-255" fill="#F16443" points="64.0353586 85.9083333 64.0493028 96.902381 55.1558765 91.075"></polygon>
                        <path d="M91.3800797,134.04375 L91.4836653,126.016964" id="Stroke-256" stroke="#F16443" stroke-width="5"></path>
                        <path d="M91.2672311,142.867659 L91.3319721,137.80119" id="Stroke-257" stroke="#F16443" stroke-width="5"></path>
                        <path d="M25.6206175,36.4901786 C25.6206175,36.4901786 25.8925299,11.4683532 47.7650398,4.82847222" id="Stroke-258" stroke="#F16443" stroke-width="5"></path>
                        <polygon id="Fill-259" fill="#F16443" points="44.1481076 0.651884921 46.3931275 11.4177579 53.9010956 3.89990079"></polygon>
                        <path d="M25.7801793,49.0334325 L25.6775896,41.0056548" id="Stroke-260" stroke="#F16443" stroke-width="5"></path>
                        <path d="M25.8930279,57.8563492 L25.8292829,52.790873" id="Stroke-261" stroke="#F16443" stroke-width="5"></path>
                    </g>
                </g>
            </g>
        </g>
    </g>
</svg>