<?xml version="1.0" encoding="UTF-8"?>
<svg width="130px" height="130px" viewBox="0 0 130 130" version="1.1" xmlns="http://www.w3.org/2000/svg" xmlns:xlink="http://www.w3.org/1999/xlink">
    <!-- Generator: Sketch 54.1 (76490) - https://sketchapp.com -->
    <title>Group</title>
    <desc>Created with Sketch.</desc>
    <g id="Page-1" stroke="none" stroke-width="1" fill="none" fill-rule="evenodd">
        <g id="Group-5" transform="translate(-965.000000, -263.000000)" fill-rule="nonzero">
            <g id="Group-2-Copy" transform="translate(732.000000, 210.000000)">
                <g id="Group" transform="translate(233.000000, 53.000000)">
                    <circle id="Oval" fill="#182D57" cx="65" cy="65" r="65"></circle>
                    <g id="noun_Earphones_955973" transform="translate(39.000000, 29.000000)" fill="#FFFFFF">
                        <path d="M7.8514655,5.2776912 C7.8514655,4.86347763 8.18725193,4.5276912 8.6014655,4.5276912 L24.5608047,4.5276912 C24.9750183,4.5276912 25.3108047,4.86347763 25.3108047,5.2776912 L25.3108047,26.8386227 C25.3108047,27.2528362 24.9750183,27.5886227 24.5608047,27.5886227 L8.6014655,27.5886227 C8.18725193,27.5886227 7.8514655,27.2528362 7.8514655,26.8386227 L7.8514655,5.2776912 Z M9.3514655,26.0886227 L23.8108047,26.0886227 L23.8108047,6.0276912 L9.3514655,6.0276912 L9.3514655,26.0886227 Z" id="Rectangle"></path>
                        <path d="M34.6334651,4.52697249 L29.0352269,4.52697249 C27.7412415,4.52697249 26.685388,5.5824989 26.685388,6.87657181 L26.685388,25.2387838 C26.685388,26.5328567 27.7412415,27.5883831 29.0352269,27.5883831 L34.6334651,27.5883831 C40.5460169,27.5883831 45.3804219,22.7539781 45.3804219,16.8414264 L45.3804219,15.2739292 C45.3804219,9.36137748 40.5460169,4.52697249 34.6334651,4.52697249 Z M34.6334651,6.02697249 C39.7175897,6.02697249 43.8804219,10.1898046 43.8804219,15.2739292 L43.8804219,16.8414264 C43.8804219,21.925551 39.7175897,26.0883831 34.6334651,26.0883831 L29.0352269,26.0883831 C28.5695646,26.0883831 28.185388,25.7043255 28.185388,25.2387838 L28.185388,6.87657181 C28.185388,6.41103008 28.5695646,6.02697249 29.0352269,6.02697249 L34.6334651,6.02697249 Z" id="Path"></path>
                        <path d="M1.25059601,8.27679932 L1.2100565,8.27622056 C0.795842935,8.27622056 0.460056497,8.612007 0.460056497,9.02622056 L0.460056497,21.6840654 C0.460056497,22.1029353 0.803142569,22.4406188 1.22195976,22.4339709 L1.24975023,22.4333091 C1.25540501,22.4331548 1.25661436,22.4331257 1.2572871,22.4331074 C4.94468784,22.434004 7.85170506,24.4744838 7.85170506,26.8386227 L9.35170506,26.8386227 L9.35170506,5.2776912 C9.35170506,4.86347763 9.01591863,4.5276912 8.60170506,4.5276912 L8.32260768,4.5276912 C8.01672705,4.5276912 7.74149512,4.71344733 7.62706579,4.99711772 C6.86617108,6.88337633 4.28174075,8.2763429 1.25679857,8.27693908 C1.25594591,8.27691688 1.25398443,8.27687378 1.25059601,8.27679932 Z M7.85170506,7.30976338 L7.85170506,23.3967874 C6.50560973,22.0245207 4.37419881,21.1059054 1.9600565,20.9550491 L1.9600565,9.75490228 C4.35300558,9.60480885 6.49577809,8.69705138 7.85170506,7.30976338 Z M8.32260768,5.2776912 L8.32260768,6.0276912 L8.60170506,6.0276912 L8.60170506,5.39027582 L8.32260768,5.2776912 Z M7.85170506,26.8386227 C7.85170506,27.8386227 9.35170506,27.8386227 9.35170506,26.8386227 C9.35170506,25.5408253 8.794201,24.3576077 7.85170506,23.3967874 L7.85170506,26.8386227 Z" id="Path"></path>
                        <path d="M4.35574217,42.0618569 L4.35574217,22.1629629 C4.35574217,21.7487494 4.01995573,21.4129629 3.60574217,21.4129629 C3.19152861,21.4129629 2.85574217,21.7487494 2.85574217,22.1629629 L2.85574217,42.8118569 C2.85574217,43.2260704 3.19152861,43.5618569 3.60574217,43.5618569 L8.6014655,43.5618569 C9.01567906,43.5618569 9.3514655,43.2260704 9.3514655,42.8118569 L9.3514655,25.7976972 C9.3514655,25.3834837 9.01567906,25.0476972 8.6014655,25.0476972 C8.18725193,25.0476972 7.8514655,25.3834837 7.8514655,25.7976972 L7.8514655,42.0618569 L4.35574217,42.0618569 Z" id="Path"></path>
                        <path d="M19.5903253,21.3218377 L19.5903253,23.6619435 C19.5903253,24.076157 19.9261117,24.4119435 20.3403253,24.4119435 C20.7545388,24.4119435 21.0903253,24.076157 21.0903253,23.6619435 L21.0903253,21.3218377 C21.0903253,20.9076241 20.7545388,20.5718377 20.3403253,20.5718377 C19.9261117,20.5718377 19.5903253,20.9076241 19.5903253,21.3218377 Z" id="Path"></path>
                        <path d="M19.5903253,5.27697249 L19.5903253,17.4777205 C19.5903253,17.891934 19.9261117,18.2277205 20.3403253,18.2277205 C20.7545388,18.2277205 21.0903253,17.891934 21.0903253,17.4777205 L21.0903253,5.27697249 C21.0903253,4.86275893 20.7545388,4.52697249 20.3403253,4.52697249 C19.9261117,4.52697249 19.5903253,4.86275893 19.5903253,5.27697249 Z" id="Path"></path>
                        <path d="M38.0654977,52.7136161 C42.4452186,50.9701049 45.3804219,46.7233908 45.3804219,41.9309632 C45.3804219,35.5225046 40.1861849,30.3282676 33.7777262,30.3282676 C27.3715077,30.3282676 22.1779054,35.5228997 22.1779054,41.9309632 C22.1779054,46.724374 25.1136829,50.9728887 29.492928,52.7137505 C29.8778432,52.8667642 30.3139206,52.6787708 30.4669343,52.2938556 C30.6199479,51.9089404 30.4319545,51.4728629 30.0470393,51.3198493 C26.2342421,49.804165 23.6779054,46.1047586 23.6779054,41.9309632 C23.6779054,36.3512602 28.2000014,31.8282676 33.7777262,31.8282676 C39.3577578,31.8282676 43.8804219,36.3509317 43.8804219,41.9309632 C43.8804219,46.1038284 41.3245263,49.8017522 37.5107104,51.3199838 C37.1258694,51.473184 36.9380876,51.9093526 37.0912879,52.2941936 C37.2444881,52.6790345 37.6806567,52.8668164 38.0654977,52.7136161 Z" id="Path"></path>
                        <path d="M33.778924,49.0463001 C37.7088807,49.0463001 40.89474,45.8604407 40.89474,41.9304841 C40.89474,38.0005275 37.7088807,34.8146681 33.778924,34.8146681 C29.8489674,34.8146681 26.6631081,38.0005275 26.6631081,41.9304841 C26.6631081,45.8604407 29.8489674,49.0463001 33.778924,49.0463001 Z M33.778924,47.5463001 C30.6773945,47.5463001 28.1631081,45.0320136 28.1631081,41.9304841 C28.1631081,38.8289546 30.6773945,36.3146681 33.778924,36.3146681 C36.8804536,36.3146681 39.39474,38.8289546 39.39474,41.9304841 C39.39474,45.0320136 36.8804536,47.5463001 33.778924,47.5463001 Z" id="Oval"></path>
                        <path d="M36.0026984,67.828175 L31.5551497,67.828175 L30.1782217,46.772652 C30.1916251,46.7165391 30.1987222,46.6579778 30.1987222,46.5977589 C30.1987222,46.1835454 29.8629358,45.8477589 29.4487222,45.8477589 L29.4151826,45.8477589 C28.9817105,45.8477589 28.6384946,46.2141526 28.6667812,46.6467007 L30.1041926,68.6271167 C30.1299825,69.0214882 30.4573802,69.328175 30.852594,69.328175 L36.7052541,69.328175 C37.1004679,69.328175 37.4278656,69.0214882 37.4536555,68.6271167 L38.8910669,46.6467007 C38.9193535,46.2141526 38.5761375,45.8477589 38.1426655,45.8477589 L38.1067302,45.8477589 C37.6925166,45.8477589 37.3567302,46.1835454 37.3567302,46.5977589 C37.3567302,46.6607487 37.3644954,46.7219248 37.3791208,46.7803822 L36.0026984,67.828175 Z" id="Path"></path>
                        <path d="M5.35372362,42.8116173 L5.35372362,78.2852537 C5.35372362,78.6994673 5.68951005,79.0352537 6.10372362,79.0352537 C6.51793718,79.0352537 6.85372362,78.6994673 6.85372362,78.2852537 L6.85372362,42.8116173 C6.85372362,42.3974037 6.51793718,42.0616173 6.10372362,42.0616173 C5.68951005,42.0616173 5.35372362,42.3974037 5.35372362,42.8116173 Z" id="Path"></path>
                        <path d="M33.028924,69.4595477 L33.028924,78.2852537 C33.028924,78.6994673 33.3647105,79.0352537 33.778924,79.0352537 C34.1931376,79.0352537 34.528924,78.6994673 34.528924,78.2852537 L34.528924,69.4595477 C34.528924,69.0453342 34.1931376,68.7095477 33.778924,68.7095477 C33.3647105,68.7095477 33.028924,69.0453342 33.028924,69.4595477 Z" id="Path"></path>
                        <path d="M48.7991818,24.9815664 C51.4479288,23.587446 53.1927528,20.0417111 53.1927528,16.0577976 C53.1927528,12.0743999 51.4477943,8.52831792 48.7991818,7.1342683 C48.4326391,6.94134515 47.9791024,7.08209158 47.7861793,7.44863426 C47.5932561,7.81517693 47.7340026,8.2687136 48.1005453,8.46163675 C50.2067581,9.57020404 51.6927528,12.5900232 51.6927528,16.0577976 C51.6927528,19.5260848 50.2068978,22.5455572 48.1005453,23.654198 C47.7340026,23.8471211 47.5932561,24.3006578 47.7861793,24.6672005 C47.9791024,25.0337431 48.4326391,25.1744896 48.7991818,24.9815664 Z" id="Path"></path>
                        <path d="M52.0321531,28.455314 C55.6808273,26.5349453 58.1051063,21.6085484 58.1051063,16.0577976 C58.1051063,10.50725 55.6808034,5.58087681 52.0321531,3.66052068 C51.6656086,3.46760109 51.2120733,3.60835194 51.0191537,3.97489649 C50.8262341,4.34144105 50.966985,4.79497634 51.3335295,4.98789592 C54.439783,6.622778 56.6051063,11.0228844 56.6051063,16.0577976 C56.6051063,21.0929162 54.4398032,25.4930461 51.3335295,27.1279388 C50.966985,27.3208584 50.8262341,27.7743937 51.0191537,28.1409382 C51.2120733,28.5074828 51.6656086,28.6482336 52.0321531,28.455314 Z" id="Path"></path>
                        <path d="M55.4457355,31.5697213 C59.991008,29.177719 63.0241677,23.0137102 63.0241677,16.0577976 C63.0241677,9.1020884 59.9909845,2.9381034 55.4457355,0.546113435 C55.0791822,0.353210505 54.6256533,0.493981958 54.4327504,0.860535276 C54.2398474,1.22708859 54.3806189,1.68061749 54.7471722,1.87352042 C58.7499619,3.98003489 61.5241677,9.61773031 61.5241677,16.0577976 C61.5241677,22.49807 58.7499825,28.135789 54.7471722,30.2423143 C54.3806189,30.4352172 54.2398474,30.8887461 54.4327504,31.2552994 C54.6256533,31.6218528 55.0791822,31.7626242 55.4457355,31.5697213 Z" id="Path"></path>
                    </g>
                </g>
            </g>
        </g>
    </g>
</svg>