<?xml version="1.0" encoding="UTF-8"?>
<svg width="48px" height="48px" viewBox="0 0 48 48" version="1.1" xmlns="http://www.w3.org/2000/svg" xmlns:xlink="http://www.w3.org/1999/xlink">
    <!-- Generator: sketchtool 49 (51002) - http://www.bohemiancoding.com/sketch -->
    <title>E136C56A-8246-46C0-94F8-797F75978CB6</title>
    <desc>Created with sketchtool.</desc>
    <defs></defs>
    <g id="Page-1" stroke="none" stroke-width="1" fill="none" fill-rule="evenodd">
        <g id="01improvementCornerUiBlog" transform="translate(-1060.000000, -602.000000)" fill-rule="nonzero">
            <g id="Group-32" transform="translate(1044.000000, 541.000000)">
                <g id="browser" transform="translate(16.000000, 61.000000)">
                    <path d="M46.9999688,9 L46.9999688,43.0000312 C46.9999688,45.2091562 45.2090625,47.0000625 42.9999375,47.0000625 L4.99996875,47.0000625 C2.79084375,47.0000625 0.9999375,45.2091562 0.9999375,43.0000312 L0.9999375,9 L46.9999688,9 Z" id="Shape" fill="#FFFFFF"></path>
                    <g id="Group" transform="translate(0.937500, 0.937500)" fill="#87D2F3">
                        <path d="M46.0624688,4.06246875 L46.0624688,8.0625 L0.06253125,8.0625 L0.06253125,4.06246875 C0.06253125,1.85334375 1.8534375,0.0624375 4.0625625,0.0624375 L42.0625312,0.0624375 C44.2716562,0.06253125 46.0624688,1.85334375 46.0624688,4.06246875 Z" id="Shape"></path>
                        <path d="M39.0625312,15.0625312 L39.0625312,19.0625625 C39.0625312,19.6148437 38.6147812,20.0625937 38.0625,20.0625937 L8.0625,20.0625937 C7.51021875,20.0625937 7.06246875,19.6148437 7.06246875,19.0625625 L7.06246875,15.0625312 C7.06246875,14.51025 7.51021875,14.0625 8.0625,14.0625 L38.0625,14.0625 C38.6147812,14.0625 39.0625312,14.51025 39.0625312,15.0625312 Z" id="Shape"></path>
                    </g>
                    <g id="Group" transform="translate(21.937500, 27.937500)" fill="#FFFFFF">
                        <path d="M16.0624688,4.06246875 L16.0624688,11.0625 C16.0591875,12.16575 15.1656563,13.0591875 14.0625,13.0624687 L2.0625,13.0624687 C0.95934375,13.0591875 0.0658125,12.1656562 0.06253125,11.0625 L0.06253125,4.06246875 L16.0624688,4.06246875 Z" id="Shape"></path>
                        <polygon id="Shape" points="16.0624688 0.06253125 16.0624688 4.0625625 0.06253125 4.0625625 0.06253125 0.06253125 3.06253125 0.06253125 13.0625625 0.06253125 16.0624688 0.06253125"></polygon>
                    </g>
                    <path d="M25.0000312,25.9999688 L25.0000312,27.9999375 L22.0000312,27.9999375 L22.0000312,31.9999688 L9,31.9999688 C8.44771875,31.9999688 7.99996875,31.5522188 7.99996875,30.9999375 L7.99996875,27 C7.99996875,26.4477188 8.44771875,25.9999688 9,25.9999688 L25.0000312,25.9999688 Z" id="Shape" fill="#87D2F3"></path>
                    <g id="Group" fill="#2170A6">
                        <path d="M43.0000312,0 L4.99996875,0 C2.23996875,0.00328125 0.00328125,2.23996875 0,4.99996875 L0,42.9999375 C0.00328125,45.7600313 2.23996875,47.9967187 4.99996875,48 L42.9999375,48 C45.7600313,47.9967187 47.996625,45.7600312 47.9999063,43.0000313 L47.9999063,4.99996875 C47.9967187,2.23996875 45.7600313,0.00328125 43.0000312,0 Z M46.0000312,43.0000312 C46.0000312,44.656875 44.656875,46.0000312 43.0000312,46.0000312 L4.99996875,46.0000312 C3.343125,46.0000312 1.99996875,44.656875 1.99996875,43.0000312 L1.99996875,4.99996875 C1.99996875,3.343125 3.343125,1.99996875 4.99996875,1.99996875 L42.9999375,1.99996875 C44.6567813,1.99996875 45.9999375,3.343125 45.9999375,4.99996875 L45.9999375,43.0000312 L46.0000312,43.0000312 Z" id="Shape"></path>
                        <polygon id="Shape" points="4.00003125 7.99996875 44.0000625 7.99996875 44.0000625 9.9999375 4.00003125 9.9999375"></polygon>
                        <polygon id="Shape" points="4.99996875 4.00003125 6.9999375 4.00003125 6.9999375 6 4.99996875 6"></polygon>
                        <polygon id="Shape" points="9 4.00003125 10.9999688 4.00003125 10.9999688 6 9 6"></polygon>
                        <polygon id="Shape" points="40.9999687 4.00003125 42.9999375 4.00003125 42.9999375 6 40.9999687 6 40.9999687 4.00003125"></polygon>
                        <path d="M39,13.9999688 L9,13.9999688 C7.8954375,13.9999688 7.00003125,14.895375 7.00003125,15.9999375 L7.00003125,19.9999688 C7.00003125,21.1045313 7.8954375,21.9999375 9,21.9999375 L22.0000313,21.9999375 L22.0000313,19.9999688 L9,19.9999688 L9,15.9999375 L39,15.9999375 L39,19.9999688 L37.9999688,19.9999688 L37.9999688,21.9999375 L39,21.9999375 C40.1045625,21.9999375 40.9999688,21.1045313 40.9999688,19.9999688 L40.9999688,15.9999375 C40.9999688,14.8954687 40.1045625,13.9999688 39,13.9999688 Z" id="Shape"></path>
                        <path d="M19.0000312,27 L19.0000312,25.0000312 L9,25.0000312 C7.8954375,25.0000312 7.00003125,25.8954375 7.00003125,27 L7.00003125,31.0000312 C7.00003125,32.1045937 7.8954375,33 9,33 L16.0000312,33 L16.0000312,31.0000312 L9,31.0000312 L9,27 L19.0000312,27 Z" id="Shape"></path>
                        <path d="M39,28.0000312 C39,27.44775 38.55225,27 37.9999687,27 L36,27 L36,22.0000312 C35.9924062,20.8986562 35.1014062,20.0076562 34.0000312,20.0000625 L26.0000625,20.0000625 C24.9046875,20.0218125 24.0218437,20.9046562 24.0000938,22.0000312 L24.0000938,27 L22.000125,27 C21.4478438,27 21.0000938,27.44775 21.0000938,28.0000312 L21.0000938,31.0000312 L19.000125,31.0000312 L19.000125,33 L21,33 L21,39 C21,40.6568438 22.3431562,42 24,42 L36,42 C37.6568437,42 39,40.6568438 39,39 L39,33 L40.9999687,33 L40.9999687,31.0000312 L39,31.0000312 L39,28.0000312 Z M25.9999687,22.089 C25.9999687,22.089 26.0229375,22.0060312 26.0079375,22.0000312 L33.9439687,22.0000312 C33.9630937,22.0074375 33.9835312,22.0105312 34.0039687,22.0090312 L34.0039687,27 L25.9999687,27 L25.9999687,22.089 Z M22.9999687,28.9999687 L36.9999375,28.9999687 L36.9999375,30.9999375 L22.9999687,30.9999375 L22.9999687,28.9999687 Z M37.0000312,39 C37.0000312,39.5522813 36.5522812,40.0000312 36,40.0000312 L24,40.0000312 C23.4477187,40.0000312 22.9999687,39.5522812 22.9999687,39 L22.9999687,33 L37.0000312,33 L36.9999375,39 L37.0000312,39 Z" id="Shape"></path>
                        <polygon id="Shape" points="28.9999688 34.9999687 30.9999375 34.9999687 30.9999375 36.9999375 28.9999688 36.9999375 28.9999688 34.9999687"></polygon>
                        <polygon id="Shape" points="7.00003125 34.9999687 9 34.9999687 9 36.9999375 7.00003125 36.9999375"></polygon>
                        <polygon id="Shape" points="10.9999688 34.9999687 12.9999375 34.9999687 12.9999375 36.9999375 10.9999688 36.9999375"></polygon>
                        <polygon id="Shape" points="7.00003125 39 17.0000625 39 17.0000625 40.9999687 7.00003125 40.9999687"></polygon>
                    </g>
                </g>
            </g>
        </g>
    </g>
</svg>