<?xml version="1.0" encoding="UTF-8"?>
<svg width="25px" height="14px" viewBox="0 0 25 14" version="1.1" xmlns="http://www.w3.org/2000/svg" xmlns:xlink="http://www.w3.org/1999/xlink">
    <!-- Generator: Sketch 52.6 (67491) - http://www.bohemiancoding.com/sketch -->
    <title>View_1229813</title>
    <desc>Created with Sketch.</desc>
    <g id="Page-1" stroke="none" stroke-width="1" fill="none" fill-rule="evenodd">
        <g id="View_1229813" fill="#0075cb" fill-rule="nonzero">
            <path d="M24.6418819,5.93931261 C23.3075525,4.56711565 18.5071831,0.0902977941 12.7755846,0.0902977941 C7.04658003,0.0902977941 2.24465427,4.56736826 0.909806062,5.93931261 L0.275584559,6.59105565 L0.909806062,7.24254607 C2.24517306,8.61449042 7.0481364,13.0902978 12.7755846,13.0902978 C18.5056267,13.0902978 23.3070337,8.61398519 24.6418819,7.24229345 L25.2755846,6.59105565 L24.6418819,5.93931261 Z M12.7754454,12.0902978 C8.1960712,12.0902978 4.13405075,8.51926493 2.27558456,6.59059948 C4.13349416,4.66163233 8.194958,1.09029779 12.7754454,1.09029779 C17.3587158,1.09029779 21.4185098,4.66223571 23.2755846,6.59059948 C21.4185098,8.51926493 17.3576026,12.0902978 12.7754454,12.0902978 Z M9.2785625,6.61815441 C9.2785625,8.39439706 10.7237574,9.83933824 12.5,9.83933824 C14.27675,9.83933824 15.7219449,8.39439706 15.7219449,6.61815441 C15.7219449,4.84140441 14.27675,3.39595588 12.5,3.39595588 C10.7237574,3.39595588 9.2785625,4.84140441 9.2785625,6.61815441 Z M14.8193713,6.61853902 C14.8193713,7.89672964 13.7784442,8.93676471 12.4998077,8.93676471 C11.2211712,8.93676471 10.181136,7.89672964 10.181136,6.61853902 C10.181136,5.33945644 11.2211712,4.29852941 12.4998077,4.29852941 C13.7784442,4.29852941 14.8193713,5.33945644 14.8193713,6.61853902 Z" id="Shape"></path>
        </g>
    </g>
</svg>