<?xml version="1.0" encoding="UTF-8"?>
<svg width="34px" height="34px" viewBox="0 0 34 34" version="1.1" xmlns="http://www.w3.org/2000/svg" xmlns:xlink="http://www.w3.org/1999/xlink">
    <!-- Generator: Sketch 54.1 (76490) - https://sketchapp.com -->
    <title>Sub-title2</title>
    <desc>Created with Sketch.</desc>
    <g id="Page-1" stroke="none" stroke-width="1" fill="none" fill-rule="evenodd">
        <g id="Start-Calibaration" transform="translate(-1081.000000, -286.000000)">
            <g id="Sub-title2" transform="translate(1081.000000, 286.000000)">
                <rect id="Rectangle" fill="#000000" opacity="0.5" x="0" y="0" width="34" height="34" rx="6"></rect>
                <g id="Sub-title-2" transform="translate(8.000000, 9.000000)" fill="#FFFFFF" fill-rule="nonzero">
                    <path d="M15.3716971,16.906838 C15.28075,16.906838 15.1902692,16.8802534 15.112148,16.8277839 L9.74976536,13.2339732 L0.46639553,13.2339732 C0.208945198,13.2339732 0,13.025028 0,12.7675776 L0,0.46639553 C0,0.208945198 0.208945198,0 0.46639553,0 L18.2864359,0 C18.5438863,0 18.7528315,0.208945198 18.7528315,0.46639553 L18.7528315,12.7675776 C18.7528315,13.025028 18.5438863,13.2339732 18.2864359,13.2339732 L15.8040457,13.2339732 L15.837393,16.3693171 C15.840891,16.3926369 15.8425234,16.4164231 15.8425234,16.4404424 C15.8425234,16.6978928 15.6335782,16.906838 15.3761278,16.906838 C15.3744955,16.9066048 15.3730963,16.906838 15.3716971,16.906838 Z M1.44968295,11.7842902 L9.8915496,11.7842902 C9.98389592,11.7842902 10.0743766,11.8118076 10.1510987,11.8633443 L14.6332698,15.0561077 L14.8663575,12.2555829 C14.8649583,12.1310553 14.9134635,12.0111916 15.0011458,11.9225765 C15.0888282,11.8341945 15.2082254,11.7842902 15.3327531,11.7842902 L17.3031485,11.7842902 L17.3031485,1.44968295 L1.44968295,1.44968295 L1.44968295,11.7842902 Z M16.343199,8.25221663 C16.343199,8.06565842 16.1342538,7.91424885 15.8768034,7.91424885 L2.87602804,7.91424885 C2.6185777,7.91424885 2.40963251,8.06565842 2.40963251,8.25221663 C2.40963251,8.43877484 2.6185777,8.5901844 2.87602804,8.5901844 L15.8768034,8.5901844 C16.1342538,8.5901844 16.343199,8.43877484 16.343199,8.25221663 Z M4.81937349,4.37031525 L6.09244433,5.68861869 C6.27128436,5.87381296 6.30751496,6.12929348 6.17331622,6.2588877 C6.03911747,6.38848192 5.78505701,6.34335725 5.60621698,6.15816298 L4.35775392,4.86534163 L3.13204385,6.17975476 C2.95646315,6.36804201 2.70322892,6.41759378 2.56678888,6.29036139 C2.43034884,6.16312899 2.46211518,5.90705508 2.63769588,5.71876782 L3.88756526,4.37844702 L2.61449442,3.06014357 C2.43565439,2.8749493 2.39930223,2.61958617 2.53362254,2.48987456 C2.66782128,2.36028034 2.92188174,2.40540501 3.10072177,2.59059929 L4.34918483,3.88342063 L5.5748949,2.5690075 C5.7504756,2.38072025 6.00370983,2.33116848 6.14014987,2.45840087 C6.2767135,2.58574852 6.24482357,2.84170719 6.06924287,3.02999444 L4.81937349,4.37031525 Z M11.0288551,10.1198333 C11.0288551,10.3065605 10.8199099,10.4578011 10.5624596,10.4578011 L2.87602804,10.4578011 C2.6185777,10.4578011 2.40963251,10.3063915 2.40963251,10.1198333 C2.40963251,9.9332751 2.6185777,9.78186554 2.87602804,9.78186554 L10.5624596,9.78186554 C10.8199099,9.78186554 11.0288551,9.9332751 11.0288551,10.1198333 Z" id="Shape"></path>
                </g>
            </g>
        </g>
    </g>
</svg>