<svg xmlns="http://www.w3.org/2000/svg" xmlns:xlink="http://www.w3.org/1999/xlink" width="280" height="150.95" viewBox="0 0 280 150.95">
  <defs>
    <style>
      .cls-1 {
        fill: url(#linear-gradient);
      }

      .cls-2 {
        fill: url(#linear-gradient-2);
      }

      .cls-3 {
        fill: url(#radial-gradient);
      }

      .cls-4 {
        fill: url(#radial-gradient-2);
      }

      .cls-5 {
        fill: url(#linear-gradient-3);
      }

      .cls-6 {
        fill: url(#linear-gradient-4);
      }

      .cls-7 {
        fill: url(#linear-gradient-5);
      }

      .cls-8 {
        fill: url(#linear-gradient-6);
      }

      .cls-9 {
        fill: url(#radial-gradient-3);
      }

      .cls-10 {
        fill: url(#linear-gradient-7);
      }

      .cls-11 {
        fill: url(#linear-gradient-8);
      }

      .cls-12 {
        fill: url(#linear-gradient-9);
      }

      .cls-13 {
        fill: url(#linear-gradient-10);
      }

      .cls-14 {
        fill: url(#linear-gradient-11);
      }

      .cls-15 {
        fill: url(#linear-gradient-12);
      }

      .cls-16 {
        fill: url(#linear-gradient-13);
      }

      .cls-17 {
        fill: url(#linear-gradient-14);
      }

      .cls-18 {
        fill: url(#linear-gradient-15);
      }

      .cls-19 {
        fill: url(#linear-gradient-16);
      }

      .cls-20 {
        fill: url(#linear-gradient-17);
      }

      .cls-21 {
        fill: url(#linear-gradient-18);
      }

      .cls-22 {
        fill: url(#linear-gradient-19);
      }

      .cls-23 {
        fill: url(#linear-gradient-20);
      }

      .cls-24 {
        fill: url(#linear-gradient-21);
      }

      .cls-25 {
        fill: url(#linear-gradient-22);
      }

      .cls-26 {
        fill: url(#linear-gradient-23);
      }

      .cls-27 {
        fill: url(#linear-gradient-24);
      }

      .cls-28 {
        fill: url(#linear-gradient-25);
      }

      .cls-29 {
        fill: url(#linear-gradient-26);
      }

      .cls-30 {
        fill: url(#linear-gradient-27);
      }

      .cls-31 {
        fill: url(#linear-gradient-28);
      }

      .cls-32 {
        fill: url(#linear-gradient-29);
      }

      .cls-33 {
        fill: url(#linear-gradient-30);
      }

      .cls-34 {
        fill: url(#linear-gradient-31);
      }

      .cls-35 {
        fill: url(#linear-gradient-32);
      }

      .cls-36 {
        fill: url(#linear-gradient-33);
      }

      .cls-37 {
        fill: url(#linear-gradient-34);
      }

      .cls-38 {
        fill: url(#linear-gradient-35);
      }

      .cls-39 {
        fill: url(#linear-gradient-36);
      }

      .cls-40 {
        fill: url(#linear-gradient-37);
      }

      .cls-41 {
        fill: url(#linear-gradient-38);
      }

      .cls-42 {
        fill: url(#linear-gradient-39);
      }

      .cls-43 {
        fill: url(#linear-gradient-40);
      }

      .cls-44 {
        fill: url(#linear-gradient-41);
      }

      .cls-45 {
        fill: url(#linear-gradient-42);
      }

      .cls-46 {
        fill: url(#linear-gradient-43);
      }

      .cls-47 {
        fill: url(#radial-gradient-4);
      }

      .cls-48 {
        fill: url(#radial-gradient-5);
      }

      .cls-49 {
        fill: url(#radial-gradient-6);
      }

      .cls-50 {
        fill: url(#radial-gradient-7);
      }

      .cls-51 {
        fill: url(#radial-gradient-8);
      }

      .cls-52 {
        fill: url(#radial-gradient-9);
      }

      .cls-53 {
        fill: url(#radial-gradient-10);
      }

      .cls-54 {
        fill: url(#radial-gradient-11);
      }

      .cls-55 {
        fill: url(#radial-gradient-12);
      }

      .cls-56 {
        fill: url(#radial-gradient-13);
      }

      .cls-57 {
        fill: url(#radial-gradient-14);
      }

      .cls-58 {
        fill: url(#radial-gradient-15);
      }

      .cls-59 {
        fill: url(#radial-gradient-16);
      }

      .cls-60 {
        fill: url(#radial-gradient-17);
      }

      .cls-61 {
        fill: url(#radial-gradient-18);
      }

      .cls-62 {
        fill: url(#radial-gradient-19);
      }

      .cls-63 {
        fill: url(#radial-gradient-20);
      }

      .cls-64 {
        fill: url(#radial-gradient-21);
      }

      .cls-65 {
        fill: url(#radial-gradient-22);
      }

      .cls-66 {
        fill: url(#radial-gradient-23);
      }

      .cls-67 {
        fill: url(#radial-gradient-24);
      }

      .cls-68 {
        fill: url(#radial-gradient-25);
      }

      .cls-69 {
        fill: url(#radial-gradient-26);
      }

      .cls-70 {
        fill: url(#radial-gradient-27);
      }

      .cls-71 {
        fill: url(#radial-gradient-28);
      }

      .cls-72 {
        fill: url(#radial-gradient-29);
      }

      .cls-73 {
        fill: url(#linear-gradient-44);
      }

      .cls-74 {
        fill: url(#linear-gradient-45);
      }

      .cls-75 {
        fill: url(#linear-gradient-46);
      }

      .cls-76 {
        fill: url(#linear-gradient-47);
      }

      .cls-77 {
        fill: url(#linear-gradient-48);
      }

      .cls-78 {
        fill: url(#linear-gradient-49);
      }

      .cls-79 {
        fill: url(#linear-gradient-50);
      }

      .cls-80 {
        fill: url(#linear-gradient-51);
      }

      .cls-81 {
        fill: url(#linear-gradient-52);
      }

      .cls-82 {
        fill: url(#linear-gradient-53);
      }

      .cls-83 {
        fill: url(#linear-gradient-54);
      }

      .cls-84 {
        fill: url(#linear-gradient-55);
      }

      .cls-85 {
        fill: url(#linear-gradient-56);
      }
    </style>
    <linearGradient id="linear-gradient" x1="-9.636" y1="-0.561" x2="11.414" y2="1.657" gradientUnits="objectBoundingBox">
      <stop offset="0" stop-color="#009e54"/>
      <stop offset="0.2" stop-color="#fde92b"/>
      <stop offset="0.4" stop-color="#eb2d2e"/>
      <stop offset="0.6" stop-color="#e91388"/>
      <stop offset="0.8" stop-color="#333391"/>
      <stop offset="1" stop-color="#00a8de"/>
    </linearGradient>
    <linearGradient id="linear-gradient-2" x1="-3.994" y1="-0.561" x2="11.866" y2="3.129" xlink:href="#linear-gradient"/>
    <radialGradient id="radial-gradient" cx="2.861" cy="-0.369" r="3.177" gradientTransform="matrix(-2.001, -0.488, -1.118, 0.873, -846.818, -135.869)" xlink:href="#linear-gradient"/>
    <radialGradient id="radial-gradient-2" cx="1.537" cy="0.111" r="3.011" gradientTransform="translate(-0.664) scale(1.44 1)" gradientUnits="objectBoundingBox">
      <stop offset="0" stop-color="#00a8de"/>
      <stop offset="0.2" stop-color="#333391"/>
      <stop offset="0.4" stop-color="#e91388"/>
      <stop offset="0.6" stop-color="#eb2d2e"/>
      <stop offset="0.8" stop-color="#fde92b"/>
      <stop offset="1" stop-color="#009e54"/>
    </radialGradient>
    <linearGradient id="linear-gradient-3" x1="-8.302" y1="-0.875" x2="6.911" y2="1.518" xlink:href="#linear-gradient"/>
    <linearGradient id="linear-gradient-4" x1="-26.074" y1="-2.263" x2="8.779" y2="1.358" xlink:href="#linear-gradient"/>
    <linearGradient id="linear-gradient-5" x1="-1.201" y1="0.277" x2="34.381" y2="4.531" xlink:href="#linear-gradient"/>
    <linearGradient id="linear-gradient-6" x1="-17.682" y1="-7.099" x2="9.113" y2="4.224" xlink:href="#linear-gradient"/>
    <radialGradient id="radial-gradient-3" cx="-1.669" cy="0.991" r="8.218" gradientTransform="translate(2.184) scale(2.218 1)" xlink:href="#linear-gradient"/>
    <linearGradient id="linear-gradient-7" x1="-480.89" y1="-257.683" x2="-393.87" y2="-234.975" gradientTransform="matrix(1, 0, 0, 1, 0, 0)" xlink:href="#radial-gradient-2"/>
    <linearGradient id="linear-gradient-8" x1="-61.037" y1="-15.558" x2="27.659" y2="7.587" gradientTransform="matrix(1, 0, 0, 1, 0, 0)" xlink:href="#radial-gradient-2"/>
    <linearGradient id="linear-gradient-9" x1="-147.075" y1="-38.007" x2="65.332" y2="17.417" gradientTransform="matrix(1, 0, 0, 1, 0, 0)" xlink:href="#radial-gradient-2"/>
    <linearGradient id="linear-gradient-10" x1="-258.709" y1="-186.926" x2="-157.924" y2="-160.627" gradientTransform="matrix(1, 0, 0, 1, 0, 0)" xlink:href="#radial-gradient-2"/>
    <linearGradient id="linear-gradient-11" x1="-64.603" y1="-16.488" x2="56.692" y2="15.163" gradientTransform="matrix(1, 0, 0, 1, 0, 0)" xlink:href="#radial-gradient-2"/>
    <linearGradient id="linear-gradient-12" x1="-190.407" y1="-49.321" x2="230.887" y2="60.624" gradientTransform="matrix(1, 0, 0, 1, 0, 0)" xlink:href="#radial-gradient-2"/>
    <linearGradient id="linear-gradient-13" x1="-147.361" y1="-38.086" x2="149.007" y2="39.255" gradientTransform="matrix(1, 0, 0, 1, 0, 0)" xlink:href="#radial-gradient-2"/>
    <linearGradient id="linear-gradient-14" x1="-30.354" y1="-7.552" x2="68.45" y2="18.232" gradientTransform="matrix(1, 0, 0, 1, 0, 0)" xlink:href="#radial-gradient-2"/>
    <linearGradient id="linear-gradient-15" x1="-22.207" y1="-5.426" x2="53.331" y2="14.286" gradientTransform="matrix(1, 0, 0, 1, 0, 0)" xlink:href="#radial-gradient-2"/>
    <linearGradient id="linear-gradient-16" x1="-235.902" y1="-61.2" x2="524.221" y2="137.19" gradientTransform="matrix(1, 0, 0, 1, 0, 0)" xlink:href="#radial-gradient-2"/>
    <linearGradient id="linear-gradient-17" x1="-21.983" y1="-5.367" x2="69.696" y2="18.556" gradientTransform="matrix(1, 0, 0, 1, 0, 0)" xlink:href="#radial-gradient-2"/>
    <linearGradient id="linear-gradient-18" x1="-24.68" y1="-6.071" x2="100.766" y2="26.665" gradientTransform="matrix(1, 0, 0, 1, 0, 0)" xlink:href="#radial-gradient-2"/>
    <linearGradient id="linear-gradient-19" x1="-36.908" y1="-9.262" x2="80.904" y2="21.481" gradientTransform="matrix(1, 0, 0, 1, 0, 0)" xlink:href="#radial-gradient-2"/>
    <linearGradient id="linear-gradient-20" x1="-23.936" y1="-5.876" x2="90.348" y2="23.945" gradientTransform="matrix(1, 0, 0, 1, 0, 0)" xlink:href="#radial-gradient-2"/>
    <linearGradient id="linear-gradient-21" x1="-28.826" y1="-7.153" x2="199.763" y2="52.499" gradientTransform="matrix(1, 0, 0, 1, 0, 0)" xlink:href="#radial-gradient-2"/>
    <linearGradient id="linear-gradient-22" x1="-20.947" y1="-5.097" x2="102.304" y2="27.067" gradientTransform="matrix(1, 0, 0, 1, 0, 0)" xlink:href="#radial-gradient-2"/>
    <linearGradient id="linear-gradient-23" x1="-63.641" y1="-16.234" x2="1076.854" y2="281.309" gradientTransform="matrix(1, 0, 0, 1, 0, 0)" xlink:href="#radial-gradient-2"/>
    <linearGradient id="linear-gradient-24" x1="-37.326" y1="-69.396" x2="-31.897" y2="-47.653" gradientTransform="matrix(1, 0, 0, 1, 0, 0)" xlink:href="#radial-gradient-2"/>
    <linearGradient id="linear-gradient-25" x1="-19.034" y1="-77.733" x2="23.093" y2="90.986" gradientTransform="matrix(1, 0, 0, 1, 0, 0)" xlink:href="#radial-gradient-2"/>
    <linearGradient id="linear-gradient-26" x1="-0.638" y1="-4.059" x2="4.893" y2="18.091" gradientTransform="matrix(1, 0, 0, 1, 0, 0)" xlink:href="#radial-gradient-2"/>
    <linearGradient id="linear-gradient-27" x1="-11.513" y1="-47.614" x2="6.739" y2="25.488" gradientTransform="matrix(1, 0, 0, 1, 0, 0)" xlink:href="#radial-gradient-2"/>
    <linearGradient id="linear-gradient-28" x1="-0.886" y1="-5.05" x2="4.784" y2="17.656" xlink:href="#linear-gradient"/>
    <linearGradient id="linear-gradient-29" x1="-1.716" y1="-8.375" x2="5.795" y2="21.704" gradientTransform="matrix(1, 0, 0, 1, 0, 0)" xlink:href="#radial-gradient-2"/>
    <linearGradient id="linear-gradient-30" x1="-2.308" y1="-10.747" x2="7.014" y2="26.586" gradientTransform="matrix(1, 0, 0, 1, 0, 0)" xlink:href="#radial-gradient-2"/>
    <linearGradient id="linear-gradient-31" x1="-21.561" y1="-87.873" x2="50.179" y2="199.51" gradientTransform="matrix(1, 0, 0, 1, 0, 0)" xlink:href="#radial-gradient-2"/>
    <linearGradient id="linear-gradient-32" x1="-3.053" y1="-13.728" x2="6.72" y2="25.41" gradientTransform="matrix(1, 0, 0, 1, 0, 0)" xlink:href="#radial-gradient-2"/>
    <linearGradient id="linear-gradient-33" x1="-5.09" y1="-21.888" x2="3.703" y2="13.325" gradientTransform="matrix(1, 0, 0, 1, 0, 0)" xlink:href="#radial-gradient-2"/>
    <linearGradient id="linear-gradient-34" x1="-14.307" y1="-58.803" x2="4.235" y2="15.459" gradientTransform="matrix(1, 0, 0, 1, 0, 0)" xlink:href="#radial-gradient-2"/>
    <linearGradient id="linear-gradient-35" x1="-2.096" y1="-9.896" x2="5.851" y2="21.927" gradientTransform="matrix(1, 0, 0, 1, 0, 0)" xlink:href="#radial-gradient-2"/>
    <linearGradient id="linear-gradient-36" x1="-332.795" y1="308.72" x2="-326.187" y2="335.183" gradientTransform="matrix(1, 0, 0, 1, 0, 0)" xlink:href="#radial-gradient-2"/>
    <linearGradient id="linear-gradient-37" x1="-4.543" y1="-19.697" x2="11.042" y2="42.714" gradientTransform="matrix(1, 0, 0, 1, 0, 0)" xlink:href="#radial-gradient-2"/>
    <linearGradient id="linear-gradient-38" x1="-2.796" y1="-12.7" x2="12.703" y2="49.37" gradientTransform="matrix(1, 0, 0, 1, 0, 0)" xlink:href="#radial-gradient-2"/>
    <linearGradient id="linear-gradient-39" x1="-3.128" y1="-14.03" x2="7.171" y2="27.215" gradientTransform="matrix(1, 0, 0, 1, 0, 0)" xlink:href="#radial-gradient-2"/>
    <linearGradient id="linear-gradient-40" x1="-0.431" y1="-3.229" x2="7.842" y2="29.902" gradientTransform="matrix(1, 0, 0, 1, 0, 0)" xlink:href="#radial-gradient-2"/>
    <linearGradient id="linear-gradient-41" x1="-3.75" y1="-16.52" x2="10.453" y2="40.36" gradientTransform="matrix(1, 0, 0, 1, 0, 0)" xlink:href="#radial-gradient-2"/>
    <linearGradient id="linear-gradient-42" x1="-3.956" y1="-17.344" x2="2.313" y2="7.762" gradientTransform="matrix(1, 0, 0, 1, 0, 0)" xlink:href="#radial-gradient-2"/>
    <linearGradient id="linear-gradient-43" x1="-6.861" y1="-28.978" x2="6.351" y2="23.931" gradientTransform="matrix(1, 0, 0, 1, 0, 0)" xlink:href="#radial-gradient-2"/>
    <radialGradient id="radial-gradient-4" cx="-25.389" cy="-8.623" r="40.503" gradientTransform="translate(-0.022)" xlink:href="#radial-gradient-2"/>
    <radialGradient id="radial-gradient-5" cx="-18.871" cy="-15.854" r="37.979" gradientTransform="translate(0.042)" xlink:href="#radial-gradient-2"/>
    <radialGradient id="radial-gradient-6" cx="-8.916" cy="-0.314" r="23.839" gradientTransform="translate(0.299) scale(1.033 1)" xlink:href="#radial-gradient-2"/>
    <radialGradient id="radial-gradient-7" cx="-4.942" cy="0.972" r="22.824" gradientTransform="translate(-0.205) scale(0.958 1)" xlink:href="#radial-gradient-2"/>
    <radialGradient id="radial-gradient-8" cx="-3.143" cy="-19.839" r="32.145" gradientTransform="translate(-0.139) scale(0.955 1)" xlink:href="#radial-gradient-2"/>
    <radialGradient id="radial-gradient-9" cx="0.662" cy="7.24" r="22.239" gradientTransform="translate(-0.016) scale(1.024 1)" xlink:href="#radial-gradient-2"/>
    <radialGradient id="radial-gradient-10" cx="9.846" cy="-5.426" r="35.786" gradientTransform="translate(0.391) scale(0.96 1)" xlink:href="#radial-gradient-2"/>
    <radialGradient id="radial-gradient-11" cx="9.574" cy="7.193" r="22.526" gradientTransform="translate(-0.077) scale(1.008 1)" xlink:href="#radial-gradient-2"/>
    <radialGradient id="radial-gradient-12" cx="12.667" cy="4.54" r="22.155" gradientTransform="translate(-0.431) scale(1.034 1)" xlink:href="#radial-gradient-2"/>
    <radialGradient id="radial-gradient-13" cx="22.025" cy="7.206" r="31.159" gradientTransform="translate(-1.008) scale(1.046 1)" xlink:href="#radial-gradient-2"/>
    <radialGradient id="radial-gradient-14" cx="27.888" cy="-7.247" r="36.414" gradientTransform="translate(1.283) scale(0.954 1)" xlink:href="#radial-gradient-2"/>
    <radialGradient id="radial-gradient-15" cx="26.172" cy="-20.929" r="28.386" gradientTransform="translate(0.379) scale(0.986 1)" xlink:href="#radial-gradient-2"/>
    <radialGradient id="radial-gradient-16" cx="35.538" cy="5.619" r="34.718" gradientTransform="translate(1.358) scale(0.962 1)" xlink:href="#radial-gradient-2"/>
    <radialGradient id="radial-gradient-17" cx="-59.69" cy="-13.463" r="72.494" gradientTransform="translate(-0.017)" xlink:href="#radial-gradient-2"/>
    <radialGradient id="radial-gradient-18" cx="-31.806" cy="-18.047" r="43.782" gradientTransform="translate(0.001)" xlink:href="#radial-gradient-2"/>
    <radialGradient id="radial-gradient-19" cx="-49.224" cy="-23.402" r="79.576" gradientTransform="translate(-0.019)" xlink:href="#radial-gradient-2"/>
    <radialGradient id="radial-gradient-20" cx="-21.534" cy="-1.521" r="52.176" gradientTransform="matrix(1, 0, 0, 1, 0, 0)" xlink:href="#radial-gradient-2"/>
    <radialGradient id="radial-gradient-21" cx="-4.198" cy="5.562" r="41.381" gradientTransform="translate(-0.001)" xlink:href="#radial-gradient-2"/>
    <radialGradient id="radial-gradient-22" cx="7.394" cy="25.323" r="68.511" gradientTransform="translate(0)" xlink:href="#radial-gradient-2"/>
    <radialGradient id="radial-gradient-23" cx="10.231" cy="15.722" r="49.468" gradientTransform="translate(-0.001)" xlink:href="#radial-gradient-2"/>
    <radialGradient id="radial-gradient-24" cx="21.244" cy="-9.019" r="56.724" gradientTransform="translate(-0.001)" xlink:href="#radial-gradient-2"/>
    <radialGradient id="radial-gradient-25" cx="48.243" cy="15.86" r="60.018" gradientTransform="translate(0.002)" xlink:href="#radial-gradient-2"/>
    <radialGradient id="radial-gradient-26" cx="30.186" cy="10.592" r="43.284" gradientTransform="translate(-0.003)" xlink:href="#radial-gradient-2"/>
    <radialGradient id="radial-gradient-27" cx="46.574" cy="-10.635" r="52.874" gradientTransform="matrix(1, 0, 0, 1, 0, 0)" xlink:href="#radial-gradient-2"/>
    <radialGradient id="radial-gradient-28" cx="56.545" cy="12.005" r="56.655" gradientTransform="translate(0.015)" xlink:href="#radial-gradient-2"/>
    <radialGradient id="radial-gradient-29" cx="83.028" cy="-51.739" r="79.733" gradientTransform="translate(0.005)" xlink:href="#radial-gradient-2"/>
    <linearGradient id="linear-gradient-44" x1="-0.432" y1="-18.912" x2="1.819" y2="27.987" xlink:href="#linear-gradient"/>
    <linearGradient id="linear-gradient-45" x1="-1.211" y1="-35.156" x2="0.386" y2="-1.877" xlink:href="#linear-gradient"/>
    <linearGradient id="linear-gradient-46" x1="-0.624" y1="-22.925" x2="1.941" y2="30.52" xlink:href="#linear-gradient"/>
    <linearGradient id="linear-gradient-47" x1="0.465" y1="-0.224" x2="1.985" y2="31.441" xlink:href="#linear-gradient"/>
    <linearGradient id="linear-gradient-48" x1="-0.498" y1="-20.294" x2="1.987" y2="31.486" xlink:href="#linear-gradient"/>
    <linearGradient id="linear-gradient-49" x1="0.002" y1="-9.868" x2="1.577" y2="22.932" xlink:href="#linear-gradient"/>
    <linearGradient id="linear-gradient-50" x1="-0.19" y1="-13.881" x2="1.53" y2="21.963" xlink:href="#linear-gradient"/>
    <linearGradient id="linear-gradient-51" x1="-1.39" y1="-38.884" x2="1.396" y2="19.168" xlink:href="#linear-gradient"/>
    <linearGradient id="linear-gradient-52" x1="0.09" y1="-8.037" x2="1.79" y2="27.374" xlink:href="#linear-gradient"/>
    <linearGradient id="linear-gradient-53" x1="0.384" y1="-1.909" x2="3.598" y2="65.007" xlink:href="#linear-gradient"/>
    <linearGradient id="linear-gradient-54" x1="-0.098" y1="-11.953" x2="1.91" y2="29.876" xlink:href="#linear-gradient"/>
    <linearGradient id="linear-gradient-55" x1="-2.94" y1="-71.14" x2="0.18" y2="-6.176" xlink:href="#linear-gradient"/>
    <linearGradient id="linear-gradient-56" x1="-1.619" y1="-43.648" x2="0.796" y2="6.66" xlink:href="#linear-gradient"/>
  </defs>
  <g id="Group_1464" data-name="Group 1464" transform="translate(-3535.093 -1042.357)">
    <g id="Group_1365" data-name="Group 1365">
      <path id="Path_1321" data-name="Path 1321" class="cls-1" d="M3719.545,1065.519c2.5,1.39,5.149,2.842,6.91,5.168a9.412,9.412,0,0,1,1.219,2.111c.1.256.174.525.276.781.462,1.16-.152-.421.039-.4.369.041-1.235,3.026-1.431,3.3-2.3,3.154-6.025,5.259-5.914,9.587.063,2.427.283,4.673,1.954,6.557,1.791,2.02,4.274,3.057,6.563,4.379a13.468,13.468,0,0,1,3.172,2.37,7.024,7.024,0,0,1,.984,1.293q.176.367.352.737.167-2.67-.261-1a3.589,3.589,0,0,1-.577.881c-1.748,2.019-4.807,1.969-6.593,3.921a3.959,3.959,0,0,0-1,3.052,8.8,8.8,0,0,0,.541,3.675c1.431,2.725,5.847,2.062,6.512,5.414q-.1-1.027-.205-2.055.023-1-.3.115c-.207.37,0,1.272.027,1.68.021.314.343,1.42.205,1.667a5.316,5.316,0,0,0,.279-3.029,5.668,5.668,0,0,0-.76-3.027c-1.524-2.117-5.784-1.857-6.209-4.879q.1,1.446.2,2.89c.009-2.834,3.419-3.615,5.432-4.573,1.874-.892,3.017-2.217,2.966-4.326-.057-2.374-.33-4.34-2.094-6.068-1.634-1.6-3.772-2.536-5.742-3.638a15.982,15.982,0,0,1-2.853-1.969,9.9,9.9,0,0,1-1.25-1.322c-.237-.307-1.259-1.669-1.065-1.989.051-.083-.337,1.676.083.808a7.508,7.508,0,0,0,.2-.771,6.349,6.349,0,0,1,.479-1.042,12.188,12.188,0,0,1,1.625-2.154,38.374,38.374,0,0,0,3.747-4.217,7.963,7.963,0,0,0,1.239-5.033c-.11-2.569-.478-4.969-2.07-7.072-1.761-2.325-4.409-3.778-6.91-5.167.044.024.017,1.525.027,1.679.018.253-.049,1.527.2,1.667Z"/>
    </g>
    <g id="Group_1366" data-name="Group 1366">
      <path id="Path_1322" data-name="Path 1322" class="cls-2" d="M3668.149,1060.2a4.2,4.2,0,0,1,3.305,3.158c.325,1.862-1.375,3.631-2.794,4.732-.929.72-8.6,5.2-8.828,2.553-.086-1,2.152-1.959,2.905-2.167a6.639,6.639,0,0,1,4.222.277,5.974,5.974,0,0,1,2.918,8.5c-2.6,4.58-12.333,8.613-16.243,3.375-2.651-3.552,2.754-6.223,5.812-5.824a9.342,9.342,0,0,1,7.287,5.984,5.713,5.713,0,0,1-1.291,6.381,7.08,7.08,0,0,1-4.661,2.318,6.415,6.415,0,0,1-4.964-1.848c-1.231-1.4.172-1.928,1.32-2.668.442-.285-.152-2.094.18-2.308-1.233.795-2.232,1.362-2.551,2.886a5.17,5.17,0,0,0,.38,3.871c3.587,5.293,11,1.241,12.089-3.751.825-3.793.245-7.931-2.656-10.725-3.783-3.645-10.97-3.375-11.9,2.65-1.817,11.821,16.4,8.22,18.085-1.044.566-3.114.576-6.938-2.053-9.157-3.2-2.7-8.87-1.526-9.347,2.955-.18,1.7-.194,3.614,2.224,3.423,1.528-.122,3.488-1.348,4.822-2.063a11.19,11.19,0,0,0,4.015-3.3c2.186-3.118,2.426-9.431-2.1-10.515.039.009-.376,2.26-.18,2.307Z"/>
    </g>
    <g id="Group_1367" data-name="Group 1367">
      <path id="Path_1323" data-name="Path 1323" class="cls-3" d="M3615.45,1082.007a6.088,6.088,0,0,0-4.256,1,5.8,5.8,0,0,0-1.764,1.931c.286-.509.2-1.177.168.275a6.066,6.066,0,0,0,.118,1.338c.754,3.772,4.553,4.168,6.717,6.745,1.593,1.9,1.135,4.139.051,6.159-1.678,3.128-5.316.54-7.107-.932a6.7,6.7,0,0,0-3.787-1.864,2.871,2.871,0,0,0-1.848.439c-.625.5-.49,1-.3,1.769a5.617,5.617,0,0,0,6.041,4.229c2.461-.31,6.215-2.17,7.528,1.1.68,1.695-.174,4.1-1.079,5.585a4.51,4.51,0,0,1-4.284,1.942c-1.958-.181-3.326-1.677-5.156-2.195-1.009-.285-1.548.091-2.495.172l-.167.116q-.524.448.024-.672c-.145.025.3,1.137.4,1.291,1.088,1.768,3.363,1.431,4.919.586-.51.277-.277,2.024-.856,2.339-1.426.774-3.425,1.165-4.646-.214-.935-1.056-.659-2.212-.24-3.395.364-1.031.662-2.14,1.8-2.558,1.8-.665,3.445.647,4.944,1.426a5.481,5.481,0,0,0,4.591.464,4.3,4.3,0,0,0,1.172-.666l.334-.3q.643-.9.083.513a8.118,8.118,0,0,1,.043-1.142,3.507,3.507,0,0,0-.492-1.473c-1.875-3.037-5.9-.283-8.533-.55a5.648,5.648,0,0,1-4.9-6.043c.242-1.985,1.257-4.989,3.58-5.108,3.6-.185,5.275,4.314,8.846,4.245a4.884,4.884,0,0,0,1.795-.595l.281-.273q-.324,1.425-.289.378c-.084-.281-.1-.572-.2-.853-.678-2-2.527-2.91-4.191-3.96-3.132-1.978-4.2-4.856-2.971-8.334,1.123-3.18,3.24-5.708,6.98-5.258-.131-.016-.61,2.369-.856,2.339Z"/>
    </g>
    <g id="Group_1368" data-name="Group 1368">
      <path id="Path_1324" data-name="Path 1324" class="cls-4" d="M3569.053,1087.758c-1.479,4.208-7,3.081-8.809-.168-2.076-3.721-.062-8.008-.069-11.984-.008-4.985-4.2-6.845-8.336-8.239-2.128-.718-4.344-1.491-5.952-3.137-.643-.658-1.7-1.967-1.636-2.94.071-1.075,1.288-1.884,2.169-2.251.435-.181-.01-2.319.276-2.438-2.574,1.072-3.394,5.185-2.577,7.706,1.984,6.119,10.745,4.822,14.382,9.312,3.047,3.761-.415,9.886.711,14.424.567,2.289,2.1,4.457,4.562,4.846a4.407,4.407,0,0,0,5.046-2.777c.24-.682.061-1.863.233-2.354Z"/>
    </g>
    <g id="Group_1369" data-name="Group 1369">
      <path id="Path_1325" data-name="Path 1325" class="cls-5" d="M3778.181,1054.639c1.7,2.257,2.86,5.044,1.727,7.725a11.864,11.864,0,0,1-5.757,5.912c-2.386,1.277-5.117,2.316-6.615,4.712a12,12,0,0,0-1.346,5.791c-.112,1.915.006,3.657,1.738,4.832.586.4,1.271.614,1.872.982.334.2,1.067,1.084,1.289,1.117q.364.773.507-.483a4.536,4.536,0,0,1-.872,1.456,8.452,8.452,0,0,1-1.387,1.313c-2.366,1.858-4.893,3.042-6.518,5.709a15.83,15.83,0,0,0-1.966,6.841c-.135,1.287-.145,4.033.16,1.122.419-4,3.639-6.565,6.7-8.631,2.223-1.5,3.664-3.007,4.065-5.7.271-1.823.775-4.505-.533-6.047-.922-1.088-2.49-1.293-3.527-2.237-.008-.008-1.187-1.458-1.073-.8-.135-.769,1.164-2.022,1.705-2.539,2.405-2.3,5.887-3.014,8.386-5.2a11.685,11.685,0,0,0,3.577-6.274c1.041-4.581,1.157-9.839-1.782-13.737.532.706-1.034,3.228-.345,4.142Z"/>
    </g>
    <g id="Group_1370" data-name="Group 1370">
      <path id="Path_1326" data-name="Path 1326" class="cls-6" d="M3799.518,1146.869a3.546,3.546,0,0,1,2.67,1.405c.94,1.394-.531,2.735-1.329,3.913a13.561,13.561,0,0,0-2.4,5.318,18.762,18.762,0,0,0-.3,3.361c.014,2.187,1.01,3.137,2.055,4.908.524.888.522.821-.4,1.57a26.282,26.282,0,0,1-2.68,1.655,5.067,5.067,0,0,0-2.614,3.593,8.276,8.276,0,0,0-.071,3.409c.749,2.574,3.773,2.616,5.963,2.513.276-.013.283-2.993.265-2.992-2.091.1-6.044.048-6-3.069q-.132,1.25-.265,2.5c1.024-3.523,5.938-3.45,6.686-7.072a10.142,10.142,0,0,0,.232-2.985c-.192-1.634-1.406-2.5-2.166-3.864-2-3.587,3.3-7.345,3.808-11.017.379-2.727.207-5.732-3.2-6.135a10.187,10.187,0,0,0-.265,2.992Z"/>
    </g>
    <g id="Group_1371" data-name="Group 1371">
      <path id="Path_1327" data-name="Path 1327" class="cls-7" d="M3547.24,1132.42c1.432-.312,2.227.575,2.392,1.987l.143-2.563c-.355,2.32-2.68,3.661-3.708,5.639a8.995,8.995,0,0,0-.786,3.708,5.42,5.42,0,0,0,.267,2.775c1.1,2.153,3.986,1.527,4.271,4.366q.072-1.281.144-2.563c-.255,1.809-1.465,3.265-1.79,5.065a15.379,15.379,0,0,0-.238,2.849c.044,3.889,4.371,1.889,5.681,4.679l-.018-1.132-.029.6c-.1,2.145.217.177.264-.8.067-1.378.209-2.351-1.284-3.065a22.494,22.494,0,0,0-2.577-.543,6.7,6.7,0,0,1-1.407-.645c-.236-.37-.179-.419.107-1.058.9-2.014,2.538-5.994.814-8.066a6.984,6.984,0,0,0-2.095-1.314,4.307,4.307,0,0,1-1.263-.9l-.533-1.077.15.373c.6-2.153,3.18-3.348,3.829-5.582.523-1.8,1.012-6.475-2.106-5.8-.424.093-.1,3.036-.228,3.064Z"/>
    </g>
    <g id="Group_1372" data-name="Group 1372">
      <path id="Path_1328" data-name="Path 1328" class="cls-8" d="M3795.064,1079.376c-1.6,1.654-1.8,4.978-1.034,7.1,1.573,4.381,7.169,4.165,10.909,3.822.233-.021.1-2.65.066-2.647-2.434.224-4.986.462-7.317-.449-2.117-.828-4.8-3.005-2.69-5.179.5-.52-.308-2.261.066-2.647Z"/>
    </g>
    <g id="Group_1373" data-name="Group 1373">
      <path id="Path_1329" data-name="Path 1329" class="cls-9" d="M3592.835,1051.822c.485-1.452,1.98-.311,2.083.662q.1-1.374.2-2.746c-.1.678-1.122,1.514-1.5,2.1a4.393,4.393,0,0,0-.572,1.33,14.978,14.978,0,0,0-.418,3.9c.06,3.016,3.117,4.875,5.632,2.818.313-.256.274-1.479.312-1.852a10.986,10.986,0,0,1,.058-1.877,3.438,3.438,0,0,1-4.621-.032,7.6,7.6,0,0,1-.849-1.535c.586.246-1.073,2.5.541.375a6.31,6.31,0,0,0,1.219-1.987,11.251,11.251,0,0,0,.428-4.09c-.135-1.2-1.706-2.208-2.218-.675a9.725,9.725,0,0,0-.315,2.284c-.024.3.024,1.323.026,1.318Z"/>
    </g>
    <g id="Group_1463" data-name="Group 1463">
      <g id="Group_1374" data-name="Group 1374">
        <rect id="Rectangle_814" data-name="Rectangle 814" class="cls-10" width="3.856" height="7.802" transform="matrix(-0.806, -0.592, 0.592, -0.806, 3552.876, 1107.244)"/>
      </g>
      <g id="Group_1375" data-name="Group 1375">
        <rect id="Rectangle_815" data-name="Rectangle 815" class="cls-11" width="3.783" height="7.655" transform="translate(3803.552 1119.984) rotate(-32.525)"/>
      </g>
      <g id="Group_1376" data-name="Group 1376">
        <rect id="Rectangle_816" data-name="Rectangle 816" class="cls-12" width="1.58" height="3.197" transform="translate(3784.784 1164.162) rotate(34.421)"/>
      </g>
      <g id="Group_1377" data-name="Group 1377">
        <rect id="Rectangle_817" data-name="Rectangle 817" class="cls-13" width="3.329" height="6.737" transform="translate(3773.586 1186.069) rotate(127.372)"/>
      </g>
      <g id="Group_1378" data-name="Group 1378">
        <rect id="Rectangle_818" data-name="Rectangle 818" class="cls-14" width="2.766" height="5.598" transform="matrix(-0.966, 0.258, -0.258, -0.966, 3750.331, 1108.524)"/>
      </g>
      <g id="Group_1379" data-name="Group 1379">
        <rect id="Rectangle_819" data-name="Rectangle 819" class="cls-15" width="0.796" height="1.611" transform="translate(3743.051 1046.262) rotate(-23.856)"/>
      </g>
      <g id="Group_1380" data-name="Group 1380">
        <rect id="Rectangle_820" data-name="Rectangle 820" class="cls-16" width="1.132" height="2.291" transform="matrix(0.984, -0.181, 0.181, 0.984, 3757.151, 1119.069)"/>
      </g>
      <g id="Group_1384" data-name="Group 1384">
        <rect id="Rectangle_824" data-name="Rectangle 824" class="cls-17" width="3.396" height="6.872" transform="matrix(-0.31, -0.951, 0.951, -0.31, 3569.808, 1071.362)"/>
      </g>
      <g id="Group_1385" data-name="Group 1385">
        <rect id="Rectangle_825" data-name="Rectangle 825" class="cls-18" width="4.442" height="8.988" transform="translate(3686.374 1052.97) rotate(26.138)"/>
      </g>
      <g id="Group_1386" data-name="Group 1386">
        <rect id="Rectangle_826" data-name="Rectangle 826" class="cls-19" width="0.441" height="0.893" transform="translate(3660.722 1087.495) rotate(-40.195)"/>
      </g>
      <g id="Group_1387" data-name="Group 1387">
        <rect id="Rectangle_827" data-name="Rectangle 827" class="cls-20" width="3.66" height="7.406" transform="matrix(-0.923, 0.384, -0.384, -0.923, 3636.288, 1090.001)"/>
      </g>
      <g id="Group_1388" data-name="Group 1388">
        <rect id="Rectangle_828" data-name="Rectangle 828" class="cls-21" width="2.675" height="5.412" transform="matrix(-0.351, 0.936, -0.936, -0.351, 3627.263, 1067.695)"/>
      </g>
      <g id="Group_1389" data-name="Group 1389">
        <rect id="Rectangle_829" data-name="Rectangle 829" class="cls-22" width="2.848" height="5.763" transform="translate(3585.109 1192.584) rotate(-153.165)"/>
      </g>
      <g id="Group_1390" data-name="Group 1390">
        <rect id="Rectangle_830" data-name="Rectangle 830" class="cls-23" width="2.936" height="5.941" transform="translate(3586.598 1114.105) rotate(-138.56)"/>
      </g>
      <g id="Group_1391" data-name="Group 1391">
        <rect id="Rectangle_831" data-name="Rectangle 831" class="cls-24" width="1.468" height="2.97" transform="matrix(-0.161, 0.987, -0.987, -0.161, 3567.414, 1119.311)"/>
      </g>
      <g id="Group_1392" data-name="Group 1392">
        <rect id="Rectangle_832" data-name="Rectangle 832" class="cls-25" width="2.722" height="5.508" transform="translate(3558.959 1176.408) rotate(132.789)"/>
      </g>
      <g id="Group_1393" data-name="Group 1393">
        <rect id="Rectangle_833" data-name="Rectangle 833" class="cls-26" width="0.294" height="0.595" transform="translate(3535.093 1118.747) rotate(-35.221)"/>
      </g>
      <g id="Group_1394" data-name="Group 1394">
        <rect id="Rectangle_834" data-name="Rectangle 834" class="cls-27" width="4.268" height="8.637" transform="translate(3812.059 1176.177) rotate(-159.434)"/>
      </g>
      <g id="Group_1395" data-name="Group 1395">
        <rect id="Rectangle_835" data-name="Rectangle 835" class="cls-28" width="0.55" height="1.113" transform="matrix(0.564, -0.826, 0.826, 0.564, 3810.963, 1093.254)"/>
      </g>
      <g id="Group_1396" data-name="Group 1396">
        <rect id="Rectangle_836" data-name="Rectangle 836" class="cls-29" width="4.19" height="8.478" transform="translate(3792.143 1049.925) rotate(-115.388)"/>
      </g>
      <g id="Group_1397" data-name="Group 1397">
        <rect id="Rectangle_837" data-name="Rectangle 837" class="cls-30" width="1.269" height="2.569" transform="translate(3778.295 1134.156) rotate(94.412)"/>
      </g>
      <g id="Group_1399" data-name="Group 1399">
        <rect id="Rectangle_839" data-name="Rectangle 839" class="cls-31" width="4.087" height="8.271" transform="matrix(-0.285, 0.958, -0.958, -0.285, 3771.267, 1056.294)"/>
      </g>
      <g id="Group_1400" data-name="Group 1400">
        <rect id="Rectangle_840" data-name="Rectangle 840" class="cls-32" width="3.085" height="6.243" transform="translate(3760.497 1069.563) rotate(145.419)"/>
      </g>
      <g id="Group_1401" data-name="Group 1401">
        <rect id="Rectangle_841" data-name="Rectangle 841" class="cls-33" width="2.486" height="5.03" transform="matrix(0.407, -0.913, 0.913, 0.407, 3744.227, 1070.448)"/>
      </g>
      <g id="Group_1402" data-name="Group 1402">
        <rect id="Rectangle_842" data-name="Rectangle 842" class="cls-34" width="0.323" height="0.653" transform="matrix(0.089, -0.996, 0.996, 0.089, 3729.631, 1073.766)"/>
      </g>
      <g id="Group_1403" data-name="Group 1403">
        <rect id="Rectangle_843" data-name="Rectangle 843" class="cls-35" width="2.371" height="4.798" transform="matrix(-0.563, 0.826, -0.826, -0.563, 3801.987, 1063.559)"/>
      </g>
      <g id="Group_1405" data-name="Group 1405">
        <rect id="Rectangle_845" data-name="Rectangle 845" class="cls-36" width="2.635" height="5.333" transform="translate(3772.445 1110.586) rotate(58.254)"/>
      </g>
      <g id="Group_1407" data-name="Group 1407">
        <rect id="Rectangle_847" data-name="Rectangle 847" class="cls-37" width="1.25" height="2.529" transform="matrix(-0.686, -0.728, 0.728, -0.686, 3671.632, 1175.714)"/>
      </g>
      <g id="Group_1408" data-name="Group 1408">
        <rect id="Rectangle_848" data-name="Rectangle 848" class="cls-38" width="2.916" height="5.901" transform="translate(3567.983 1056.791) rotate(-60.404)"/>
      </g>
      <g id="Group_1409" data-name="Group 1409">
        <rect id="Rectangle_849" data-name="Rectangle 849" class="cls-39" width="3.507" height="7.097" transform="matrix(0.898, 0.441, -0.441, 0.898, 3691.006, 1091.639)"/>
      </g>
      <g id="Group_1410" data-name="Group 1410">
        <rect id="Rectangle_850" data-name="Rectangle 850" class="cls-40" width="1.487" height="3.009" transform="translate(3622.671 1089.521) rotate(94.775)"/>
      </g>
      <g id="Group_1411" data-name="Group 1411">
        <rect id="Rectangle_851" data-name="Rectangle 851" class="cls-41" width="1.495" height="3.025" transform="translate(3577.721 1107.523) rotate(169.148)"/>
      </g>
      <g id="Group_1412" data-name="Group 1412">
        <rect id="Rectangle_852" data-name="Rectangle 852" class="cls-42" width="2.25" height="4.553" transform="matrix(0.955, -0.297, 0.297, 0.955, 3592.11, 1081.123)"/>
      </g>
      <g id="Group_1413" data-name="Group 1413">
        <rect id="Rectangle_853" data-name="Rectangle 853" class="cls-43" width="2.801" height="5.668" transform="translate(3717.047 1053.928) rotate(78.498)"/>
      </g>
      <g id="Group_1414" data-name="Group 1414">
        <rect id="Rectangle_854" data-name="Rectangle 854" class="cls-44" width="1.631" height="3.301" transform="translate(3575.002 1090.258) rotate(-41.09)"/>
      </g>
      <g id="Group_1415" data-name="Group 1415">
        <rect id="Rectangle_855" data-name="Rectangle 855" class="cls-45" width="3.696" height="7.48" transform="translate(3577.37 1167.583) rotate(84.533)"/>
      </g>
      <g id="Group_1416" data-name="Group 1416">
        <rect id="Rectangle_856" data-name="Rectangle 856" class="cls-46" width="1.754" height="3.549" transform="translate(3555.708 1143.771) rotate(140.728)"/>
      </g>
      <g id="Group_1417" data-name="Group 1417">
        <path id="Path_1330" data-name="Path 1330" class="cls-47" d="M3802.514,1133.713l.7-1.389-1.1-1.1,1.538.239.7-1.389.248,1.536,1.538.239-1.385.71.248,1.536-1.1-1.1Z"/>
      </g>
      <g id="Group_1418" data-name="Group 1418">
        <path id="Path_1331" data-name="Path 1331" class="cls-48" d="M3784.822,1152.764l1.482-.742-.248-1.638,1.163,1.18,1.482-.742-.763,1.471,1.164,1.18-1.635-.271-.763,1.471-.248-1.639Z"/>
      </g>
      <g id="Group_1419" data-name="Group 1419">
        <path id="Path_1332" data-name="Path 1332" class="cls-49" d="M3697,1106.783l1.648-2.029-1.42-2.195,2.439.941,1.648-2.029-.141,2.61,2.439.941-2.526.672-.141,2.61-1.42-2.195Z"/>
      </g>
      <g id="Group_1420" data-name="Group 1420">
        <path id="Path_1333" data-name="Path 1333" class="cls-50" d="M3740.377,1088.459l.942,2.685,2.845-.067-2.263,1.726.942,2.685-2.341-1.619-2.262,1.726.816-2.726-2.341-1.618,2.845-.067Z"/>
      </g>
      <g id="Group_1421" data-name="Group 1421">
        <path id="Path_1334" data-name="Path 1334" class="cls-51" d="M3748.249,1188.239l.649,1.921,2.028-.024-1.627,1.211.649,1.921-1.654-1.173-1.627,1.211.6-1.936-1.655-1.173,2.028-.023Z"/>
      </g>
      <g id="Group_1422" data-name="Group 1422">
        <path id="Path_1335" data-name="Path 1335" class="cls-52" d="M3695.544,1043.4l2.589,1.088,1.834-2.126-.234,2.8,2.589,1.088-2.734.642-.234,2.8-1.455-2.4-2.734.642L3697,1045.8Z"/>
      </g>
      <g id="Group_1423" data-name="Group 1423">
        <path id="Path_1336" data-name="Path 1336" class="cls-53" d="M3657.975,1123l-1.81-.055-.612,1.7-.507-1.739-1.81-.055,1.5-1.02-.507-1.739,1.432,1.109,1.5-1.02-.612,1.7Z"/>
      </g>
      <g id="Group_1424" data-name="Group 1424">
        <path id="Path_1337" data-name="Path 1337" class="cls-54" d="M3636.245,1043.371l-.366,2.762,2.514,1.2-2.74.505-.366,2.762-1.327-2.45-2.74.505,1.92-2.02-1.327-2.45,2.514,1.2Z"/>
      </g>
      <g id="Group_1425" data-name="Group 1425">
        <path id="Path_1338" data-name="Path 1338" class="cls-55" d="M3612.682,1069.363l-.146-2.809-2.716-.729,2.626-1.007-.146-2.809,1.769,2.186,2.626-1.007-1.532,2.358,1.769,2.186-2.717-.729Z"/>
      </g>
      <g id="Group_1426" data-name="Group 1426">
        <path id="Path_1339" data-name="Path 1339" class="cls-56" d="M3589.192,1067.745l.034-2-1.889-.649,1.91-.585.034-2,1.146,1.635,1.91-.585-1.2,1.6,1.146,1.636-1.889-.649Z"/>
      </g>
      <g id="Group_1427" data-name="Group 1427">
        <path id="Path_1340" data-name="Path 1340" class="cls-57" d="M3569.131,1129.542l1.791-.017.537-1.709.57,1.7,1.791-.017-1.439,1.067.57,1.7-1.459-1.039-1.439,1.067.537-1.709Z"/>
      </g>
      <g id="Group_1428" data-name="Group 1428">
        <path id="Path_1341" data-name="Path 1341" class="cls-58" d="M3781.193,1097.67l1.653-1.509-.925-2.038,1.946,1.105,1.653-1.509-.45,2.192,1.946,1.105-2.224.25-.45,2.192-.925-2.038Z"/>
      </g>
      <g id="Group_1429" data-name="Group 1429">
        <path id="Path_1342" data-name="Path 1342" class="cls-59" d="M3543.432,1082.962l.638,1.752,1.864-.065-1.469,1.148.638,1.752-1.546-1.042-1.469,1.148.514-1.792-1.546-1.043,1.863-.065Z"/>
      </g>
      <g id="Group_1430" data-name="Group 1430">
        <path id="Path_1343" data-name="Path 1343" class="cls-60" d="M3802.762,1103.211a1.058,1.058,0,1,0,1.354.636A1.058,1.058,0,0,0,3802.762,1103.211Z"/>
      </g>
      <g id="Group_1431" data-name="Group 1431">
        <path id="Path_1344" data-name="Path 1344" class="cls-61" d="M3808.347,1150.464a1.751,1.751,0,1,0-2.212-1.114A1.751,1.751,0,0,0,3808.347,1150.464Z"/>
      </g>
      <g id="Group_1432" data-name="Group 1432">
        <path id="Path_1345" data-name="Path 1345" class="cls-62" d="M3790.418,1130.851a.964.964,0,1,0-.88-1.042A.964.964,0,0,0,3790.418,1130.851Z"/>
      </g>
      <g id="Group_1434" data-name="Group 1434">
        <path id="Path_1347" data-name="Path 1347" class="cls-63" d="M3758.074,1090.416a1.47,1.47,0,1,0,.646-1.976A1.47,1.47,0,0,0,3758.074,1090.416Z"/>
      </g>
      <g id="Group_1436" data-name="Group 1436">
        <path id="Path_1349" data-name="Path 1349" class="cls-64" d="M3713.66,1065.9a1.854,1.854,0,1,0-2.5.786A1.853,1.853,0,0,0,3713.66,1065.9Z"/>
      </g>
      <g id="Group_1438" data-name="Group 1438">
        <path id="Path_1351" data-name="Path 1351" class="cls-65" d="M3648.374,1057.421a1.12,1.12,0,1,0,1.57-.211A1.12,1.12,0,0,0,3648.374,1057.421Z"/>
      </g>
      <g id="Group_1439" data-name="Group 1439">
        <path id="Path_1352" data-name="Path 1352" class="cls-66" d="M3659.771,1050.1a1.55,1.55,0,1,0,.208,2.183A1.55,1.55,0,0,0,3659.771,1050.1Z"/>
      </g>
      <g id="Group_1441" data-name="Group 1441">
        <path id="Path_1354" data-name="Path 1354" class="cls-67" d="M3639.526,1108.685a1.352,1.352,0,1,0-.167,1.9A1.352,1.352,0,0,0,3639.526,1108.685Z"/>
      </g>
      <g id="Group_1443" data-name="Group 1443">
        <path id="Path_1356" data-name="Path 1356" class="cls-68" d="M3572.306,1045.8a1.278,1.278,0,1,0-1.014-1.5A1.278,1.278,0,0,0,3572.306,1045.8Z"/>
      </g>
      <g id="Group_1444" data-name="Group 1444">
        <path id="Path_1357" data-name="Path 1357" class="cls-69" d="M3588.926,1046.324a1.772,1.772,0,1,0,2.169,1.255A1.772,1.772,0,0,0,3588.926,1046.324Z"/>
      </g>
      <g id="Group_1445" data-name="Group 1445">
        <path id="Path_1358" data-name="Path 1358" class="cls-70" d="M3562.3,1115.709a1.45,1.45,0,1,0-.983,1.8A1.45,1.45,0,0,0,3562.3,1115.709Z"/>
      </g>
      <g id="Group_1446" data-name="Group 1446">
        <path id="Path_1359" data-name="Path 1359" class="cls-71" d="M3542.621,1054a1.354,1.354,0,1,0-1.181-1.507A1.354,1.354,0,0,0,3542.621,1054Z"/>
      </g>
      <g id="Group_1447" data-name="Group 1447">
        <path id="Path_1360" data-name="Path 1360" class="cls-72" d="M3765.288,1130.492a.962.962,0,1,0-1.352.149A.961.961,0,0,0,3765.288,1130.492Z"/>
      </g>
      <g id="Group_1448" data-name="Group 1448">
        <circle id="Ellipse_66" data-name="Ellipse 66" class="cls-73" cx="1.287" cy="1.287" r="1.287" transform="translate(3792.312 1104.891)"/>
      </g>
      <g id="Group_1449" data-name="Group 1449">
        <path id="Path_1361" data-name="Path 1361" class="cls-74" d="M3778.428,1165.38a1.813,1.813,0,1,0-2.469-.694A1.813,1.813,0,0,0,3778.428,1165.38Z"/>
      </g>
      <g id="Group_1450" data-name="Group 1450">
        <path id="Path_1362" data-name="Path 1362" class="cls-75" d="M3765.6,1088.224a1.129,1.129,0,1,0-1.447.674A1.129,1.129,0,0,0,3765.6,1088.224Z"/>
      </g>
      <g id="Group_1452" data-name="Group 1452">
        <path id="Path_1364" data-name="Path 1364" class="cls-76" d="M3733.733,1045.663a1.905,1.905,0,1,0-.046,2.694A1.9,1.9,0,0,0,3733.733,1045.663Z"/>
      </g>
      <g id="Group_1453" data-name="Group 1453">
        <path id="Path_1365" data-name="Path 1365" class="cls-77" d="M3707.448,1085.322a1.165,1.165,0,1,0,1.645-.1A1.165,1.165,0,0,0,3707.448,1085.322Z"/>
      </g>
      <g id="Group_1454" data-name="Group 1454">
        <path id="Path_1366" data-name="Path 1366" class="cls-78" d="M3692.064,1075.219a1.84,1.84,0,1,0,.149,2.6A1.841,1.841,0,0,0,3692.064,1075.219Z"/>
      </g>
      <g id="Group_1455" data-name="Group 1455">
        <path id="Path_1367" data-name="Path 1367" class="cls-79" d="M3677.2,1087.95a1.683,1.683,0,1,0-1.979,1.323A1.684,1.684,0,0,0,3677.2,1087.95Z"/>
      </g>
      <g id="Group_1456" data-name="Group 1456">
        <path id="Path_1368" data-name="Path 1368" class="cls-80" d="M3662.14,1120.982a1.039,1.039,0,1,0,1.466.1A1.039,1.039,0,0,0,3662.14,1120.982Z"/>
      </g>
      <g id="Group_1458" data-name="Group 1458">
        <path id="Path_1370" data-name="Path 1370" class="cls-81" d="M3629.109,1071.189a1.7,1.7,0,1,0,.734-2.295A1.7,1.7,0,0,0,3629.109,1071.189Z"/>
      </g>
      <g id="Group_1459" data-name="Group 1459">
        <path id="Path_1371" data-name="Path 1371" class="cls-82" d="M3617.532,1045.753a.9.9,0,1,0,1.225-.352A.9.9,0,0,0,3617.532,1045.753Z"/>
      </g>
      <g id="Group_1460" data-name="Group 1460">
        <path id="Path_1372" data-name="Path 1372" class="cls-83" d="M3607.577,1079.555a1.442,1.442,0,1,0-2.021-.277A1.443,1.443,0,0,0,3607.577,1079.555Z"/>
      </g>
      <g id="Group_1461" data-name="Group 1461">
        <path id="Path_1373" data-name="Path 1373" class="cls-84" d="M3600.489,1175.254a.929.929,0,1,0,.487,1.22A.928.928,0,0,0,3600.489,1175.254Z"/>
      </g>
      <g id="Group_1462" data-name="Group 1462">
        <path id="Path_1374" data-name="Path 1374" class="cls-85" d="M3543.565,1155.584a1.2,1.2,0,1,0-1.691-.13A1.2,1.2,0,0,0,3543.565,1155.584Z"/>
      </g>
    </g>
  </g>
</svg>
