<?xml version="1.0" encoding="UTF-8"?>
<svg width="130px" height="130px" viewBox="0 0 130 130" version="1.1" xmlns="http://www.w3.org/2000/svg" xmlns:xlink="http://www.w3.org/1999/xlink">
    <!-- Generator: Sketch 54.1 (76490) - https://sketchapp.com -->
    <title>Group</title>
    <desc>Created with Sketch.</desc>
    <defs>
        <polygon id="path-1" points="0.11706 0.0163037975 2.33754 0.0163037975 2.33754 11.1022765 0.11706 11.1022765"></polygon>
        <polygon id="path-3" points="0 0.00344842105 11.8936857 0.00344842105 11.8936857 2.34066947 0 2.34066947"></polygon>
        <polygon id="path-5" points="0.112820706 0.00344842105 12.6801318 0.00344842105 12.6801318 2.34066947 0.112820706 2.34066947"></polygon>
    </defs>
    <g id="Page-1" stroke="none" stroke-width="1" fill="none" fill-rule="evenodd">
        <g id="Group-5" transform="translate(-336.000000, -263.000000)">
            <g id="1-copy">
                <g id="Group-4" transform="translate(103.000000, 210.000000)">
                    <g id="Group" transform="translate(233.000000, 53.000000)">
                        <circle id="Oval" fill="#182D57" fill-rule="nonzero" cx="65" cy="65" r="65"></circle>
                        <g id="Group-30" transform="translate(28.000000, 26.000000)">
                            <path d="M28.721566,62.3902745 C27.9157076,62.4464562 27.155923,62.266703 26.602167,61.6552301 C25.9633626,60.950121 25.864695,59.9171432 25.9051183,59.0148306 L25.9046836,56.9475982 C25.9043938,56.0407456 25.8985984,55.0714688 25.7699392,54.1722773 C25.6966267,53.65969 25.578834,53.1821452 25.3370185,52.7193553 C25.0513024,52.1725765 24.6085294,51.6489231 24.221103,51.1674059 C23.110983,49.7875485 22.119525,48.4254252 21.1734165,46.927955 C20.2699046,45.4980164 19.5722763,43.9498976 19.104293,42.3321191 C18.6350058,40.7100843 18.4,39.0321516 18.4,37.3464159 C18.4,32.5288323 20.3207597,27.9382457 23.7871681,24.5181117 C27.2409714,21.1101789 31.8922612,19.2 36.8,19.2 C41.7077388,19.2 46.3588837,21.1101789 49.812687,24.5181117 C53.2790954,27.9382457 55.2,32.5288323 55.2,37.3464159 C55.2,39.0321516 54.9649942,40.7100843 54.4958518,42.3321191 C54.0275788,43.9498976 53.3300954,45.4980164 52.4264386,46.927955 C51.480475,48.4254252 50.4888721,49.7875485 49.3787521,51.1674059 C48.9913257,51.6489231 48.5486976,52.1725765 48.2629815,52.7193553 C48.021166,53.1821452 47.9033733,53.65969 47.8300608,54.1722773 C47.7014016,55.0714688 47.6956062,56.0407456 47.6953164,56.9475982 L47.6947368,59.0148306 C47.7351602,59.9171432 47.6366374,60.950121 46.997833,61.6552301 C46.4439321,62.266703 45.6841475,62.4464562 44.878434,62.3902745 L28.721566,62.3902745 Z M28.0230684,59.0951307 C28.0114775,59.3556097 28.0055372,60.0773179 28.1879492,60.2787777 C28.2385146,60.3348175 28.5310403,60.3221908 28.5956597,60.3169415 L28.6094239,60.3158066 L28.6639012,60.313111 L44.9360988,60.313111 L44.9905761,60.3158066 L45.0041954,60.3169415 C45.0689597,60.3221908 45.3614854,60.3348175 45.4120508,60.2787777 C45.5944628,60.0773179 45.5885225,59.3556097 45.5767867,59.0951307 L45.5741787,59.0651955 L45.5741787,56.9474563 C45.5741787,55.3021544 45.5659202,53.3094054 46.3461337,51.8092396 C46.7071908,51.1151966 47.222407,50.4925157 47.7128476,49.883029 C48.7732716,48.5650283 49.7206841,47.2670317 50.6243409,45.8366674 C51.4241141,44.5707341 52.0411855,43.1998147 52.4555608,41.767748 C52.8716747,40.3291552 53.0787174,38.8411905 53.0787174,37.3464159 C53.0787174,33.0774555 51.3807931,29.0113735 48.3087656,25.9803974 C45.2531103,22.9653111 41.1419572,21.2770216 36.8,21.2770216 C32.4580428,21.2770216 28.3470346,22.9653111 25.2910895,25.9803974 C22.2192069,29.0113735 20.5211377,33.0774555 20.5211377,37.3464159 C20.5211377,38.8411905 20.7283253,40.3291552 21.1444392,41.767748 C21.5586696,43.1998147 22.1758859,44.5707341 22.9756591,45.8366674 C23.8794608,47.2670317 24.8267284,48.5650283 25.8871524,49.883029 C26.377593,50.4925157 26.8928092,51.1151966 27.2538663,51.8092396 C28.0340798,53.3094054 28.0256764,55.3021544 28.0256764,56.9474563 L28.0256764,59.0651955 L28.0230684,59.0951307 Z" id="Fill-1" fill="#FEFEFE"></path>
                            <path d="M10.791699,63.6088462 L10.791699,63.6088462 C11.3139643,64.1298776 12.1696491,64.1308913 12.6907532,63.6088462 L20,56.2873269 L18.1230092,54.4 L10.791699,61.7141339 C10.2694337,62.2351653 10.2694337,63.08767 10.791699,63.6088462" id="Fill-3" fill="#FEFEFE"></path>
                            <g id="Group-7" transform="translate(36.000000, 0.000000)">
                                <mask id="mask-2" fill="white">
                                    <use xlink:href="#path-1"></use>
                                </mask>
                                <g id="Clip-6"></g>
                                <path d="M1.2273,0.0162612658 L1.2273,0.0162612658 C1.83786,0.0162612658 2.33754,0.606458734 2.33754,1.32779544 L2.33754,11.1022765 C1.94094,11.0754815 1.54266,11.0617296 1.14294,11.0617296 C0.79974,11.0617296 0.45786,11.0716537 0.11706,11.0915018 L0.11706,1.32779544 C0.11706,0.606458734 0.61662,0.0162612658 1.2273,0.0162612658" id="Fill-5" fill="#FEFEFE" mask="url(#mask-2)"></path>
                            </g>
                            <path d="M10.7952187,10.7933644 L10.7952187,10.7933644 C11.322177,10.2688785 12.1843793,10.2688785 12.7113376,10.7933644 L20,18.0476825 C19.7964224,18.2389347 19.5953347,18.4335396 19.397469,18.6320804 C18.9564819,19.0743511 18.5335093,19.5306158 18.1289904,20 L10.7952187,12.7004927 C10.2682604,12.1760069 10.2682604,11.3178502 10.7952187,10.7933644" id="Fill-8" fill="#FEFEFE"></path>
                            <path d="M63.6093701,10.788317 L63.6093701,10.788317 C63.0883854,10.270561 62.2363388,10.270561 61.7154989,10.788317 L54.4,18.0605014 C54.5609711,18.2136121 54.7203498,18.3687375 54.8778467,18.5264531 C55.3522192,19.0016144 55.8051676,19.4933243 56.2366917,20 L63.6093701,12.6709747 C64.13021,12.1532187 64.13021,11.3060731 63.6093701,10.788317" id="Fill-10" fill="#FEFEFE"></path>
                            <g id="Group-14" transform="translate(0.000000, 36.800000)">
                                <mask id="mask-4" fill="white">
                                    <use xlink:href="#path-3"></use>
                                </mask>
                                <g id="Clip-13"></g>
                                <path d="M11.8936857,0.00344842105 L1.32168571,0.00344842105 C0.594685714,0.00344842105 -2.85714286e-05,0.529301053 -2.85714286e-05,1.17199579 L-2.85714286e-05,1.17212211 C-2.85714286e-05,1.81481684 0.594685714,2.34066947 1.32168571,2.34066947 L11.8936857,2.34066947 L11.8936857,0.835364211 C11.8905429,0.693258947 11.8889714,0.550901053 11.8889714,0.408669474 C11.8889714,0.273385263 11.8908286,0.138353684 11.8936857,0.00344842105" id="Fill-12" fill="#FEFEFE" mask="url(#mask-4)"></path>
                            </g>
                            <path d="M63.6087457,63.6079396 L63.6087457,63.6079396 C63.0871459,64.1310502 62.2344359,64.1303233 61.7121112,63.6079396 L54.4,56.2945678 L56.3241787,54.4 L63.6087457,61.7056662 C64.1304906,62.2287768 64.1303456,63.0846835 63.6087457,63.6079396" id="Fill-15" fill="#FEFEFE"></path>
                            <g id="Group-19" transform="translate(61.600000, 36.800000)">
                                <mask id="mask-6" fill="white">
                                    <use xlink:href="#path-5"></use>
                                </mask>
                                <g id="Clip-18"></g>
                                <path d="M0.142938353,0.00344842105 L11.2870701,0.00344842105 C12.0534136,0.00344842105 12.6801619,0.529301053 12.6801619,1.17199579 L12.6801619,1.17212211 C12.6801619,1.81481684 12.0534136,2.34066947 11.2870701,2.34066947 L0.112820706,2.34066947 L0.112820706,1.55586947 C0.136011294,1.17401684 0.147757176,0.791406316 0.147757176,0.408669474 C0.147757176,0.273385263 0.145950118,0.138353684 0.142938353,0.00344842105" id="Fill-17" fill="#FEFEFE" mask="url(#mask-6)"></path>
                            </g>
                            <path d="M28.7601313,63.2 L45.6398687,63.2 C46.05799,63.2 46.4,63.5598008 46.4,63.9998525 L46.4,64 C46.4,64.4399041 46.05799,64.8 45.6398687,64.8 L28.7601313,64.8 C28.34201,64.8 28,64.4399041 28,64 L28,63.9998525 C28,63.5598008 28.34201,63.2 28.7601313,63.2" id="Fill-20" fill="#FEFEFE"></path>
                            <path d="M28.7766054,66.4 L44.8233946,66.4 C45.2505777,66.4 45.6,66.7598008 45.6,67.2 C45.6,67.6399041 45.2505777,68 44.8233946,68 L28.7766054,68 C28.3494223,68 28,67.6399041 28,67.2 C28,66.7598008 28.3494223,66.4 28.7766054,66.4" id="Fill-22" fill="#FEFEFE"></path>
                            <path d="M29.5763737,68.8 L44.8234831,68.8 C45.2507607,68.8 45.6,69.1599484 45.6,69.6 C45.6,70.0400516 45.2507607,70.4 44.8234831,70.4 L29.5763737,70.4 C29.1493825,70.4 28.8,70.0400516 28.8,69.6 C28.8,69.1599484 29.1493825,68.8 29.5763737,68.8" id="Fill-24" fill="#FEFEFE"></path>
                            <path d="M36.1819518,71.2 L37.4181306,71.2 L42.4711158,71.2 C43.8699876,71.2 44.22892,72.0952414 43.8701316,72.7857968 L40.9530318,77.6 L37.4181306,77.6 L36.1819518,77.6 L32.6470506,77.6 L29.7298069,72.7857968 C29.3711624,72.0952414 29.7299509,71.2 31.1289666,71.2 L36.1819518,71.2 Z" id="Fill-26" fill="#FEFEFE"></path>
                            <path d="M50.3831334,34.3634318 C50.1050149,31.920202 47.20148,22.7088913 37.3091859,22.4011984 C35.3329923,22.3391366 35.9043308,24.7091131 36.9948519,24.5041783 C46.514084,24.6357145 48.3904401,35.2628194 48.3960333,35.2931963 C48.9501729,36.5140845 50.5830879,36.1210748 50.3831334,34.3634318" id="Fill-28" fill="#FEFEFE"></path>
                        </g>
                    </g>
                </g>
            </g>
        </g>
    </g>
</svg>