<?xml version="1.0" encoding="UTF-8"?>
<svg width="21px" height="21px" viewBox="0 0 21 21" version="1.1" xmlns="http://www.w3.org/2000/svg" xmlns:xlink="http://www.w3.org/1999/xlink">
    <!-- Generator: Sketch 52.6 (67491) - http://www.bohemiancoding.com/sketch -->
    <title>pre-fill</title>
    <desc>Created with Sketch.</desc>
    <g id="Page-1" stroke="none" stroke-width="1" fill="none" fill-rule="evenodd">
        <g id="View-samples-screen-Copy" transform="translate(-963.000000, -425.000000)" fill="#0075CB" fill-rule="nonzero" stroke="#0075CB">
            <g id="Upload" transform="translate(447.000000, 128.000000)">
                <g id="Rectangle-4">
                    <g id="Group-5-Copy" transform="translate(516.000000, 297.000000)">
                        <g id="Group-18">
                            <g id="noun_Next_322161">
                                <path d="M10.1696111,0.669398148 C4.92287767,0.669398148 0.669611111,4.92266471 0.669611111,10.1693981 C0.669611111,15.4160197 4.92293872,19.6693981 10.1696111,19.6693981 C15.4162835,19.6693981 19.6696111,15.4160197 19.6696111,10.1693981 C19.6696111,4.92266471 15.4163446,0.669398148 10.1696111,0.669398148 Z M13.3780115,11.3603963 L9.6596533,15.0787544 C9.38750357,15.3511623 9.02321294,15.4989102 8.64576701,15.4989102 C8.26841528,15.4989102 7.90435263,15.3512264 7.63204831,15.0789221 C7.07210781,14.5189816 7.07210781,13.6109868 7.63201996,13.0513401 L10.5124341,10.170464 L7.64821794,7.30624775 C7.08837519,6.74613954 7.08837519,5.83838229 7.64830173,5.27872127 C8.20811386,4.71890914 9.11574166,4.71890914 9.67590384,5.27854018 L13.377831,8.98029602 C13.4471945,9.02855804 13.5112925,9.08155801 13.5699882,9.14046349 C13.8481755,9.41865085 13.9950763,9.79270757 13.9885084,10.1612369 C13.9956171,10.5475659 13.8488237,10.9217451 13.570334,11.2002348 C13.5111796,11.2593892 13.4471376,11.3122969 13.3780115,11.3603963 Z" id="pre-fill" transform="translate(10.169611, 10.169398) scale(-1, 1) translate(-10.169611, -10.169398) "></path>
                            </g>
                        </g>
                    </g>
                </g>
            </g>
        </g>
    </g>
</svg>