<?xml version="1.0" encoding="UTF-8"?>
<svg width="22px" height="22px" viewBox="0 0 22 22" version="1.1" xmlns="http://www.w3.org/2000/svg" xmlns:xlink="http://www.w3.org/1999/xlink">
    <!-- Generator: Sketch 52.6 (67491) - http://www.bohemiancoding.com/sketch -->
    <title>noun_Next_322161</title>
    <desc>Created with Sketch.</desc>
    <g id="Page-1" stroke="none" stroke-width="1" fill="none" fill-rule="evenodd">
        <g id="View-samples-screen-Copy" transform="translate(-988.000000, -424.000000)" fill-rule="nonzero">
            <g id="Upload" transform="translate(447.000000, 128.000000)">
                <g id="Rectangle-4">
                    <g id="Group-5-Copy" transform="translate(541.000000, 297.000000)">
                        <g id="Group-18">
                            <g id="noun_Next_322161" transform="translate(10.500000, 10.500000) scale(-1, 1) translate(-10.500000, -10.500000) ">
                                <path d="M10.1696111,0.169398148 C4.64673529,0.169398148 0.169611111,4.64652233 0.169611111,10.1693981 C0.169611111,15.6921011 4.64673529,20.1693981 10.1696111,20.1693981 C15.6924869,20.1693981 20.1696111,15.6921011 20.1696111,10.1693981 C20.1696111,4.64652233 15.6924869,0.169398148 10.1696111,0.169398148 Z" id="next-no-fill" stroke="#0075CB" fill="#FFFFFF"></path>
                                <path d="M13.2167806,10.8466814 C13.1680204,10.8954417 13.1145916,10.9365939 13.058915,10.972386 L9.30593231,14.7253687 C9.12368657,14.9077873 8.88472679,14.9989102 8.64576701,14.9989102 C8.40680722,14.9989102 8.16802035,14.9077873 7.9856017,14.7253687 C7.62093732,14.3607043 7.62093732,13.7693567 7.9856017,13.4048652 L11.2195126,10.1704356 L8.00185512,6.95277817 C7.63719074,6.58794087 7.63719074,5.99676613 8.00185512,5.63227466 C8.3665195,5.26761027 8.95769425,5.26778318 9.32235863,5.63210175 L13.0587421,9.36831228 C13.1144187,9.40410438 13.1678474,9.44525664 13.2164348,9.49401688 C13.4028303,9.68041243 13.4927428,9.92594274 13.488593,10.1704356 C13.4930887,10.4147556 13.4033491,10.660113 13.2167806,10.8466814 Z" id="Path" fill="#0075CB"></path>
                            </g>
                        </g>
                    </g>
                </g>
            </g>
        </g>
    </g>
</svg>