<?xml version="1.0" encoding="UTF-8"?>
<svg width="34px" height="34px" viewBox="0 0 34 34" version="1.1" xmlns="http://www.w3.org/2000/svg" xmlns:xlink="http://www.w3.org/1999/xlink">
    <!-- Generator: Sketch 54.1 (76490) - https://sketchapp.com -->
    <title>Sub-title1</title>
    <desc>Created with Sketch.</desc>
    <g id="Page-1" stroke="none" stroke-width="1" fill="none" fill-rule="evenodd">
        <g id="Start-Calibaration" transform="translate(-1081.000000, -330.000000)">
            <g id="Sub-title1" transform="translate(1081.000000, 330.000000)">
                <rect id="Rectangle" fill="#000000" opacity="0.5" x="0" y="0" width="34" height="34" rx="6"></rect>
                <g id="sub-title_1900362-copy" transform="translate(8.000000, 8.000000)" fill="#FFFFFF" fill-rule="nonzero">
                    <path d="M15.4048899,17.1809252 C15.3142574,17.1809252 15.2240898,17.1544326 15.1462388,17.1021447 L9.80241119,13.5207692 L0.551163742,13.5207692 C0.294604241,13.5207692 0.0863820374,13.312547 0.0863820374,13.0559875 L0.0863820374,0.797370062 C0.0863820374,0.540810561 0.294604241,0.332588358 0.551163742,0.332588358 L18.3095431,0.332588358 C18.5661026,0.332588358 18.7743248,0.540810561 18.7743248,0.797370062 L18.7743248,13.0559875 C18.7743248,13.312547 18.5661026,13.5207692 18.3095431,13.5207692 L15.8357425,13.5207692 L15.8689744,16.6452642 C15.8724602,16.6685033 15.874087,16.6922072 15.874087,16.7161435 C15.874087,16.972703 15.6658648,17.1809252 15.4093053,17.1809252 C15.4076785,17.1806928 15.4062842,17.1809252 15.4048899,17.1809252 Z M1.53104879,12.0761025 L9.94370482,12.0761025 C10.0357316,12.0761025 10.1258993,12.1035246 10.2023558,12.154883 L14.6690177,15.3365988 L14.9012989,12.5457644 C14.8999045,12.4216677 14.9482418,12.3022188 15.0356208,12.2139103 C15.1229998,12.1258341 15.2419839,12.0761025 15.3660806,12.0761025 L17.3296581,12.0761025 L17.3296581,1.77725511 L1.53104879,1.77725511 L1.53104879,12.0761025 Z M16.3730301,8.5562506 C16.3730301,8.37033792 16.1648079,8.21945227 15.9082484,8.21945227 L2.95245842,8.21945227 C2.69589892,8.21945227 2.48767672,8.37033792 2.48767672,8.5562506 C2.48767672,8.74216328 2.69589892,8.89304894 2.95245842,8.89304894 L15.9082484,8.89304894 C16.1648079,8.89304894 16.3730301,8.74216328 16.3730301,8.5562506 Z M11.077075,10.4174049 C11.077075,10.2314923 10.8688528,10.0806066 10.6122933,10.0806066 L2.95245842,10.0806066 C2.69589892,10.0806066 2.48767672,10.2314923 2.48767672,10.4174049 C2.48767672,10.6033176 2.69589892,10.7542033 2.95245842,10.7542033 L10.6122933,10.7542033 C10.8688528,10.7542033 11.077075,10.603486 11.077075,10.4174049 Z" id="Shape"></path>
                </g>
            </g>
        </g>
    </g>
</svg>