<?xml version="1.0" encoding="UTF-8"?>
<svg width="100px" height="100px" viewBox="0 0 100 100" version="1.1" xmlns="http://www.w3.org/2000/svg" xmlns:xlink="http://www.w3.org/1999/xlink">
    <!-- Generator: Sketch 59.1 (86144) - https://sketch.com -->
    <title>Appropriate Pauses</title>
    <desc>Created with Sketch.</desc>
    <defs>
        <linearGradient x1="50%" y1="0%" x2="50%" y2="113.102087%" id="linearGradient-1">
            <stop stop-color="#0075CB" offset="0%"></stop>
            <stop stop-color="#4052C8" offset="100%"></stop>
        </linearGradient>
        <linearGradient x1="50%" y1="0%" x2="50%" y2="113.102087%" id="linearGradient-2">
            <stop stop-color="#0075CB" offset="0%"></stop>
            <stop stop-color="#4052C8" offset="100%"></stop>
        </linearGradient>
    </defs>
    <g id="Appropriate-Pauses" stroke="none" stroke-width="1" fill="none" fill-rule="evenodd">
        <g id="Group" transform="translate(8.225911, 8.000000)">
            <circle id="Oval" fill="#F3F8FE" cx="42" cy="42" r="42"></circle>
            <g id="Group-8" transform="translate(1.774089, 8.500000)">
                <path d="M81,5.66666667 L81,47 C81,49.852 78.732,52.1666667 75.9375,52.1666667 L10.125,52.1666667 L0,62.5 L0,5.66666667 C0,2.81466667 2.268,0.5 5.0625,0.5 L75.9375,0.5 C78.732,0.5 81,2.81466667 81,5.66666667 Z" id="Stroke-1" stroke="url(#linearGradient-1)" stroke-width="2" fill="#FFFFFF" stroke-linejoin="bevel"></path>
                <polygon id="Fill-5" fill="url(#linearGradient-2)" points="25 42.5 35 42.5 35 11.5 25 11.5"></polygon>
                <polygon id="Fill-7" fill="url(#linearGradient-2)" points="46 42.5 56 42.5 56 11.5 46 11.5"></polygon>
            </g>
        </g>
    </g>
</svg>