<svg xmlns="http://www.w3.org/2000/svg" width="56" height="52.615" viewBox="0 0 56 52.615">
    <defs>
        <linearGradient id="vx9ihnvyma" x1=".5" x2=".5" y2="1" gradientUnits="objectBoundingBox">
            <stop offset="0" stop-color="#0075cb"/>
            <stop offset="1" stop-color="#3658c9"/>
        </linearGradient>
    </defs>
    <path fill="url(#vx9ihnvyma)" d="M50.145 43.87L38.468 32.217l11.565-11.578 2.225-1.022a.935.935 0 0 0 .343-.268l4.985-6.281a.935.935 0 0 0-.069-1.246l-3.782-3.77a.935.935 0 0 0-1.246-.075l-6.169 4.867a.935.935 0 0 0-.262.33l-1.135 2.356L33.37 27.1l-7.64-7.627a8.8 8.8 0 0 0-2.343-8.624A8.687 8.687 0 0 0 13.268 9.1a.935.935 0 0 0-.218 1.483l4.106 4.106-1.4 1.4-4.106-4.106a.935.935 0 0 0-1.483.218 8.687 8.687 0 0 0 1.745 10.126 8.8 8.8 0 0 0 8.63 2.362l5.29 5.29-1.242 1.248a.935.935 0 0 0 0 1.321 1.178 1.178 0 0 1 .355.773.835.835 0 0 1-.231.623.823.823 0 0 1-.623.231 1.171 1.171 0 0 1-.773-.355.935.935 0 0 0-.7-.268.935.935 0 0 0-.661.274L7.3 48.5a6.711 6.711 0 0 0-.075 9.2 7.235 7.235 0 0 0 5.147 2.461h.2a6.088 6.088 0 0 0 4.362-1.77l14.8-14.806a.935.935 0 0 0 0-1.321 1.184 1.184 0 0 1-.355-.773.829.829 0 0 1 .231-.623 1.022 1.022 0 0 1 1.421.125.935.935 0 0 0 1.321 0l1.248-1.248 9.347 9.347a8.8 8.8 0 0 0 2.343 8.624 9.042 9.042 0 0 0 6.35 2.673 7.945 7.945 0 0 0 3.739-.928.935.935 0 0 0 .218-1.483l-4.1-4.106 1.4-1.4 4.106 4.1a.935.935 0 0 0 1.483-.218 8.592 8.592 0 0 0-1.732-10.12 8.786 8.786 0 0 0-8.612-2.362zm-3.782-27.131a.935.935 0 0 0 .181-.255l1.109-2.306L53 9.959l2.6 2.6-4.364 5.451-2.169 1a.929.929 0 0 0-.268.187L36.486 31.532l-2.443 2.443-2.455-2.455 2.443-2.42zm-25.91 6.007A6.854 6.854 0 0 1 13.224 21a6.979 6.979 0 0 1-1.907-6.7l3.739 3.739a.935.935 0 0 0 1.321 0l2.723-2.727a.935.935 0 0 0 0-1.321l-3.739-3.739a6.979 6.979 0 0 1 6.7 1.907 6.855 6.855 0 0 1 1.739 7.228.935.935 0 0 0 .212.991l8.032 8.038-1.777 1.784-.112-.112a3.346 3.346 0 0 0-.442-.368l-.125-.081a3.271 3.271 0 0 0-.474-.255 3.178 3.178 0 0 0-.53-.162h-.131a3.072 3.072 0 0 0-.53-.056H27.6l-6.182-6.182a.935.935 0 0 0-.966-.237zm13.84 15.641l-.71.685a2.817 2.817 0 0 0-3.3.436 2.679 2.679 0 0 0-.773 2.056 2.985 2.985 0 0 0 .343 1.246L15.611 57.068a4.219 4.219 0 0 1-3.178 1.246 5.359 5.359 0 0 1-3.807-1.832 4.842 4.842 0 0 1 0-6.63L22.74 35.707a2.991 2.991 0 0 0 1.246.336 2.667 2.667 0 0 0 2.823-2.823 2.979 2.979 0 0 0-.343-1.246l.7-.7a.916.916 0 0 1 .4-.231 1.315 1.315 0 0 1 1.246.368l1.2 1.2 3.371 3.352.773.773a1.3 1.3 0 0 1 .368 1.246.941.941 0 0 1-.231.411zM59.38 54.251l-3.739-3.739a.935.935 0 0 0-1.321 0l-2.72 2.724a.935.935 0 0 0 0 1.321l3.736 3.743a6.973 6.973 0 0 1-6.724-1.9 6.854 6.854 0 0 1-1.739-7.228.935.935 0 0 0-.212-.991L36.43 37.944v-.287q.007-.149 0-.3v-.081a3.116 3.116 0 0 0-.075-.374l-.031-.106a.725.725 0 0 0-.093-.268l-.056-.125c-.037-.081-.075-.156-.118-.231l-.069-.125c-.05-.081-.1-.156-.156-.231l-.075-.1a3.407 3.407 0 0 0-.268-.305l-.069-.081-.056-.056.891-.891.891-.891 12.089 12.092a.935.935 0 0 0 .991.212 6.854 6.854 0 0 1 7.228 1.739 6.973 6.973 0 0 1 1.925 6.717z" transform="translate(-5.444 -7.774)"/>
</svg>
