<svg xmlns="http://www.w3.org/2000/svg" xmlns:xlink="http://www.w3.org/1999/xlink" width="55" height="55" viewBox="0 0 55 55">
  <defs>
    <linearGradient id="linear-gradient" x1="0.5" x2="0.5" y2="1" gradientUnits="objectBoundingBox">
      <stop offset="0" stop-color="#0075cb"/>
      <stop offset="1" stop-color="#375cbc"/>
    </linearGradient>
  </defs>
  <g id="Group_45472" data-name="Group 45472" transform="translate(-8426 18359)">
    <rect id="Rectangle_3723" data-name="Rectangle 3723" width="55" height="55" transform="translate(8426 -18359)" fill="none"/>
    <g id="Group_45471" data-name="Group 45471">
      <circle id="Ellipse_3227" data-name="Ellipse 3227" cx="23.5" cy="23.5" r="23.5" transform="translate(8430 -18355)" fill="#f3f8fe"/>
      <path id="noun_tools_1085262" d="M39.765,35.488,30.8,26.541l8.88-8.889,1.708-.785a.718.718,0,0,0,.263-.206l3.827-4.823a.718.718,0,0,0-.053-.957l-2.9-2.895a.718.718,0,0,0-.957-.057l-4.737,3.737a.718.718,0,0,0-.2.254l-.871,1.808-8.87,8.88L21.02,16.753a6.76,6.76,0,0,0-1.8-6.622,6.669,6.669,0,0,0-7.77-1.34.718.718,0,0,0-.167,1.139l3.153,3.153-1.072,1.076-3.153-3.153a.718.718,0,0,0-1.139.167,6.669,6.669,0,0,0,1.34,7.775,6.756,6.756,0,0,0,6.626,1.813L21.1,24.824l-.957.957a.718.718,0,0,0,0,1.014.9.9,0,0,1,.273.593.641.641,0,0,1-.177.478.632.632,0,0,1-.478.177.9.9,0,0,1-.593-.273.718.718,0,0,0-.541-.206h0a.718.718,0,0,0-.507.211L6.872,39.043A5.153,5.153,0,0,0,6.815,46.1a5.555,5.555,0,0,0,3.952,1.89h.153a4.674,4.674,0,0,0,3.349-1.359L25.632,35.268a.718.718,0,0,0,0-1.014.909.909,0,0,1-.273-.593.636.636,0,0,1,.177-.478.785.785,0,0,1,1.091.1.718.718,0,0,0,1.014,0l.957-.957L35.775,39.5a6.756,6.756,0,0,0,1.8,6.622,6.942,6.942,0,0,0,4.875,2.052,6.1,6.1,0,0,0,2.871-.713.718.718,0,0,0,.167-1.139l-3.148-3.153,1.076-1.076,3.153,3.148a.718.718,0,0,0,1.139-.167,6.6,6.6,0,0,0-1.33-7.77,6.746,6.746,0,0,0-6.612-1.813Zm-2.9-20.831a.718.718,0,0,0,.139-.2l.852-1.77,4.1-3.239,2,2L40.6,15.633l-1.665.766a.713.713,0,0,0-.206.144l-9.454,9.473h0L27.4,27.891l-1.885-1.885,1.875-1.856h0ZM16.967,19.269a5.263,5.263,0,0,1-5.55-1.34,5.358,5.358,0,0,1-1.464-5.148l2.871,2.871a.718.718,0,0,0,1.014,0l2.091-2.091a.718.718,0,0,0,0-1.014L13.059,9.676a5.358,5.358,0,0,1,5.148,1.464,5.263,5.263,0,0,1,1.335,5.55.718.718,0,0,0,.163.761l6.167,6.172L24.5,24.991l-.086-.086a2.569,2.569,0,0,0-.34-.282l-.1-.062a2.512,2.512,0,0,0-.364-.2h0a2.44,2.44,0,0,0-.407-.124h-.1A2.358,2.358,0,0,0,22.7,24.2h-.249l-4.746-4.746a.718.718,0,0,0-.742-.182ZM27.593,31.278l-.545.526a2.163,2.163,0,0,0-2.531.335,2.057,2.057,0,0,0-.593,1.579,2.292,2.292,0,0,0,.263.957L13.25,45.621a3.239,3.239,0,0,1-2.44.957,4.115,4.115,0,0,1-2.923-1.407,3.717,3.717,0,0,1,0-5.091l10.837-10.86a2.3,2.3,0,0,0,.957.258,2.048,2.048,0,0,0,2.167-2.167,2.287,2.287,0,0,0-.263-.957l.541-.541a.7.7,0,0,1,.306-.177,1.01,1.01,0,0,1,.957.282l.919.919,2.588,2.574h0l.593.593a1,1,0,0,1,.282.957h0a.722.722,0,0,1-.177.316ZM46.855,43.459l-2.871-2.871a.718.718,0,0,0-1.014,0L40.88,42.679a.718.718,0,0,0,0,1.014l2.871,2.871A5.354,5.354,0,0,1,38.588,45.1a5.263,5.263,0,0,1-1.335-5.55.718.718,0,0,0-.163-.761l-7.856-7.856v-.22q.006-.115,0-.23v-.062a2.393,2.393,0,0,0-.057-.287l-.024-.081a.557.557,0,0,0-.072-.206l-.043-.1c-.029-.062-.057-.12-.091-.177l-.053-.1c-.038-.062-.077-.12-.12-.177l-.057-.077A2.617,2.617,0,0,0,28.512,29l-.053-.062-.043-.043.684-.684.684-.684L39.066,36.8a.718.718,0,0,0,.761.163,5.263,5.263,0,0,1,5.55,1.335,5.354,5.354,0,0,1,1.478,5.158Z" transform="translate(8426.557 -18359.773)" fill="url(#linear-gradient)"/>
    </g>
  </g>
</svg>
