<?xml version="1.0" encoding="UTF-8"?>
<svg width="18px" height="18px" viewBox="0 0 18 18" version="1.1" xmlns="http://www.w3.org/2000/svg" xmlns:xlink="http://www.w3.org/1999/xlink">
    <!-- Generator: sketchtool 55.2 (78181) - https://sketchapp.com -->
    <title>C61FD097-1ACE-46BD-853F-43F2986B33E7</title>
    <desc>Created with sketchtool.</desc>
    <g id="EP-calibration" stroke="none" stroke-width="1" fill="none" fill-rule="evenodd">
        <g id="002" transform="translate(-751.000000, -257.000000)">
            <g id="round-border_color-24px" transform="translate(751.000000, 257.000000)">
                <polygon id="Path" points="0 0.72 18 0.72 18 18 0 18"></polygon>
                <path class="editBasicInfo" d="M13.3125,5.76 L10.5,3.06 L3.1125,10.152 C3.0375,10.224 3,10.3104 3,10.4112 L3,12.6 C3,12.8016 3.165,12.96 3.375,12.96 L5.655,12.96 C5.7525,12.96 5.85,12.924 5.9175,12.852 L13.3125,5.76 Z M15.5325,3.6288 C15.825,3.348 15.825,2.8944 15.5325,2.6136 L13.7775,0.9288 C13.485,0.648 13.0125,0.648 12.72,0.9288 L11.25,2.34 L14.0625,5.04 L15.5325,3.6288 Z" id="Shape" fill="#0075CB" fill-rule="nonzero"></path>
                <path d="M1.5,15.12 L16.5,15.12 C17.325,15.12 18,15.768 18,16.56 C18,17.352 17.325,18 16.5,18 L1.5,18 C0.675,18 0,17.352 0,16.56 C0,15.768 0.675,15.12 1.5,15.12 Z" class="editBasicInfo" fill="#0075CB" fill-rule="nonzero"></path>
            </g>
        </g>
    </g>
</svg>