<?xml version="1.0" encoding="UTF-8"?>
<svg width="20px" height="20px" viewBox="0 0 20 20" version="1.1" xmlns="http://www.w3.org/2000/svg" xmlns:xlink="http://www.w3.org/1999/xlink">
    <!-- Generator: sketchtool 55.2 (78181) - https://sketchapp.com -->
    <title>1C48389E-BC97-444F-8A2D-BCD6517974F8</title>
    <desc>Created with sketchtool.</desc>
    <g id="EP-calibration" stroke="none" stroke-width="1" fill="none" fill-rule="evenodd">
        <g id="006" transform="translate(-861.000000, -657.000000)">
            <g id="Primary-button---Regular-Copy" transform="translate(859.000000, 655.000000)">
                <g id="baseline-check_circle_outline-24px">
                    <path d="M0,0 L24,0 L24,24 L0,24 L0,0 Z M0,0 L24,0 L24,24 L0,24 L0,0 Z" id="Shape"></path>
                    <path d="M16.59,7.58 L10,14.17 L6.41,10.59 L5,12 L10,17 L18,9 L16.59,7.58 Z M12,2 C6.48,2 2,6.48 2,12 C2,17.52 6.48,22 12,22 C17.52,22 22,17.52 22,12 C22,6.48 17.52,2 12,2 Z M12,20 C7.58,20 4,16.42 4,12 C4,7.58 7.58,4 12,4 C16.42,4 20,7.58 20,12 C20,16.42 16.42,20 12,20 Z" id="Shape" fill="#46A879" fill-rule="nonzero"></path>
                </g>
            </g>
        </g>
    </g>
</svg>