<?xml version="1.0" encoding="UTF-8"?>
<svg width="100px" height="100px" viewBox="0 0 100 100" version="1.1" xmlns="http://www.w3.org/2000/svg" xmlns:xlink="http://www.w3.org/1999/xlink">
    <!-- Generator: Sketch 59.1 (86144) - https://sketch.com -->
    <title>Eye Contact</title>
    <desc>Created with Sketch.</desc>
    <defs>
        <linearGradient x1="50%" y1="0%" x2="50%" y2="113.102087%" id="linearGradient-1">
            <stop stop-color="#0075CB" offset="0%"></stop>
            <stop stop-color="#4052C8" offset="100%"></stop>
        </linearGradient>
        <linearGradient x1="50%" y1="0%" x2="50%" y2="113.102087%" id="linearGradient-2">
            <stop stop-color="#0274CB" offset="0%"></stop>
            <stop stop-color="#4656B8" offset="100%"></stop>
        </linearGradient>
        <linearGradient x1="50%" y1="0%" x2="50%" y2="113.102087%" id="linearGradient-3">
            <stop stop-color="#0075CB" offset="0%"></stop>
            <stop stop-color="#4052C8" offset="100%"></stop>
        </linearGradient>
        <linearGradient x1="50%" y1="0%" x2="50%" y2="113.102087%" id="linearGradient-4">
            <stop stop-color="#0075CB" offset="0%"></stop>
            <stop stop-color="#4052C8" offset="100%"></stop>
        </linearGradient>
    </defs>
    <g id="Eye-Contact" stroke="none" stroke-width="1" fill="none" fill-rule="evenodd">
        <g id="Group" transform="translate(3.000000, 8.000000)">
            <circle id="Oval" fill="#F3F8FE" cx="47.2259105" cy="42" r="42"></circle>
            <g id="Group-45" transform="translate(0.000000, 6.000000)">
                <path d="M89,41 C78.3671598,53.6152192 63.2651675,61.5 46.4994685,61.5 C29.7348325,61.5 14.6339032,53.6152192 4,41 C14.6339032,28.3847808 29.7348325,20.5 46.4994685,20.5 C63.2651675,20.5 78.3671598,28.3847808 89,41" id="Fill-1" stroke="url(#linearGradient-1)" stroke-width="2" fill="#FFFFFF" stroke-linecap="round" stroke-linejoin="round"></path>
                <path d="M61,40.5 C61,48.7840404 54.2838033,55.5 45.9994706,55.5 C37.7151378,55.5 31,48.7840404 31,40.5 C31,32.2159596 37.7151378,25.5 45.9994706,25.5 C54.2838033,25.5 61,32.2159596 61,40.5" id="Fill-7" fill="#E9F5FF"></path>
                <path d="M61,40.5 C61,48.7840404 54.2838033,55.5 45.9994706,55.5 C37.7151378,55.5 31,48.7840404 31,40.5 C31,32.2159596 37.7151378,25.5 45.9994706,25.5 C54.2838033,25.5 61,32.2159596 61,40.5 Z" id="Stroke-9" stroke="url(#linearGradient-2)" stroke-width="2" fill="#C9D0EA" stroke-linecap="round"></path>
                <path d="M54,40.5 C54,44.9181333 50.4181333,48.5 46,48.5 C41.5818667,48.5 38,44.9181333 38,40.5 C38,36.0818667 41.5818667,32.5 46,32.5 C50.4181333,32.5 54,36.0818667 54,40.5" id="Fill-11" fill="url(#linearGradient-3)"></path>
                <path d="M55,35 C55,36.9332433 53.4334783,38.5 51.500525,38.5 C49.5675716,38.5 48,36.9332433 48,35 C48,33.0667567 49.5675716,31.5 51.500525,31.5 C53.4334783,31.5 55,33.0667567 55,35" id="Fill-13" fill="#FFFFFF"></path>
                <path d="M55,35 C55,36.9332433 53.4334783,38.5 51.500525,38.5 C49.5675716,38.5 48,36.9332433 48,35 C48,33.0667567 49.5675716,31.5 51.500525,31.5 C53.4334783,31.5 55,33.0667567 55,35 Z" id="Stroke-15" stroke="#1E4671" stroke-width="1.6"></path>
                <path d="M55,35 C55,36.9332433 53.4334783,38.5 51.500525,38.5 C49.5675716,38.5 48,36.9332433 48,35 C48,33.0667567 49.5675716,31.5 51.500525,31.5 C53.4334783,31.5 55,33.0667567 55,35" id="Fill-17" fill="#FFFFFF"></path>
                <path d="M55,35 C55,36.9332433 53.4334783,38.5 51.500525,38.5 C49.5675716,38.5 48,36.9332433 48,35 C48,33.0667567 49.5675716,31.5 51.500525,31.5 C53.4334783,31.5 55,33.0667567 55,35 Z" id="Stroke-19" stroke="#1E4671" stroke-width="1.6"></path>
                <path d="M55,35 C55,36.9332433 53.4334783,38.5 51.500525,38.5 C49.5675716,38.5 48,36.9332433 48,35 C48,33.0667567 49.5675716,31.5 51.500525,31.5 C53.4334783,31.5 55,33.0667567 55,35" id="Fill-21" fill="#FFFFFF"></path>
                <path d="M55,35 C55,36.9332433 53.4334783,38.5 51.500525,38.5 C49.5675716,38.5 48,36.9332433 48,35 C48,33.0667567 49.5675716,31.5 51.500525,31.5 C53.4334783,31.5 55,33.0667567 55,35 Z" id="Stroke-23" stroke="url(#linearGradient-2)" stroke-width="2" fill="#FFFFFF" stroke-linecap="round"></path>
                <g id="Group-28" transform="translate(0.000000, 0.500000)">
                    <line x1="45.3569" y1="2.51750833" x2="45.3569" y2="14.3355917" id="Fill-25" fill="#FFFFFF"></line>
                    <path d="M46.3569,0.517508333 L46.3569,12.3355917 M92.7141,20.1393333 L85.0001,28.7104444 M92.7141,20.1393333 L85.0001,28.7104444 M0,20.1393333 L7.714,28.7104444 M0,20.1393333 L7.714,28.7104444 M20.6296,5.72957 L26.0846,16.12127 M20.6296,5.72957 L26.0846,16.12127 M75.0842,5.72957 L69.6292,16.12127 M75.0842,5.72957 L69.6292,16.12127" id="Combined-Shape" stroke="url(#linearGradient-4)" stroke-width="4" stroke-linecap="round"></path>
                </g>
            </g>
        </g>
    </g>
</svg>