<?xml version="1.0" encoding="UTF-8"?>
<svg width="100px" height="100px" viewBox="0 0 100 100" version="1.1" xmlns="http://www.w3.org/2000/svg" xmlns:xlink="http://www.w3.org/1999/xlink">
    <!-- Generator: Sketch 59.1 (86144) - https://sketch.com -->
    <title>Hand Gestures</title>
    <desc>Created with Sketch.</desc>
    <defs>
        <linearGradient x1="50%" y1="0%" x2="50%" y2="113.102087%" id="linearGradient-1">
            <stop stop-color="#0075CB" offset="0%"></stop>
            <stop stop-color="#4052C8" offset="100%"></stop>
        </linearGradient>
        <linearGradient x1="50%" y1="0%" x2="50%" y2="113.102087%" id="linearGradient-2">
            <stop stop-color="#0075CB" offset="0%"></stop>
            <stop stop-color="#4052C8" offset="100%"></stop>
        </linearGradient>
        <linearGradient x1="50%" y1="0%" x2="50%" y2="113.102087%" id="linearGradient-3">
            <stop stop-color="#0274CB" offset="0%"></stop>
            <stop stop-color="#4656B8" offset="100%"></stop>
        </linearGradient>
    </defs>
    <g id="Hand-Gestures" stroke="none" stroke-width="1" fill="none" fill-rule="evenodd">
        <circle id="Oval" fill="#F3F8FE" cx="50.2259105" cy="50" r="42"></circle>
        <g id="Group-21" transform="translate(11.000000, 10.000000)">
            <path d="M0.0912055554,29 C-0.513525607,21.1419118 1.8855422,13.3558047 7.39040095,7.65434384 C12.8943571,1.95288299 20.4128804,-0.531865807 28,0.0944628966" id="Stroke-1" stroke="url(#linearGradient-1)" stroke-width="2" stroke-linejoin="bevel"></path>
            <path d="M10.048875,25 C9.724891,20.9354735 11.0097821,16.9077634 13.9587727,13.9587727 C16.9077634,11.0097821 20.9354735,9.724891 25,10.048875" id="Stroke-3" stroke="url(#linearGradient-2)" stroke-width="2" stroke-linejoin="bevel"></path>
            <path d="M76.9087944,45 C77.5135256,52.8580882 75.1144578,60.6441953 69.6095991,66.3456562 C64.1047403,72.047117 56.5871196,74.5318658 49,73.9055371" id="Stroke-5" stroke="url(#linearGradient-1)" stroke-width="2" stroke-linejoin="bevel"></path>
            <path d="M67.9511259,49 C68.2751099,53.0645265 66.9902188,57.0922366 64.0403075,60.0412273 C61.0922371,62.9902179 57.0645267,64.275109 53,63.951125" id="Stroke-7" stroke="url(#linearGradient-2)" stroke-width="2" stroke-linejoin="bevel"></path>
            <path d="M56.066765,49.7617497 L31.2629024,74.6241581 C24.1119919,81.7919473 12.5112189,81.7919473 5.36030838,74.6241581 C0.14133398,69.3928651 -1.26870472,61.7937236 1.13934838,55.2775516 L1.13934838,55.2591962 L3.1079089,33.0032566 C3.27271862,31.0575827 4.98490847,29.6258604 6.91684461,29.8002368 C8.85793685,29.9746133 10.2862877,31.6816668 10.1123219,33.6273407 L11.6139216,42.4012286 L16.3659351,37.6379987 L35.0260576,18.9430094 C36.2712866,17.6856635 38.3039398,17.6856635 39.5583249,18.9430094 C40.8035539,20.1911776 40.8035539,22.2286285 39.5583249,23.4859744 L20.8982024,42.1809637 L23.4893774,44.7782548 L45.1801675,23.0362667 C46.4345526,21.7789209 48.4580497,21.7789209 49.7124347,23.0362667 C50.9668198,24.2936126 50.9668198,26.3218859 49.7124347,27.5792317 L28.0216446,49.3212197 L30.6128196,51.9185108 L49.2637861,33.2143439 C50.5181711,31.9661757 52.5508243,31.9661757 53.7960533,33.2143439 C55.0504384,34.4716897 55.0504384,36.5091407 53.7960533,37.7573089 L35.1450869,56.4614758 L37.7362619,59.0495892 L51.5344977,45.2187847 C52.7797267,43.9706165 54.8123799,43.9706165 56.066765,45.2187847 C57.3110783,46.4761306 57.3110783,48.5135815 56.066765,49.7617497" id="Fill-9" fill="#FFFFFF"></path>
            <path d="M56.066765,49.7617497 L31.2629024,74.6241581 C24.1119919,81.7919473 12.5112189,81.7919473 5.36030838,74.6241581 C0.14133398,69.3928651 -1.26870472,61.7937236 1.13934838,55.2775516 L1.13934838,55.2591962 L3.1079089,33.0032566 C3.27271862,31.0575827 4.98490847,29.6258604 6.91684461,29.8002368 C8.85793685,29.9746133 10.2862877,31.6816668 10.1123219,33.6273407 L11.6139216,42.4012286 L16.3659351,37.6379987 L35.0260576,18.9430094 C36.2712866,17.6856635 38.3039398,17.6856635 39.5583249,18.9430094 C40.8035539,20.1911776 40.8035539,22.2286285 39.5583249,23.4859744 L20.8982024,42.1809637 L23.4893774,44.7782548 L45.1801675,23.0362667 C46.4345526,21.7789209 48.4580497,21.7789209 49.7124347,23.0362667 C50.9668198,24.2936126 50.9668198,26.3218859 49.7124347,27.5792317 L28.0216446,49.3212197 L30.6128196,51.9185108 L49.2637861,33.2143439 C50.5181711,31.9661757 52.5508243,31.9661757 53.7960533,33.2143439 C55.0504384,34.4716897 55.0504384,36.5091407 53.7960533,37.7573089 L35.1450869,56.4614758 L37.7362619,59.0495892 L51.5344977,45.2187847 C52.7797267,43.9706165 54.8123799,43.9706165 56.066765,45.2187847 C57.3110783,46.4761306 57.3110783,48.5135815 56.066765,49.7617497 Z" id="Stroke-11" stroke="url(#linearGradient-3)" stroke-width="2" stroke-linecap="round"></path>
        </g>
    </g>
</svg>