<?xml version="1.0" encoding="UTF-8"?>
<svg width="100px" height="100px" viewBox="0 0 100 100" version="1.1" xmlns="http://www.w3.org/2000/svg" xmlns:xlink="http://www.w3.org/1999/xlink">
    <!-- Generator: Sketch 59.1 (86144) - https://sketch.com -->
    <title>Word Analysis</title>
    <desc>Created with Sketch.</desc>
    <defs>
        <linearGradient x1="50%" y1="0%" x2="50%" y2="113.102087%" id="linearGradient-1">
            <stop stop-color="#0075CB" offset="0%"></stop>
            <stop stop-color="#4052C8" offset="100%"></stop>
        </linearGradient>
        <linearGradient x1="50%" y1="0%" x2="50%" y2="113.102087%" id="linearGradient-2">
            <stop stop-color="#0274CB" offset="0%"></stop>
            <stop stop-color="#4656B8" offset="100%"></stop>
        </linearGradient>
    </defs>
    <g id="Word-Analysis" stroke="none" stroke-width="1" fill="none" fill-rule="evenodd">
        <g id="Group" transform="translate(8.225911, 8.000000)">
            <circle id="Oval" fill="#F3F8FE" cx="42" cy="42" r="42"></circle>
            <g id="Group-19" transform="translate(3.774089, 4.500000)">
                <path d="M17.9179522,51.9254862 L22.6364004,41.5478001 C23.6755193,39.2728119 26.9837346,39.2728119 28.0228536,41.5478001 L32.7413017,51.9254862 L17.9179522,51.9254862 Z M56.7470695,65.2533853 L34.3105834,15.8684809 L33.8440402,14.8400616 L32.8049212,14.3933744 C31.4371014,13.8012541 29.9632491,13.5 28.5,13.5 C27.0367509,13.5 25.5628986,13.8012541 24.1950788,14.3933744 C23.5270737,14.6842405 22.996911,15.2036442 22.7000199,15.8580928 L19.5190436,22.8492667 L0.252930532,65.2533853 C-0.404471235,66.7077157 0.263533786,68.4217479 1.74798939,69.0658085 L6.05291064,70.9460499 C7.53736624,71.5901105 9.2869032,70.9356619 9.94430497,69.4813315 L13.199504,62.3135603 L37.4597499,62.3135603 L41.7646711,71.7874839 C42.4220729,73.2418143 44.1716099,73.896263 45.6560655,73.2522024 L55.2520106,69.0658085 C56.7364662,68.4217479 57.4044712,66.7077157 56.7470695,65.2533853 L56.7470695,65.2533853 Z" id="Fill-1" stroke="url(#linearGradient-1)" stroke-width="2" fill="#FFFFFF" stroke-linejoin="bevel"></path>
                <line x1="33.72" y1="15.495" x2="33.28" y2="14.505" id="Fill-7" fill="#000000"></line>
                <path d="M59,26.3333333 C53.112,26.3333333 48.3333333,21.704 48.3333333,16 C48.3333333,10.296 53.112,5.66666667 59,5.66666667 C64.888,5.66666667 69.6666667,10.296 69.6666667,16 C69.6666667,21.704 64.888,26.3333333 59,26.3333333 M59,0.5 C50.168,0.5 43,7.444 43,16 C43,24.556 50.168,31.5 59,31.5 C67.832,31.5 75,24.556 75,16 C75,7.444 67.832,0.5 59,0.5" id="Fill-9" fill="#FFFFFF"></path>
                <path d="M58.9677419,25.3 C53.6770968,25.3 49.3870968,21.1356667 49.3870968,16 C49.3870968,10.8643333 53.6770968,6.7 58.9677419,6.7 C64.2583871,6.7 68.5483871,10.8643333 68.5483871,16 C68.5483871,21.1356667 64.2583871,25.3 58.9677419,25.3 M75.2229032,1.25433333 C74.743871,0.789333333 74.0732258,0.5 73.3387097,0.5 C71.8696774,0.5 70.6774194,1.65733333 70.6774194,3.08333333 L70.6774194,5.48066667 C67.7712903,2.41166667 63.5983871,0.5 58.9677419,0.5 C50.1535484,0.5 43,7.444 43,16 C43,24.556 50.1535484,31.5 58.9677419,31.5 C63.5983871,31.5 67.7712903,29.5883333 70.6774194,26.5193333 L70.6774194,28.9166667 C70.6774194,30.3426667 71.8696774,31.5 73.3387097,31.5 C74.8077419,31.5 76,30.3426667 76,28.9166667 L76,3.08333333 C76,2.37033333 75.7019355,1.71933333 75.2229032,1.25433333" id="Fill-13" stroke="url(#linearGradient-2)" stroke-width="2" fill="#FFFFFF" stroke-linecap="round"></path>
            </g>
        </g>
    </g>
</svg>