<svg xmlns="http://www.w3.org/2000/svg" xmlns:xlink="http://www.w3.org/1999/xlink" viewBox="0 0 1303.47 916.79"><defs><style>.cls-1{fill:url(#linear-gradient);}.cls-2{fill:url(#linear-gradient-2);}.cls-3{fill:url(#linear-gradient-3);}.cls-4{fill:#9d621e;}.cls-5{fill:#ca3f32;}.cls-6{fill:url(#linear-gradient-4);}.cls-7{fill:#377e5c;}.cls-8{fill:url(#linear-gradient-5);}.cls-9{fill:#b3b3b3;}</style><linearGradient id="linear-gradient" x1="525.6" y1="899.45" x2="525.6" y2="604.45" gradientTransform="translate(0.75 -4.77) rotate(0.03)" gradientUnits="userSpaceOnUse"><stop offset="0" stop-color="#fefefe"/><stop offset="1" stop-color="#ececec"/></linearGradient><linearGradient id="linear-gradient-2" x1="747.6" y1="899.45" x2="747.6" y2="458.45" xlink:href="#linear-gradient"/><linearGradient id="linear-gradient-3" x1="969.6" y1="899.45" x2="969.6" y2="299.45" xlink:href="#linear-gradient"/><linearGradient id="linear-gradient-4" x1="302.6" y1="899.45" x2="302.6" y2="757.45" gradientTransform="translate(0.75 -4.77) rotate(0.03)" gradientUnits="userSpaceOnUse"><stop offset="0" stop-color="#ca3f32" stop-opacity="0"/><stop offset="1" stop-color="#ca3f32" stop-opacity="0.5"/></linearGradient><linearGradient id="linear-gradient-5" x1="1191.8" y1="899.45" x2="1191.8" y2="156.45" xlink:href="#linear-gradient"/></defs><title>level1</title><g id="Layer_2" data-name="Layer 2"><g id="Layer_1-2" data-name="Layer 1"><rect class="cls-1" x="414.99" y="599.94" width="222" height="295"/><rect class="cls-2" x="637.02" y="454.05" width="222" height="441"/><rect class="cls-3" x="859.06" y="295.16" width="222" height="600"/><rect class="cls-4" x="638.13" y="446.05" width="222" height="15" rx="7.5"/><rect class="cls-5" x="191.99" y="744.83" width="222" height="15" rx="7.5"/><rect class="cls-6" x="191.95" y="752.83" width="222" height="142"/><rect class="cls-4" x="415.06" y="592.94" width="222" height="15" rx="7.5"/><rect class="cls-7" x="859.21" y="289.16" width="222" height="15" rx="7.5"/><rect class="cls-7" x="1081.47" y="145.27" width="222" height="15" rx="7.5"/><rect class="cls-8" x="1081.29" y="152.27" width="222" height="743"/><path class="cls-9" d="M63.73,809.71a33.56,33.56,0,0,0-33.6,33.57c0,22.18,26,53.68,32.23,60.88a1.74,1.74,0,0,0,2.64,0c6.22-7.2,32.28-38.67,32.3-60.85A33.56,33.56,0,0,0,63.73,809.71Zm-24,33.57a24,24,0,0,1,48,0c0,13.19-12.62,32.64-22.62,45.6a1.75,1.75,0,0,1-2.78,0C52.47,876,39.72,856.34,39.72,843.28Z"/><circle class="cls-9" cx="63.71" cy="843.3" r="11.99"/><path class="cls-9" d="M89.63,885v2.59A1.76,1.76,0,0,0,91,889.33c10.75,2.26,17.69,5.84,17.69,9.85,0,6.83-20.07,12.35-44.82,12.34S19.1,906,19.1,899.14c0-3.65,5.72-6.92,14.82-9.17a1.77,1.77,0,0,0,1.35-1.71v-2.85a1.74,1.74,0,0,0-2-1.73C13.44,886.66,0,892.46,0,899.13c0,9.73,28.61,17.64,63.9,17.66s63.92-7.87,63.93-17.6c0-7-14.79-13.06-36.22-15.91A1.75,1.75,0,0,0,89.63,885Z"/><path class="cls-5" d="M315.18,612.9a14.44,14.44,0,1,0-14.43-14.45A14.48,14.48,0,0,0,315.18,612.9Zm-26.73,24.53-18.53,93.2a7.19,7.19,0,0,0,7.08,8.59h.57a7.24,7.24,0,0,0,7.08-5.62l11.72-52.13,15.16,14.45,0,36.1A7.22,7.22,0,0,0,326,732l0-40.72a14.38,14.38,0,0,0-4.47-10.47l-10.68-10.19L315.16,649a52.86,52.86,0,0,0,31.47,17.42,7.22,7.22,0,0,0,2.1-14.29,35.13,35.13,0,0,1-24.9-16.84l-7.21-11.55a15.5,15.5,0,0,0-19.13-6.08l-27.66,11.69A14.5,14.5,0,0,0,261,642.69V659.8a7.22,7.22,0,0,0,14.44,0V642.48l13-5.05"/><g id="A7N6k8.tif"><path class="cls-7" d="M1158.48,0h73.73c2.43,1,3.33,2.81,3.21,5.4-.13,3.14,0,6.28,0,9.42,0,.45,0,.9.06,1.41A15,15,0,0,1,1248.86,22a19.47,19.47,0,0,1,3.76,7.42c.44,1.65.71,3.35,1.06,5v4.65c-.09.46-.19.92-.26,1.38-1,6.92-3.7,13-8.92,17.76a17.94,17.94,0,0,1-12.75,5.11c-.36,0-.83.45-1.07.8-2.12,3.13-3.91,6.54-6.34,9.4-12.07,14.2-31.8,17.73-47.64,8.67A41.93,41.93,0,0,1,1160,64.31c-.22-.43-.79-1-1.2-1A17.72,17.72,0,0,1,1148.25,60c-9.33-6.6-13.74-20.37-10-31.43,1.9-5.69,5.3-10.06,11.31-11.78a38.37,38.37,0,0,1,5.61-.76V14.89c0-3.19.08-6.39,0-9.57C1155,2.71,1156,.9,1158.48,0Zm22.35,58.1c.19.3.38.93.69,1a2.54,2.54,0,0,0,1.77-.21c3.58-2.4,7.14-4.83,10.64-7.35a1.91,1.91,0,0,1,2.66,0c3.35,2.43,6.78,4.73,10.18,7.08.71.5,1.42,1.15,2.33.53s.53-1.52.28-2.34c-1.23-4-2.42-8.08-3.73-12.08a1.57,1.57,0,0,1,.72-2.1c3.44-2.53,6.82-5.12,10.23-7.68.68-.51,1.39-1,1.07-2s-1.15-.9-1.93-.92c-4.4-.09-8.79-.2-13.19-.25a1.33,1.33,0,0,1-1.46-1.08c-1.39-4.12-2.86-8.21-4.29-12.31-.26-.74-.46-1.53-1.46-1.57s-1.31.79-1.58,1.57c-1.42,4.06-2.87,8.12-4.24,12.2a1.48,1.48,0,0,1-1.64,1.2c-4.27,0-8.54.14-12.8.24-.84,0-1.81-.16-2.17.94s.48,1.53,1.17,2c3.44,2.59,6.87,5.2,10.33,7.76a1.3,1.3,0,0,1,.54,1.72c-1.29,4.1-2.51,8.23-3.75,12.35C1181.08,57.18,1181,57.55,1180.83,58.1Zm53-2.21c.44-.08.73-.1,1-.18a13.07,13.07,0,0,0,6.49-4.5,22.19,22.19,0,0,0,5.09-16.35,13.83,13.83,0,0,0-3.87-9.22,7.32,7.32,0,0,0-7.1-2V25c0,5.64,0,11.29,0,16.94A52,52,0,0,1,1233.79,55.89ZM1155,23.42a20.39,20.39,0,0,0-2.35,0c-3.66.48-5.89,2.81-7.11,6-2.83,7.38-1.49,14.29,2.91,20.68a13.91,13.91,0,0,0,6.52,5.3,18.27,18.27,0,0,0,1.77.48C1154,45.13,1155.66,34.34,1155,23.42Z"/><path class="cls-7" d="M1202.67,110c3.12,0,6,0,8.9,0s4.36,1.14,5.14,3.92q1.59,5.72,3.2,11.43a4.44,4.44,0,0,1-4.36,5.85q-20.23,0-40.48,0a4.37,4.37,0,0,1-4.42-5.57c1-4.18,2.23-8.32,3.43-12.45a4.42,4.42,0,0,1,4.53-3.17c2.58,0,5.17,0,7.76,0h1.51V93.93c2.57.16,5,.43,7.43.43s4.81-.28,7.36-.44Z"/></g></g></g></svg>