<svg xmlns="http://www.w3.org/2000/svg" xmlns:xlink="http://www.w3.org/1999/xlink" viewBox="0 0 1303.11 911.08"><defs><style>.cls-1{fill:url(#linear-gradient);}.cls-2{fill:#377e5c;}.cls-3{fill:url(#linear-gradient-2);}.cls-4{fill:url(#linear-gradient-3);}.cls-5{fill:url(#linear-gradient-4);}.cls-6{fill:url(#linear-gradient-5);}.cls-7{fill:#b3b3b3;}</style><linearGradient id="linear-gradient" x1="1192.11" y1="889" x2="1192.11" y2="146" gradientUnits="userSpaceOnUse"><stop offset="0" stop-color="#fefefe"/><stop offset="1" stop-color="#ececec"/></linearGradient><linearGradient id="linear-gradient-2" x1="302.91" y1="889" x2="302.91" y2="747" gradientUnits="userSpaceOnUse"><stop offset="0" stop-color="#377e5c" stop-opacity="0"/><stop offset="1" stop-color="#377e5c" stop-opacity="0.5"/></linearGradient><linearGradient id="linear-gradient-3" x1="525.91" x2="525.91" y2="594" xlink:href="#linear-gradient-2"/><linearGradient id="linear-gradient-4" x1="747.91" x2="747.91" y2="448" xlink:href="#linear-gradient-2"/><linearGradient id="linear-gradient-5" x1="969.91" x2="969.91" y2="289" xlink:href="#linear-gradient-2"/></defs><title>level4</title><g id="Layer_2" data-name="Layer 2"><g id="Layer_1-2" data-name="Layer 1"><rect class="cls-1" x="1081.11" y="146" width="222" height="743"/><rect class="cls-2" x="1081.11" y="139" width="222" height="15" rx="7.5"/><rect class="cls-2" x="637.91" y="440" width="222" height="15" rx="7.5"/><rect class="cls-2" x="191.91" y="739" width="222" height="15" rx="7.5"/><rect class="cls-3" x="191.91" y="747" width="222" height="142"/><rect class="cls-2" x="414.91" y="587" width="222" height="15" rx="7.5"/><rect class="cls-4" x="414.91" y="594" width="222" height="295"/><rect class="cls-5" x="636.91" y="448" width="222" height="441"/><rect class="cls-2" x="858.91" y="283" width="222" height="15" rx="7.5"/><rect class="cls-6" x="858.91" y="289" width="222" height="600"/><path class="cls-7" d="M63.68,804A33.56,33.56,0,0,0,30.1,837.58c0,22.19,26,53.67,32.26,60.87a1.75,1.75,0,0,0,2.65,0c6.21-7.2,32.26-38.68,32.26-60.87A33.56,33.56,0,0,0,63.68,804Zm-24,33.58a24,24,0,0,1,48,0c0,13.2-12.6,32.65-22.59,45.62a1.75,1.75,0,0,1-2.78,0C52.46,870.29,39.7,850.64,39.7,837.58Z"/><circle class="cls-7" cx="63.68" cy="837.58" r="11.99"/><path class="cls-7" d="M89.63,879.29v2.6a1.77,1.77,0,0,0,1.4,1.72c10.75,2.25,17.7,5.82,17.7,9.84,0,6.82-20.07,12.36-44.82,12.36S19.1,900.27,19.1,893.45c0-3.65,5.72-6.92,14.82-9.18a1.76,1.76,0,0,0,1.34-1.7v-2.86a1.75,1.75,0,0,0-2-1.73C13.44,881,0,886.78,0,893.45c0,9.73,28.61,17.63,63.91,17.63s63.92-7.9,63.92-17.63c0-7-14.8-13.05-36.23-15.89A1.74,1.74,0,0,0,89.63,879.29Z"/><g id="A7N6k8.tif"><path class="cls-2" d="M1153.29,0H1227c2.43,1,3.33,2.81,3.22,5.4-.14,3.14,0,6.28,0,9.42,0,.45,0,.9.06,1.41a14.94,14.94,0,0,1,13.4,5.73,19.33,19.33,0,0,1,3.76,7.42c.44,1.65.72,3.35,1.06,5v4.65c-.08.46-.19.92-.26,1.38-1,6.92-3.7,13-8.91,17.76a17.94,17.94,0,0,1-12.76,5.11c-.35,0-.82.45-1.07.8-2.12,3.13-3.91,6.54-6.34,9.4-12.07,14.2-31.8,17.73-47.64,8.67a41.93,41.93,0,0,1-16.72-17.87c-.22-.43-.79-1-1.2-1A17.67,17.67,0,0,1,1143.07,60c-9.34-6.6-13.75-20.37-10-31.43,1.91-5.69,5.3-10.06,11.32-11.78A38,38,0,0,1,1150,16V14.89c0-3.19.08-6.39,0-9.57C1149.85,2.71,1150.79.9,1153.29,0Zm22.35,58.1c.2.3.39.93.7,1a2.55,2.55,0,0,0,1.77-.21c3.58-2.4,7.13-4.83,10.63-7.35a1.91,1.91,0,0,1,2.66,0c3.35,2.43,6.79,4.73,10.19,7.08.71.5,1.42,1.15,2.32.53s.53-1.52.28-2.34c-1.23-4-2.42-8.08-3.73-12.08a1.57,1.57,0,0,1,.72-2.1c3.44-2.53,6.83-5.12,10.24-7.68.67-.51,1.38-1,1.06-2s-1.14-.9-1.93-.92c-4.39-.09-8.79-.2-13.19-.25a1.33,1.33,0,0,1-1.45-1.08c-1.4-4.12-2.86-8.21-4.3-12.31-.26-.74-.45-1.53-1.45-1.57s-1.32.79-1.59,1.57c-1.42,4.06-2.86,8.12-4.23,12.2a1.5,1.5,0,0,1-1.65,1.2c-4.27,0-8.53.14-12.8.24-.84,0-1.81-.16-2.17.94s.49,1.53,1.17,2c3.44,2.59,6.87,5.2,10.33,7.76a1.3,1.3,0,0,1,.55,1.72c-1.3,4.1-2.52,8.23-3.76,12.35C1175.9,57.18,1175.8,57.55,1175.64,58.1Zm53-2.21c.44-.08.73-.1,1-.18a13.09,13.09,0,0,0,6.48-4.5,22.14,22.14,0,0,0,5.09-16.35,13.82,13.82,0,0,0-3.86-9.22,7.33,7.33,0,0,0-7.11-2V25c0,5.64,0,11.29,0,16.94A51.61,51.61,0,0,1,1228.6,55.89Zm-78.76-32.47a20.57,20.57,0,0,0-2.36,0c-3.65.48-5.88,2.81-7.11,6-2.82,7.38-1.48,14.29,2.91,20.68a13.91,13.91,0,0,0,6.52,5.3c.53.2,1.09.3,1.78.48C1148.81,45.13,1150.47,34.34,1149.84,23.42Z"/><path class="cls-2" d="M1197.48,110c3.13,0,6,0,8.9,0s4.36,1.14,5.14,3.92q1.59,5.72,3.2,11.43a4.44,4.44,0,0,1-4.35,5.85q-20.25,0-40.49,0a4.37,4.37,0,0,1-4.42-5.57c1.06-4.18,2.23-8.32,3.43-12.45a4.43,4.43,0,0,1,4.53-3.17c2.59,0,5.17,0,7.76,0h1.51V93.93c2.57.16,5,.43,7.43.43s4.81-.28,7.36-.44Z"/></g><path class="cls-2" d="M990.81,146.73a14.44,14.44,0,1,0-14.44-14.44A14.48,14.48,0,0,0,990.81,146.73ZM964.1,171.28l-18.48,93.21a7.18,7.18,0,0,0,7.07,8.59h.58a7.25,7.25,0,0,0,7.07-5.63L972,215.32l15.16,14.44v36.1a7.22,7.22,0,0,0,14.44,0V225.14a14.35,14.35,0,0,0-4.48-10.47l-10.68-10.18,4.33-21.66a52.89,52.89,0,0,0,31.48,17.4,7.22,7.22,0,0,0,2.09-14.29,35.16,35.16,0,0,1-24.91-16.83l-7.22-11.55a15.49,15.49,0,0,0-19.13-6.06l-27.65,11.69a14.53,14.53,0,0,0-8.81,13.36v17.11a7.22,7.22,0,0,0,14.44,0V176.33l13-5.05"/></g></g></svg>